{"glyphs":{"0":{"ha":758,"x_min":29,"x_max":769,"o":"m 310 -14 q 93 79 157 -14 q 29 333 29 172 q 89 689 29 525 q 256 951 149 853 q 501 1049 364 1049 q 702 960 635 1049 q 769 715 769 871 q 722 392 769 561 q 572 105 675 224 q 310 -14 468 -14 m 328 90 q 451 190 393 90 q 545 447 510 290 q 581 764 581 604 q 560 909 581 851 q 500 967 539 967 q 375 865 436 967 q 275 607 314 764 q 236 299 236 450 q 328 90 236 90 z "},"1":{"ha":440,"x_min":29,"x_max":450,"o":"m 213 867 l 81 867 l 97 931 q 256 951 174 931 q 450 1039 338 972 l 229 0 l 29 0 l 213 867 z "},"2":{"ha":683,"x_min":-17,"x_max":656,"o":"m 435 -17 q 377 -10 407 -17 q 304 10 347 -3 q 219 32 253 25 q 150 39 186 39 q -3 -1 72 39 l -8 -1 q -17 64 -17 32 q 13 178 -17 122 q 86 282 43 235 q 204 403 129 329 q 332 534 283 479 q 414 655 381 589 q 447 793 447 721 q 422 918 447 872 q 343 964 396 964 q 264 931 294 964 q 233 851 233 899 q 252 767 233 804 q 300 714 271 731 l 300 708 q 249 674 276 686 q 194 661 221 661 q 123 700 151 661 q 94 806 94 739 q 128 918 94 864 q 229 1007 163 972 q 386 1042 296 1042 q 581 974 507 1042 q 656 789 656 907 q 617 650 656 714 q 524 536 579 586 q 375 415 468 486 q 229 296 283 346 q 146 190 175 246 q 232 201 186 201 q 301 196 265 201 q 369 183 338 190 q 406 176 375 182 q 463 169 438 169 q 532 185 500 169 q 599 240 564 201 l 603 238 q 621 151 621 186 q 595 65 621 103 q 526 5 569 26 q 435 -17 483 -17 z "},"3":{"ha":714,"x_min":8,"x_max":692,"o":"m 285 -7 q 97 42 186 -7 q 8 229 8 90 q 52 374 8 319 q 176 428 96 428 q 285 357 271 428 q 188 308 214 353 q 163 207 163 264 q 197 114 163 147 q 282 81 232 81 q 367 107 326 81 q 435 188 408 133 q 461 318 461 242 q 415 476 461 403 q 276 581 368 549 q 404 647 350 601 q 486 747 458 692 q 514 851 514 801 q 487 934 514 903 q 408 965 460 965 q 328 935 358 965 q 299 857 299 906 q 312 794 299 824 q 351 758 325 765 q 246 711 300 711 q 174 742 203 711 q 146 829 146 774 q 184 940 146 892 q 288 1014 222 988 q 433 1040 353 1040 q 574 1013 515 1040 q 662 939 632 985 q 692 838 692 893 q 643 696 692 765 q 501 579 594 626 q 633 490 589 550 q 676 350 676 429 q 627 181 676 264 q 488 46 578 99 q 285 -7 399 -7 z "},"4":{"ha":661,"x_min":-3,"x_max":663,"o":"m 663 436 q 621 340 663 382 q 514 286 579 299 l 453 0 l 260 0 l 364 299 l 338 307 q 250 329 282 322 q 182 336 218 336 q 32 307 90 336 l 26 307 l -3 361 l -3 368 q 221 675 140 539 q 301 935 301 811 q 290 1021 301 976 q 360 1031 319 1031 q 457 997 422 1031 q 492 910 492 963 q 437 762 492 847 q 302 592 382 676 q 146 447 222 508 l 147 443 q 206 460 172 453 q 271 468 240 468 q 354 460 306 468 q 415 449 403 451 l 528 772 l 617 772 l 549 450 q 636 515 597 468 l 640 513 q 663 436 663 474 z "},"5":{"ha":718,"x_min":21,"x_max":697,"o":"m 274 -7 q 86 46 151 -7 q 21 196 21 99 q 71 337 21 283 q 201 390 121 390 q 300 319 286 390 q 209 278 243 313 q 175 190 175 244 q 204 114 175 142 q 282 86 233 86 q 414 158 363 86 q 465 343 465 231 q 425 491 465 439 q 313 543 385 543 q 131 481 239 543 l 113 493 l 219 1019 q 453 1001 376 1001 q 694 1040 579 1001 q 697 994 697 1010 q 659 878 697 922 q 538 833 621 833 q 461 840 506 833 q 376 856 417 847 q 306 868 342 863 l 250 617 q 422 660 340 660 q 602 583 536 660 q 668 374 668 506 q 619 175 668 261 q 480 41 569 89 q 274 -7 390 -7 z "},"6":{"ha":694,"x_min":22,"x_max":708,"o":"m 306 -7 q 91 80 160 -7 q 22 360 22 167 q 87 702 22 546 q 263 949 151 858 q 507 1040 374 1040 q 653 997 599 1040 q 708 883 708 954 q 679 792 708 829 q 607 756 650 756 q 564 768 583 756 q 536 800 544 781 q 570 833 558 811 q 582 881 582 856 q 563 935 582 913 q 510 958 544 958 q 398 899 453 958 q 300 734 343 839 q 238 500 257 629 l 242 501 q 324 599 267 565 q 458 632 381 632 q 613 567 554 632 q 671 392 671 503 q 621 197 671 289 q 487 49 571 106 q 306 -7 403 -7 m 335 101 q 410 140 374 101 q 471 244 447 178 q 494 388 494 310 q 465 498 494 463 q 383 533 435 533 q 225 304 225 533 q 335 101 225 101 z "},"7":{"ha":644,"x_min":79,"x_max":724,"o":"m 243 -6 q 142 40 179 -6 q 104 163 104 85 q 146 333 104 246 q 242 495 188 421 q 383 671 297 569 q 483 795 453 754 q 513 863 513 836 q 464 850 488 856 q 419 844 440 844 q 332 860 383 844 q 297 868 326 861 q 238 875 267 875 q 165 858 197 875 q 101 803 133 842 l 97 804 q 79 889 79 844 q 132 1006 79 963 q 269 1050 185 1050 q 328 1045 300 1050 q 393 1029 356 1040 q 468 1011 438 1017 q 535 1006 499 1006 q 722 1035 613 1006 l 724 1029 q 691 940 724 997 q 588 772 658 882 q 450 551 504 643 q 356 355 396 458 q 315 164 315 251 q 340 21 315 92 q 243 -6 292 -6 z "},"8":{"ha":693,"x_min":-3,"x_max":697,"o":"m 493 608 q 587 514 551 554 q 647 422 622 474 q 672 310 672 369 q 623 151 672 224 q 490 35 574 78 q 306 -8 406 -8 q 147 26 217 -8 q 37 120 76 60 q -3 260 -3 181 q 61 430 -3 357 q 261 564 125 503 q 169 681 201 626 q 136 800 136 736 q 176 927 136 869 q 287 1018 217 985 q 442 1051 357 1051 q 574 1026 515 1051 q 665 956 632 1001 q 697 856 697 911 q 493 608 697 719 m 457 985 q 369 947 404 985 q 333 849 333 908 q 360 755 333 799 q 436 663 386 711 q 518 767 488 708 q 549 879 549 825 q 524 956 549 928 q 457 985 500 985 m 313 88 q 420 138 375 88 q 465 256 465 188 q 428 378 465 321 q 318 507 390 435 q 216 398 251 463 q 181 258 181 333 q 217 134 181 181 q 313 88 253 88 z "},"9":{"ha":679,"x_min":18,"x_max":683,"o":"m 219 -4 q 73 39 128 -4 q 18 153 18 82 q 47 244 18 207 q 118 282 76 282 q 163 269 143 282 q 189 238 183 257 q 156 203 168 225 q 144 158 144 182 q 162 110 144 129 q 214 90 179 90 q 324 150 271 90 q 415 315 376 210 q 471 550 454 421 l 467 549 q 385 451 442 485 q 251 418 329 418 q 96 483 154 418 q 38 658 38 547 q 91 848 38 760 q 233 989 144 936 q 425 1042 322 1042 q 618 949 553 1042 q 683 676 683 857 q 622 333 683 489 q 454 87 561 178 q 219 -4 347 -4 m 311 519 q 443 588 401 519 q 485 775 485 656 q 383 951 485 951 q 299 909 338 951 q 237 800 260 867 q 214 663 214 733 q 240 554 214 589 q 311 519 267 519 z "},"\u0000":{"ha":833,"x_min":0,"x_max":0,"o":""},"\r":{"ha":833,"x_min":0,"x_max":0,"o":""}," ":{"ha":301,"x_min":0,"x_max":0,"o":""},"A":{"ha":928,"x_min":13,"x_max":961,"o":"m 303 -158 q 213 -150 251 -158 q 145 -110 174 -142 q 117 -11 117 -78 q 173 239 117 82 q 321 554 229 396 q 211 533 251 550 q 158 482 171 517 q 170 468 164 482 q 176 439 176 454 q 154 399 176 414 q 99 385 132 385 q 36 406 60 385 q 13 465 13 426 q 49 551 13 513 q 151 613 86 590 q 296 636 217 636 q 368 632 325 636 q 609 927 482 813 q 851 1042 736 1042 q 961 1022 918 1042 l 743 0 l 543 0 l 650 504 q 556 539 599 528 q 464 554 513 550 q 334 205 385 383 q 283 -81 283 26 q 303 -158 283 -133 m 743 943 q 619 824 683 911 q 493 614 554 738 q 663 565 593 594 l 743 943 z "},"Á":{"ha":928,"x_min":13,"x_max":1069,"o":"m 797 1126 l 924 1389 l 1069 1389 l 901 1126 l 797 1126 m 303 -158 q 213 -150 251 -158 q 145 -110 174 -142 q 117 -11 117 -78 q 173 239 117 82 q 321 554 229 396 q 211 533 251 550 q 158 482 171 517 q 170 468 164 482 q 176 439 176 454 q 154 399 176 414 q 99 385 132 385 q 36 406 60 385 q 13 465 13 426 q 49 551 13 513 q 151 613 86 590 q 296 636 217 636 q 368 632 325 636 q 609 927 482 813 q 851 1042 736 1042 q 961 1022 918 1042 l 743 0 l 543 0 l 650 504 q 556 539 599 528 q 464 554 513 550 q 334 205 385 383 q 283 -81 283 26 q 303 -158 283 -133 m 743 943 q 619 824 683 911 q 493 614 554 738 q 663 565 593 594 l 743 943 z "},"Ă":{"ha":928,"x_min":13,"x_max":1146,"o":"m 853 1132 q 695 1181 750 1132 q 640 1325 640 1231 l 765 1325 q 794 1240 765 1269 q 874 1210 822 1210 q 976 1243 932 1210 q 1026 1325 1019 1276 l 1146 1325 q 1097 1226 1138 1271 q 991 1157 1056 1182 q 853 1132 926 1132 m 303 -158 q 213 -150 251 -158 q 145 -110 174 -142 q 117 -11 117 -78 q 173 239 117 82 q 321 554 229 396 q 211 533 251 550 q 158 482 171 517 q 170 468 164 482 q 176 439 176 454 q 154 399 176 414 q 99 385 132 385 q 36 406 60 385 q 13 465 13 426 q 49 551 13 513 q 151 613 86 590 q 296 636 217 636 q 368 632 325 636 q 609 927 482 813 q 851 1042 736 1042 q 961 1022 918 1042 l 743 0 l 543 0 l 650 504 q 556 539 599 528 q 464 554 513 550 q 334 205 385 383 q 283 -81 283 26 q 303 -158 283 -133 m 743 943 q 619 824 683 911 q 493 614 554 738 q 663 565 593 594 l 743 943 z "},"Ắ":{"ha":928,"x_min":13,"x_max":1110,"o":"m 850 1203 l 936 1389 l 1044 1389 l 925 1203 l 850 1203 m 865 1088 q 733 1128 778 1088 q 688 1247 688 1169 l 790 1247 q 815 1176 790 1201 q 882 1151 839 1151 q 967 1179 931 1151 q 1011 1247 1004 1207 l 1110 1247 q 1069 1166 1104 1203 q 981 1108 1035 1129 q 865 1088 926 1088 m 303 -158 q 213 -150 251 -158 q 145 -110 174 -142 q 117 -11 117 -78 q 173 239 117 82 q 321 554 229 396 q 211 533 251 550 q 158 482 171 517 q 170 468 164 482 q 176 439 176 454 q 154 399 176 414 q 99 385 132 385 q 36 406 60 385 q 13 465 13 426 q 49 551 13 513 q 151 613 86 590 q 296 636 217 636 q 368 632 325 636 q 609 927 482 813 q 851 1042 736 1042 q 961 1022 918 1042 l 743 0 l 543 0 l 650 504 q 556 539 599 528 q 464 554 513 550 q 334 205 385 383 q 283 -81 283 26 q 303 -158 283 -133 m 743 943 q 619 824 683 911 q 493 614 554 738 q 663 565 593 594 l 743 943 z "},"Ặ":{"ha":928,"x_min":13,"x_max":1146,"o":"m 853 1132 q 695 1181 750 1132 q 640 1325 640 1231 l 765 1325 q 794 1240 765 1269 q 874 1210 822 1210 q 976 1243 932 1210 q 1026 1325 1019 1276 l 1146 1325 q 1097 1226 1138 1271 q 991 1157 1056 1182 q 853 1132 926 1132 m 303 -158 q 213 -150 251 -158 q 145 -110 174 -142 q 117 -11 117 -78 q 173 239 117 82 q 321 554 229 396 q 211 533 251 550 q 158 482 171 517 q 170 468 164 482 q 176 439 176 454 q 154 399 176 414 q 99 385 132 385 q 36 406 60 385 q 13 465 13 426 q 49 551 13 513 q 151 613 86 590 q 296 636 217 636 q 368 632 325 636 q 609 927 482 813 q 851 1042 736 1042 q 961 1022 918 1042 l 743 0 l 543 0 l 650 504 q 556 539 599 528 q 464 554 513 550 q 334 205 385 383 q 283 -81 283 26 q 303 -158 283 -133 m 743 943 q 619 824 683 911 q 493 614 554 738 q 663 565 593 594 l 743 943 m 518 -321 q 440 -289 472 -321 q 407 -211 407 -257 q 440 -133 407 -165 q 518 -100 472 -100 q 597 -133 564 -100 q 629 -211 629 -165 q 597 -289 629 -257 q 518 -321 564 -321 z "},"Ằ":{"ha":928,"x_min":13,"x_max":1110,"o":"m 864 1201 l 801 1389 l 914 1389 l 940 1201 l 864 1201 m 865 1088 q 733 1128 778 1088 q 688 1247 688 1169 l 790 1247 q 815 1176 790 1201 q 882 1151 839 1151 q 967 1179 931 1151 q 1011 1247 1004 1207 l 1110 1247 q 1069 1166 1104 1203 q 981 1108 1035 1129 q 865 1088 926 1088 m 303 -158 q 213 -150 251 -158 q 145 -110 174 -142 q 117 -11 117 -78 q 173 239 117 82 q 321 554 229 396 q 211 533 251 550 q 158 482 171 517 q 170 468 164 482 q 176 439 176 454 q 154 399 176 414 q 99 385 132 385 q 36 406 60 385 q 13 465 13 426 q 49 551 13 513 q 151 613 86 590 q 296 636 217 636 q 368 632 325 636 q 609 927 482 813 q 851 1042 736 1042 q 961 1022 918 1042 l 743 0 l 543 0 l 650 504 q 556 539 599 528 q 464 554 513 550 q 334 205 385 383 q 283 -81 283 26 q 303 -158 283 -133 m 743 943 q 619 824 683 911 q 493 614 554 738 q 663 565 593 594 l 743 943 z "},"Ẳ":{"ha":928,"x_min":13,"x_max":1110,"o":"m 847 1189 l 847 1274 q 890 1268 878 1268 q 936 1306 936 1268 q 890 1340 936 1340 q 832 1325 858 1340 l 807 1364 q 849 1382 824 1375 q 900 1389 875 1389 q 974 1367 946 1389 q 1003 1311 1003 1346 q 974 1253 1003 1276 q 897 1226 944 1229 l 894 1186 l 847 1189 m 865 1088 q 733 1128 778 1088 q 688 1247 688 1169 l 771 1247 q 803 1177 771 1203 q 882 1151 836 1151 q 978 1180 932 1151 q 1031 1247 1025 1208 l 1110 1247 q 1069 1166 1104 1203 q 981 1108 1035 1129 q 865 1088 926 1088 m 303 -158 q 213 -150 251 -158 q 145 -110 174 -142 q 117 -11 117 -78 q 173 239 117 82 q 321 554 229 396 q 211 533 251 550 q 158 482 171 517 q 170 468 164 482 q 176 439 176 454 q 154 399 176 414 q 99 385 132 385 q 36 406 60 385 q 13 465 13 426 q 49 551 13 513 q 151 613 86 590 q 296 636 217 636 q 368 632 325 636 q 609 927 482 813 q 851 1042 736 1042 q 961 1022 918 1042 l 743 0 l 543 0 l 650 504 q 556 539 599 528 q 464 554 513 550 q 334 205 385 383 q 283 -81 283 26 q 303 -158 283 -133 m 743 943 q 619 824 683 911 q 493 614 554 738 q 663 565 593 594 l 743 943 z "},"Ẵ":{"ha":928,"x_min":13,"x_max":1110,"o":"m 951 1278 q 863 1297 915 1278 q 786 1315 817 1315 q 722 1290 750 1315 l 717 1292 q 781 1364 739 1339 q 879 1389 824 1389 q 924 1384 904 1389 q 969 1371 943 1379 q 1042 1356 1013 1356 q 1103 1378 1082 1356 l 1108 1376 q 1081 1331 1104 1354 q 1022 1292 1057 1307 q 951 1278 988 1278 m 865 1088 q 733 1128 778 1088 q 688 1247 688 1169 l 790 1247 q 815 1176 790 1201 q 882 1151 839 1151 q 967 1179 931 1151 q 1011 1247 1004 1207 l 1110 1247 q 1069 1166 1104 1203 q 981 1108 1035 1129 q 865 1088 926 1088 m 303 -158 q 213 -150 251 -158 q 145 -110 174 -142 q 117 -11 117 -78 q 173 239 117 82 q 321 554 229 396 q 211 533 251 550 q 158 482 171 517 q 170 468 164 482 q 176 439 176 454 q 154 399 176 414 q 99 385 132 385 q 36 406 60 385 q 13 465 13 426 q 49 551 13 513 q 151 613 86 590 q 296 636 217 636 q 368 632 325 636 q 609 927 482 813 q 851 1042 736 1042 q 961 1022 918 1042 l 743 0 l 543 0 l 650 504 q 556 539 599 528 q 464 554 513 550 q 334 205 385 383 q 283 -81 283 26 q 303 -158 283 -133 m 743 943 q 619 824 683 911 q 493 614 554 738 q 663 565 593 594 l 743 943 z "},"Ǎ":{"ha":928,"x_min":13,"x_max":1189,"o":"m 865 1126 l 782 1389 l 826 1389 l 910 1278 l 1128 1389 l 1189 1389 l 894 1126 l 865 1126 m 303 -158 q 213 -150 251 -158 q 145 -110 174 -142 q 117 -11 117 -78 q 173 239 117 82 q 321 554 229 396 q 211 533 251 550 q 158 482 171 517 q 170 468 164 482 q 176 439 176 454 q 154 399 176 414 q 99 385 132 385 q 36 406 60 385 q 13 465 13 426 q 49 551 13 513 q 151 613 86 590 q 296 636 217 636 q 368 632 325 636 q 609 927 482 813 q 851 1042 736 1042 q 961 1022 918 1042 l 743 0 l 543 0 l 650 504 q 556 539 599 528 q 464 554 513 550 q 334 205 385 383 q 283 -81 283 26 q 303 -158 283 -133 m 743 943 q 619 824 683 911 q 493 614 554 738 q 663 565 593 594 l 743 943 z "},"Â":{"ha":928,"x_min":13,"x_max":1061,"o":"m 654 1126 l 949 1389 l 978 1389 l 1061 1126 l 1015 1126 l 932 1238 l 715 1126 l 654 1126 m 303 -158 q 213 -150 251 -158 q 145 -110 174 -142 q 117 -11 117 -78 q 173 239 117 82 q 321 554 229 396 q 211 533 251 550 q 158 482 171 517 q 170 468 164 482 q 176 439 176 454 q 154 399 176 414 q 99 385 132 385 q 36 406 60 385 q 13 465 13 426 q 49 551 13 513 q 151 613 86 590 q 296 636 217 636 q 368 632 325 636 q 609 927 482 813 q 851 1042 736 1042 q 961 1022 918 1042 l 743 0 l 543 0 l 650 504 q 556 539 599 528 q 464 554 513 550 q 334 205 385 383 q 283 -81 283 26 q 303 -158 283 -133 m 743 943 q 619 824 683 911 q 493 614 554 738 q 663 565 593 594 l 743 943 z "},"Ấ":{"ha":928,"x_min":13,"x_max":1194,"o":"m 1013 1203 l 1099 1389 l 1194 1389 l 1074 1203 l 1013 1203 m 679 1126 l 926 1319 l 951 1319 l 1021 1126 l 958 1126 l 914 1226 l 761 1126 l 679 1126 m 303 -158 q 213 -150 251 -158 q 145 -110 174 -142 q 117 -11 117 -78 q 173 239 117 82 q 321 554 229 396 q 211 533 251 550 q 158 482 171 517 q 170 468 164 482 q 176 439 176 454 q 154 399 176 414 q 99 385 132 385 q 36 406 60 385 q 13 465 13 426 q 49 551 13 513 q 151 613 86 590 q 296 636 217 636 q 368 632 325 636 q 609 927 482 813 q 851 1042 736 1042 q 961 1022 918 1042 l 743 0 l 543 0 l 650 504 q 556 539 599 528 q 464 554 513 550 q 334 205 385 383 q 283 -81 283 26 q 303 -158 283 -133 m 743 943 q 619 824 683 911 q 493 614 554 738 q 663 565 593 594 l 743 943 z "},"Ậ":{"ha":928,"x_min":13,"x_max":1061,"o":"m 654 1126 l 949 1389 l 978 1389 l 1061 1126 l 1015 1126 l 932 1238 l 715 1126 l 654 1126 m 303 -158 q 213 -150 251 -158 q 145 -110 174 -142 q 117 -11 117 -78 q 173 239 117 82 q 321 554 229 396 q 211 533 251 550 q 158 482 171 517 q 170 468 164 482 q 176 439 176 454 q 154 399 176 414 q 99 385 132 385 q 36 406 60 385 q 13 465 13 426 q 49 551 13 513 q 151 613 86 590 q 296 636 217 636 q 368 632 325 636 q 609 927 482 813 q 851 1042 736 1042 q 961 1022 918 1042 l 743 0 l 543 0 l 650 504 q 556 539 599 528 q 464 554 513 550 q 334 205 385 383 q 283 -81 283 26 q 303 -158 283 -133 m 743 943 q 619 824 683 911 q 493 614 554 738 q 663 565 593 594 l 743 943 m 518 -321 q 440 -289 472 -321 q 407 -211 407 -257 q 440 -133 407 -165 q 518 -100 472 -100 q 597 -133 564 -100 q 629 -211 629 -165 q 597 -289 629 -257 q 518 -321 564 -321 z "},"Ầ":{"ha":928,"x_min":13,"x_max":1129,"o":"m 1074 1201 l 1011 1389 l 1103 1389 l 1129 1201 l 1074 1201 m 679 1126 l 926 1319 l 951 1319 l 1021 1126 l 958 1126 l 914 1226 l 761 1126 l 679 1126 m 303 -158 q 213 -150 251 -158 q 145 -110 174 -142 q 117 -11 117 -78 q 173 239 117 82 q 321 554 229 396 q 211 533 251 550 q 158 482 171 517 q 170 468 164 482 q 176 439 176 454 q 154 399 176 414 q 99 385 132 385 q 36 406 60 385 q 13 465 13 426 q 49 551 13 513 q 151 613 86 590 q 296 636 217 636 q 368 632 325 636 q 609 927 482 813 q 851 1042 736 1042 q 961 1022 918 1042 l 743 0 l 543 0 l 650 504 q 556 539 599 528 q 464 554 513 550 q 334 205 385 383 q 283 -81 283 26 q 303 -158 283 -133 m 743 943 q 619 824 683 911 q 493 614 554 738 q 663 565 593 594 l 743 943 z "},"Ẩ":{"ha":928,"x_min":13,"x_max":1193,"o":"m 1038 1189 l 1038 1274 q 1081 1268 1065 1268 q 1126 1306 1126 1268 q 1081 1340 1126 1340 q 1022 1325 1049 1340 l 997 1364 q 1039 1382 1013 1375 q 1090 1389 1065 1389 q 1165 1367 1136 1389 q 1193 1311 1193 1346 q 1164 1253 1193 1276 q 1088 1226 1135 1229 l 1083 1186 l 1038 1189 m 679 1126 l 926 1319 l 951 1319 l 1021 1126 l 958 1126 l 914 1226 l 761 1126 l 679 1126 m 303 -158 q 213 -150 251 -158 q 145 -110 174 -142 q 117 -11 117 -78 q 173 239 117 82 q 321 554 229 396 q 211 533 251 550 q 158 482 171 517 q 170 468 164 482 q 176 439 176 454 q 154 399 176 414 q 99 385 132 385 q 36 406 60 385 q 13 465 13 426 q 49 551 13 513 q 151 613 86 590 q 296 636 217 636 q 368 632 325 636 q 609 927 482 813 q 851 1042 736 1042 q 961 1022 918 1042 l 743 0 l 543 0 l 650 504 q 556 539 599 528 q 464 554 513 550 q 334 205 385 383 q 283 -81 283 26 q 303 -158 283 -133 m 743 943 q 619 824 683 911 q 493 614 554 738 q 663 565 593 594 l 743 943 z "},"Ẫ":{"ha":928,"x_min":13,"x_max":1136,"o":"m 1136 1376 q 1081 1309 1129 1340 q 978 1278 1032 1278 l 967 1278 l 1021 1126 l 958 1126 l 914 1226 l 761 1126 l 679 1126 l 896 1296 q 853 1309 875 1303 q 813 1315 832 1315 q 750 1290 778 1315 l 743 1292 q 809 1364 767 1339 q 907 1389 851 1389 q 951 1384 932 1389 q 997 1371 971 1379 q 1069 1356 1040 1356 q 1129 1378 1108 1356 l 1136 1376 m 368 632 q 609 927 482 813 q 851 1042 736 1042 q 961 1022 918 1042 l 743 0 l 543 0 l 650 504 q 556 539 599 528 q 464 554 513 550 q 334 205 385 383 q 283 -81 283 26 q 303 -158 283 -133 q 213 -150 251 -158 q 145 -110 174 -142 q 117 -11 117 -78 q 173 239 117 82 q 321 554 229 396 q 211 533 251 550 q 158 482 171 517 q 170 468 164 482 q 176 439 176 454 q 154 399 176 414 q 99 385 132 385 q 36 406 60 385 q 13 465 13 426 q 49 551 13 513 q 151 613 86 590 q 296 636 217 636 q 368 632 325 636 m 743 943 q 619 824 683 911 q 493 614 554 738 q 663 565 593 594 l 743 943 z "},"Ȁ":{"ha":928,"x_min":13,"x_max":983,"o":"m 683 1126 l 488 1389 l 633 1389 l 760 1126 l 683 1126 m 908 1126 l 713 1389 l 858 1389 l 983 1126 l 908 1126 m 303 -158 q 213 -150 251 -158 q 145 -110 174 -142 q 117 -11 117 -78 q 173 239 117 82 q 321 554 229 396 q 211 533 251 550 q 158 482 171 517 q 170 468 164 482 q 176 439 176 454 q 154 399 176 414 q 99 385 132 385 q 36 406 60 385 q 13 465 13 426 q 49 551 13 513 q 151 613 86 590 q 296 636 217 636 q 368 632 325 636 q 609 927 482 813 q 851 1042 736 1042 q 961 1022 918 1042 l 743 0 l 543 0 l 650 504 q 556 539 599 528 q 464 554 513 550 q 334 205 385 383 q 283 -81 283 26 q 303 -158 283 -133 m 743 943 q 619 824 683 911 q 493 614 554 738 q 663 565 593 594 l 743 943 z "},"Ä":{"ha":928,"x_min":13,"x_max":1050,"o":"m 717 1143 q 656 1167 679 1143 q 632 1228 632 1192 q 656 1288 632 1263 q 717 1313 681 1313 q 775 1288 750 1313 q 800 1228 800 1263 q 775 1167 800 1192 q 717 1143 750 1143 m 965 1143 q 905 1167 929 1143 q 881 1228 881 1192 q 906 1288 881 1263 q 965 1313 931 1313 q 1025 1288 1000 1313 q 1050 1228 1050 1263 q 1026 1167 1050 1192 q 965 1143 1001 1143 m 303 -158 q 213 -150 251 -158 q 145 -110 174 -142 q 117 -11 117 -78 q 173 239 117 82 q 321 554 229 396 q 211 533 251 550 q 158 482 171 517 q 170 468 164 482 q 176 439 176 454 q 154 399 176 414 q 99 385 132 385 q 36 406 60 385 q 13 465 13 426 q 49 551 13 513 q 151 613 86 590 q 296 636 217 636 q 368 632 325 636 q 609 927 482 813 q 851 1042 736 1042 q 961 1022 918 1042 l 743 0 l 543 0 l 650 504 q 556 539 599 528 q 464 554 513 550 q 334 205 385 383 q 283 -81 283 26 q 303 -158 283 -133 m 743 943 q 619 824 683 911 q 493 614 554 738 q 663 565 593 594 l 743 943 z "},"Ạ":{"ha":928,"x_min":13,"x_max":961,"o":"m 303 -158 q 213 -150 251 -158 q 145 -110 174 -142 q 117 -11 117 -78 q 173 239 117 82 q 321 554 229 396 q 211 533 251 550 q 158 482 171 517 q 170 468 164 482 q 176 439 176 454 q 154 399 176 414 q 99 385 132 385 q 36 406 60 385 q 13 465 13 426 q 49 551 13 513 q 151 613 86 590 q 296 636 217 636 q 368 632 325 636 q 609 927 482 813 q 851 1042 736 1042 q 961 1022 918 1042 l 743 0 l 543 0 l 650 504 q 556 539 599 528 q 464 554 513 550 q 334 205 385 383 q 283 -81 283 26 q 303 -158 283 -133 m 743 943 q 619 824 683 911 q 493 614 554 738 q 663 565 593 594 l 743 943 m 518 -321 q 440 -289 472 -321 q 407 -211 407 -257 q 440 -133 407 -165 q 518 -100 472 -100 q 597 -133 564 -100 q 629 -211 629 -165 q 597 -289 629 -257 q 518 -321 564 -321 z "},"À":{"ha":928,"x_min":13,"x_max":961,"o":"m 757 1126 l 675 1389 l 821 1389 l 861 1126 l 757 1126 m 303 -158 q 213 -150 251 -158 q 145 -110 174 -142 q 117 -11 117 -78 q 173 239 117 82 q 321 554 229 396 q 211 533 251 550 q 158 482 171 517 q 170 468 164 482 q 176 439 176 454 q 154 399 176 414 q 99 385 132 385 q 36 406 60 385 q 13 465 13 426 q 49 551 13 513 q 151 613 86 590 q 296 636 217 636 q 368 632 325 636 q 609 927 482 813 q 851 1042 736 1042 q 961 1022 918 1042 l 743 0 l 543 0 l 650 504 q 556 539 599 528 q 464 554 513 550 q 334 205 385 383 q 283 -81 283 26 q 303 -158 283 -133 m 743 943 q 619 824 683 911 q 493 614 554 738 q 663 565 593 594 l 743 943 z "},"Ả":{"ha":928,"x_min":13,"x_max":1031,"o":"m 810 1103 l 810 1225 q 871 1218 844 1218 q 919 1231 901 1218 q 936 1268 936 1244 q 871 1318 936 1318 q 788 1296 822 1318 l 751 1354 q 813 1379 775 1369 q 888 1389 851 1389 q 990 1358 950 1389 q 1031 1276 1031 1326 q 990 1196 1031 1229 q 885 1157 950 1163 l 874 1100 l 810 1103 m 303 -158 q 213 -150 251 -158 q 145 -110 174 -142 q 117 -11 117 -78 q 173 239 117 82 q 321 554 229 396 q 211 533 251 550 q 158 482 171 517 q 170 468 164 482 q 176 439 176 454 q 154 399 176 414 q 99 385 132 385 q 36 406 60 385 q 13 465 13 426 q 49 551 13 513 q 151 613 86 590 q 296 636 217 636 q 368 632 325 636 q 609 927 482 813 q 851 1042 736 1042 q 961 1022 918 1042 l 743 0 l 543 0 l 650 504 q 556 539 599 528 q 464 554 513 550 q 334 205 385 383 q 283 -81 283 26 q 303 -158 283 -133 m 743 943 q 619 824 683 911 q 493 614 554 738 q 663 565 593 594 l 743 943 z "},"Ȃ":{"ha":928,"x_min":13,"x_max":1124,"o":"m 619 1142 q 668 1239 626 1194 q 774 1308 710 1283 q 913 1333 839 1333 q 1069 1284 1015 1333 q 1124 1142 1124 1235 l 1000 1142 q 972 1227 1000 1197 q 890 1257 943 1257 q 790 1224 833 1257 q 739 1142 746 1190 l 619 1142 m 303 -158 q 213 -150 251 -158 q 145 -110 174 -142 q 117 -11 117 -78 q 173 239 117 82 q 321 554 229 396 q 211 533 251 550 q 158 482 171 517 q 170 468 164 482 q 176 439 176 454 q 154 399 176 414 q 99 385 132 385 q 36 406 60 385 q 13 465 13 426 q 49 551 13 513 q 151 613 86 590 q 296 636 217 636 q 368 632 325 636 q 609 927 482 813 q 851 1042 736 1042 q 961 1022 918 1042 l 743 0 l 543 0 l 650 504 q 556 539 599 528 q 464 554 513 550 q 334 205 385 383 q 283 -81 283 26 q 303 -158 283 -133 m 743 943 q 619 824 683 911 q 493 614 554 738 q 663 565 593 594 l 743 943 z "},"Ā":{"ha":928,"x_min":13,"x_max":1086,"o":"m 619 1179 l 642 1282 l 1086 1282 l 1065 1179 l 619 1179 m 303 -158 q 213 -150 251 -158 q 145 -110 174 -142 q 117 -11 117 -78 q 173 239 117 82 q 321 554 229 396 q 211 533 251 550 q 158 482 171 517 q 170 468 164 482 q 176 439 176 454 q 154 399 176 414 q 99 385 132 385 q 36 406 60 385 q 13 465 13 426 q 49 551 13 513 q 151 613 86 590 q 296 636 217 636 q 368 632 325 636 q 609 927 482 813 q 851 1042 736 1042 q 961 1022 918 1042 l 743 0 l 543 0 l 650 504 q 556 539 599 528 q 464 554 513 550 q 334 205 385 383 q 283 -81 283 26 q 303 -158 283 -133 m 743 943 q 619 824 683 911 q 493 614 554 738 q 663 565 593 594 l 743 943 z "},"Ą":{"ha":928,"x_min":13,"x_max":961,"o":"m 611 -268 q 530 -235 558 -268 q 501 -160 501 -201 q 526 -81 501 -122 q 600 0 551 -39 l 543 0 l 650 504 q 556 539 599 528 q 464 554 513 550 q 334 205 385 383 q 283 -81 283 26 q 303 -158 283 -133 q 213 -150 251 -158 q 145 -110 174 -142 q 117 -11 117 -78 q 173 239 117 82 q 321 554 229 396 q 211 533 251 550 q 158 482 171 517 q 170 468 164 482 q 176 439 176 454 q 154 399 176 414 q 99 385 132 385 q 36 406 60 385 q 13 465 13 426 q 49 551 13 513 q 151 613 86 590 q 296 636 217 636 q 368 632 325 636 q 609 927 482 813 q 851 1042 736 1042 q 961 1022 918 1042 l 743 0 l 692 0 q 639 -49 661 -17 q 617 -117 617 -82 q 631 -165 617 -144 q 671 -186 644 -186 q 706 -177 689 -186 q 740 -156 724 -168 q 765 -139 757 -144 q 763 -182 763 -172 q 690 -245 722 -222 q 611 -268 657 -268 m 743 943 q 619 824 683 911 q 493 614 554 738 q 663 565 593 594 l 743 943 z "},"Å":{"ha":928,"x_min":13,"x_max":961,"o":"m 832 1114 q 761 1142 788 1114 q 735 1211 735 1169 q 765 1297 735 1256 q 853 1338 796 1338 q 927 1308 901 1338 q 953 1231 953 1278 q 923 1147 953 1181 q 832 1114 893 1114 m 838 1163 q 885 1179 869 1163 q 901 1226 901 1196 q 893 1274 901 1256 q 856 1292 885 1292 q 806 1268 822 1292 q 790 1214 790 1244 q 838 1163 790 1163 m 303 -158 q 213 -150 251 -158 q 145 -110 174 -142 q 117 -11 117 -78 q 173 239 117 82 q 321 554 229 396 q 211 533 251 550 q 158 482 171 517 q 170 468 164 482 q 176 439 176 454 q 154 399 176 414 q 99 385 132 385 q 36 406 60 385 q 13 465 13 426 q 49 551 13 513 q 151 613 86 590 q 296 636 217 636 q 368 632 325 636 q 609 927 482 813 q 851 1042 736 1042 q 961 1022 918 1042 l 743 0 l 543 0 l 650 504 q 556 539 599 528 q 464 554 513 550 q 334 205 385 383 q 283 -81 283 26 q 303 -158 283 -133 m 743 943 q 619 824 683 911 q 493 614 554 738 q 663 565 593 594 l 743 943 z "},"Ǻ":{"ha":928,"x_min":13,"x_max":1099,"o":"m 983 1138 q 969 1074 983 1101 q 926 1033 954 1047 q 961 1022 949 1028 l 743 0 l 543 0 l 650 504 q 556 539 599 528 q 464 554 513 550 q 334 205 385 383 q 283 -81 283 26 q 303 -158 283 -133 q 213 -150 251 -158 q 145 -110 174 -142 q 117 -11 117 -78 q 173 239 117 82 q 321 554 229 396 q 211 533 251 550 q 158 482 171 517 q 170 468 164 482 q 176 439 176 454 q 154 399 176 414 q 99 385 132 385 q 36 406 60 385 q 13 465 13 426 q 49 551 13 513 q 151 613 86 590 q 296 636 217 636 q 368 632 325 636 q 585 905 471 794 q 807 1038 700 1015 q 767 1118 767 1064 q 801 1208 767 1171 q 885 1244 836 1244 l 953 1389 l 1099 1389 l 956 1217 q 983 1138 983 1186 m 883 1178 q 851 1163 864 1178 q 839 1124 839 1149 q 848 1099 839 1108 q 874 1089 857 1089 q 917 1139 917 1089 q 908 1167 917 1157 q 883 1178 899 1178 m 743 943 q 619 824 683 911 q 493 614 554 738 q 663 565 593 594 l 743 943 z "},"Ã":{"ha":928,"x_min":13,"x_max":1125,"o":"m 901 1138 q 840 1144 869 1138 q 774 1165 811 1151 q 717 1183 742 1176 q 668 1189 693 1189 q 576 1153 617 1189 l 568 1156 q 661 1257 601 1222 q 800 1292 721 1292 q 865 1285 836 1292 q 928 1267 893 1279 q 1029 1246 988 1246 q 1117 1278 1085 1246 l 1125 1276 q 1084 1212 1118 1244 q 1001 1158 1050 1179 q 901 1138 953 1138 m 303 -158 q 213 -150 251 -158 q 145 -110 174 -142 q 117 -11 117 -78 q 173 239 117 82 q 321 554 229 396 q 211 533 251 550 q 158 482 171 517 q 170 468 164 482 q 176 439 176 454 q 154 399 176 414 q 99 385 132 385 q 36 406 60 385 q 13 465 13 426 q 49 551 13 513 q 151 613 86 590 q 296 636 217 636 q 368 632 325 636 q 609 927 482 813 q 851 1042 736 1042 q 961 1022 918 1042 l 743 0 l 543 0 l 650 504 q 556 539 599 528 q 464 554 513 550 q 334 205 385 383 q 283 -81 283 26 q 303 -158 283 -133 m 743 943 q 619 824 683 911 q 493 614 554 738 q 663 565 593 594 l 743 943 z "},"Æ":{"ha":1061,"x_min":13,"x_max":1263,"o":"m 303 -157 q 203 -145 240 -154 q 142 -103 167 -136 q 117 -1 117 -71 q 173 242 117 88 q 321 554 229 397 q 213 534 253 550 q 158 482 174 518 q 170 468 164 482 q 176 439 176 454 q 156 400 176 415 q 92 385 135 385 q 35 406 58 385 q 13 472 13 428 q 50 551 13 514 q 150 610 88 588 q 283 632 213 632 q 365 628 319 632 q 607 927 479 811 q 850 1043 735 1043 q 960 1031 892 1043 q 1030 1020 993 1025 q 1100 1015 1067 1015 q 1263 1042 1185 1015 q 1247 988 1260 1033 q 1200 915 1233 942 q 1114 889 1167 889 q 1042 898 1074 889 q 981 918 1010 907 q 942 933 953 929 l 867 582 l 1082 582 l 1054 479 l 844 479 l 774 147 l 1085 147 l 1056 0 l 543 0 l 650 504 q 463 554 553 547 q 334 206 385 383 q 283 -79 283 29 q 293 -142 283 -131 q 303 -157 303 -154 m 743 943 q 617 823 682 910 q 490 613 551 736 q 663 565 586 594 l 743 943 z "},"Ǽ":{"ha":1061,"x_min":13,"x_max":1263,"o":"m 882 1126 l 1008 1389 l 1154 1389 l 957 1126 l 882 1126 m 303 -157 q 203 -145 240 -154 q 142 -103 167 -136 q 117 -1 117 -71 q 173 242 117 88 q 321 554 229 397 q 213 534 253 550 q 158 482 174 518 q 170 468 164 482 q 176 439 176 454 q 156 400 176 415 q 92 385 135 385 q 35 406 58 385 q 13 472 13 428 q 50 551 13 514 q 150 610 88 588 q 283 632 213 632 q 365 628 319 632 q 607 927 479 811 q 850 1043 735 1043 q 960 1031 892 1043 q 1030 1020 993 1025 q 1100 1015 1067 1015 q 1263 1042 1185 1015 q 1247 988 1260 1033 q 1200 915 1233 942 q 1114 889 1167 889 q 1042 898 1074 889 q 981 918 1010 907 q 942 933 953 929 l 867 582 l 1082 582 l 1054 479 l 844 479 l 774 147 l 1085 147 l 1056 0 l 543 0 l 650 504 q 463 554 553 547 q 334 206 385 383 q 283 -79 283 29 q 293 -142 283 -131 q 303 -157 303 -154 m 743 943 q 617 823 682 910 q 490 613 551 736 q 663 565 586 594 l 743 943 z "},"B":{"ha":890,"x_min":17,"x_max":842,"o":"m 538 -24 q 441 -1 482 -24 q 400 79 400 22 q 418 160 400 115 q 465 121 443 132 q 511 110 486 110 q 615 188 581 110 q 649 360 649 265 q 517 536 649 536 q 453 532 479 536 l 339 0 l 139 0 l 328 883 l 533 911 l 468 603 l 476 603 q 575 637 529 603 q 649 723 621 671 q 676 828 676 775 q 631 935 676 892 q 493 978 586 978 q 328 940 408 978 q 197 825 247 901 q 146 640 146 749 q 156 569 146 589 q 165 546 165 549 q 54 576 92 546 q 17 674 17 606 q 88 853 17 768 q 275 990 158 938 q 521 1042 392 1042 q 685 1011 618 1042 q 784 931 751 981 q 817 821 817 881 q 781 697 817 757 q 678 600 744 638 q 801 523 761 585 q 842 376 842 461 q 812 204 842 297 q 713 44 782 111 q 538 -24 644 -24 z "},"C":{"ha":690,"x_min":26,"x_max":743,"o":"m 331 -22 q 100 57 174 -22 q 26 319 26 136 q 76 633 26 465 q 234 922 125 801 q 511 1042 343 1042 q 679 996 615 1042 q 743 856 743 950 q 719 762 743 796 q 646 728 696 728 q 567 764 596 728 q 611 814 592 776 q 631 892 631 851 q 610 953 631 929 q 546 976 590 976 q 406 876 472 976 q 298 622 339 775 q 257 328 257 469 q 293 167 257 222 q 424 111 329 111 q 575 147 506 111 q 694 250 644 183 l 726 236 q 624 90 692 149 q 478 5 556 32 q 331 -22 400 -22 z "},"Ć":{"ha":690,"x_min":26,"x_max":743,"o":"m 468 1126 l 594 1389 l 740 1389 l 572 1126 l 468 1126 m 331 -22 q 100 57 174 -22 q 26 319 26 136 q 76 633 26 465 q 234 922 125 801 q 511 1042 343 1042 q 679 996 615 1042 q 743 856 743 950 q 719 762 743 796 q 646 728 696 728 q 567 764 596 728 q 611 814 592 776 q 631 892 631 851 q 610 953 631 929 q 546 976 590 976 q 406 876 472 976 q 298 622 339 775 q 257 328 257 469 q 293 167 257 222 q 424 111 329 111 q 575 147 506 111 q 694 250 644 183 l 726 236 q 624 90 692 149 q 478 5 556 32 q 331 -22 400 -22 z "},"Č":{"ha":690,"x_min":26,"x_max":813,"o":"m 489 1126 l 406 1389 l 450 1389 l 533 1278 l 751 1389 l 813 1389 l 518 1126 l 489 1126 m 331 -22 q 100 57 174 -22 q 26 319 26 136 q 76 633 26 465 q 234 922 125 801 q 511 1042 343 1042 q 679 996 615 1042 q 743 856 743 950 q 719 762 743 796 q 646 728 696 728 q 567 764 596 728 q 611 814 592 776 q 631 892 631 851 q 610 953 631 929 q 546 976 590 976 q 406 876 472 976 q 298 622 339 775 q 257 328 257 469 q 293 167 257 222 q 424 111 329 111 q 575 147 506 111 q 694 250 644 183 l 726 236 q 624 90 692 149 q 478 5 556 32 q 331 -22 400 -22 z "},"Ç":{"ha":690,"x_min":26,"x_max":743,"o":"m 336 -303 q 257 -293 289 -303 q 188 -264 225 -283 q 243 -219 213 -219 q 276 -225 264 -219 q 303 -240 288 -231 q 346 -257 328 -257 q 375 -239 363 -257 q 388 -199 388 -221 q 374 -162 388 -176 q 333 -149 361 -149 q 294 -153 308 -149 q 261 -165 279 -157 l 313 -22 q 95 61 164 -18 q 26 319 26 140 q 76 633 26 465 q 234 922 125 801 q 511 1042 343 1042 q 679 996 615 1042 q 743 856 743 950 q 719 762 743 796 q 646 728 696 728 q 567 764 596 728 q 611 814 592 776 q 631 892 631 851 q 610 953 631 929 q 546 976 590 976 q 406 876 472 976 q 298 622 339 775 q 257 328 257 469 q 293 167 257 222 q 424 111 329 111 q 575 147 506 111 q 694 250 644 183 l 726 236 q 580 57 681 121 q 372 -19 479 -7 l 343 -92 q 417 -81 390 -81 q 503 -150 503 -81 q 453 -262 503 -221 q 336 -303 403 -303 z "},"Ĉ":{"ha":690,"x_min":26,"x_max":743,"o":"m 281 1126 l 575 1389 l 604 1389 l 688 1126 l 643 1126 l 560 1238 l 342 1126 l 281 1126 m 331 -22 q 100 57 174 -22 q 26 319 26 136 q 76 633 26 465 q 234 922 125 801 q 511 1042 343 1042 q 679 996 615 1042 q 743 856 743 950 q 719 762 743 796 q 646 728 696 728 q 567 764 596 728 q 611 814 592 776 q 631 892 631 851 q 610 953 631 929 q 546 976 590 976 q 406 876 472 976 q 298 622 339 775 q 257 328 257 469 q 293 167 257 222 q 424 111 329 111 q 575 147 506 111 q 694 250 644 183 l 726 236 q 624 90 692 149 q 478 5 556 32 q 331 -22 400 -22 z "},"Ċ":{"ha":690,"x_min":26,"x_max":743,"o":"m 618 1142 q 540 1173 572 1142 q 508 1250 508 1204 q 540 1329 508 1297 q 618 1361 572 1361 q 697 1329 664 1361 q 729 1250 729 1297 q 697 1173 729 1204 q 618 1142 664 1142 m 331 -22 q 100 57 174 -22 q 26 319 26 136 q 76 633 26 465 q 234 922 125 801 q 511 1042 343 1042 q 679 996 615 1042 q 743 856 743 950 q 719 762 743 796 q 646 728 696 728 q 567 764 596 728 q 611 814 592 776 q 631 892 631 851 q 610 953 631 929 q 546 976 590 976 q 406 876 472 976 q 298 622 339 775 q 257 328 257 469 q 293 167 257 222 q 424 111 329 111 q 575 147 506 111 q 694 250 644 183 l 726 236 q 624 90 692 149 q 478 5 556 32 q 331 -22 400 -22 z "},"D":{"ha":921,"x_min":8,"x_max":896,"o":"m 511 -18 q 342 56 428 -18 l 331 0 l 131 0 l 319 883 l 525 911 l 358 132 q 438 104 397 104 q 577 196 517 104 q 671 429 638 288 q 704 715 704 571 q 651 915 704 851 q 501 978 597 978 q 315 937 397 978 q 185 819 232 896 q 138 640 138 743 q 147 569 138 589 q 157 546 157 549 q 47 576 85 546 q 8 675 8 607 q 79 854 8 769 q 269 990 150 939 q 525 1042 388 1042 q 806 929 715 1042 q 896 642 896 817 q 842 330 896 483 q 700 79 789 176 q 511 -18 611 -18 z "},"Ð":{"ha":921,"x_min":8,"x_max":896,"o":"m 511 -18 q 342 56 428 -18 l 331 0 l 131 0 l 233 479 l 179 479 l 207 582 l 256 582 l 319 883 l 525 911 l 454 582 l 564 582 l 536 479 l 432 479 l 358 132 q 438 104 397 104 q 576 196 515 104 q 671 428 638 288 q 704 706 704 568 q 689 858 704 800 q 632 947 674 915 q 513 978 590 978 q 315 938 400 978 q 184 821 231 897 q 138 640 138 744 q 147 569 138 589 q 157 546 157 549 q 45 577 82 546 q 8 681 8 608 q 81 853 8 769 q 268 990 154 938 q 496 1042 382 1042 q 896 667 896 1042 q 842 332 896 490 q 700 78 789 174 q 511 -18 611 -18 z "},"Ď":{"ha":921,"x_min":8,"x_max":896,"o":"m 499 1126 l 415 1389 l 460 1389 l 543 1278 l 761 1389 l 822 1389 l 528 1126 l 499 1126 m 511 -18 q 342 56 428 -18 l 331 0 l 131 0 l 319 883 l 525 911 l 358 132 q 438 104 397 104 q 577 196 517 104 q 671 429 638 288 q 704 715 704 571 q 651 915 704 851 q 501 978 597 978 q 315 937 397 978 q 185 819 232 896 q 138 640 138 743 q 147 569 138 589 q 157 546 157 549 q 47 576 85 546 q 8 675 8 607 q 79 854 8 769 q 269 990 150 939 q 525 1042 388 1042 q 806 929 715 1042 q 896 642 896 817 q 842 330 896 483 q 700 79 789 176 q 511 -18 611 -18 z "},"Đ":{"ha":921,"x_min":8,"x_max":896,"o":"m 511 -18 q 342 56 428 -18 l 331 0 l 131 0 l 233 479 l 179 479 l 207 582 l 256 582 l 319 883 l 525 911 l 454 582 l 564 582 l 536 479 l 432 479 l 358 132 q 438 104 397 104 q 576 196 515 104 q 671 428 638 288 q 704 706 704 568 q 689 858 704 800 q 632 947 674 915 q 513 978 590 978 q 315 938 400 978 q 184 821 231 897 q 138 640 138 744 q 147 569 138 589 q 157 546 157 549 q 45 577 82 546 q 8 681 8 608 q 81 853 8 769 q 268 990 154 938 q 496 1042 382 1042 q 896 667 896 1042 q 842 332 896 490 q 700 78 789 174 q 511 -18 611 -18 z "},"Ḍ":{"ha":921,"x_min":8,"x_max":896,"o":"m 511 -18 q 342 56 428 -18 l 331 0 l 131 0 l 319 883 l 525 911 l 358 132 q 438 104 397 104 q 577 196 517 104 q 671 429 638 288 q 704 715 704 571 q 651 915 704 851 q 501 978 597 978 q 315 937 397 978 q 185 819 232 896 q 138 640 138 743 q 147 569 138 589 q 157 546 157 549 q 47 576 85 546 q 8 675 8 607 q 79 854 8 769 q 269 990 150 939 q 525 1042 388 1042 q 806 929 715 1042 q 896 642 896 817 q 842 330 896 483 q 700 79 789 176 q 511 -18 611 -18 m 368 -321 q 290 -289 322 -321 q 258 -211 258 -257 q 290 -133 258 -165 q 368 -100 322 -100 q 447 -133 414 -100 q 479 -211 479 -165 q 447 -289 479 -257 q 368 -321 414 -321 z "},"E":{"ha":638,"x_min":10,"x_max":685,"o":"m 265 -25 q 74 44 139 -25 q 10 219 10 114 q 41 370 10 294 q 131 503 72 446 q 267 579 189 560 q 203 653 224 610 q 182 746 182 697 q 222 888 182 818 q 331 1001 261 957 q 486 1044 401 1044 q 629 999 574 1044 q 685 871 685 953 q 654 768 685 810 q 582 726 624 726 q 517 764 544 726 q 560 810 542 772 q 578 885 578 847 q 556 944 578 925 q 501 963 533 963 q 428 934 461 963 q 378 860 396 906 q 360 767 360 815 q 394 649 360 700 q 500 581 429 599 q 372 511 429 565 q 283 385 315 457 q 251 249 251 314 q 284 147 251 186 q 383 108 317 108 q 528 147 453 108 q 640 250 604 185 l 672 236 q 506 46 618 117 q 265 -25 393 -25 z "},"É":{"ha":638,"x_min":10,"x_max":731,"o":"m 458 1126 l 585 1389 l 731 1389 l 563 1126 l 458 1126 m 265 -25 q 74 44 139 -25 q 10 219 10 114 q 41 370 10 294 q 131 503 72 446 q 267 579 189 560 q 203 653 224 610 q 182 746 182 697 q 222 888 182 818 q 331 1001 261 957 q 486 1044 401 1044 q 629 999 574 1044 q 685 871 685 953 q 654 768 685 810 q 582 726 624 726 q 517 764 544 726 q 560 810 542 772 q 578 885 578 847 q 556 944 578 925 q 501 963 533 963 q 428 934 461 963 q 378 860 396 906 q 360 767 360 815 q 394 649 360 700 q 500 581 429 599 q 372 511 429 565 q 283 385 315 457 q 251 249 251 314 q 284 147 251 186 q 383 108 317 108 q 528 147 453 108 q 640 250 604 185 l 672 236 q 506 46 618 117 q 265 -25 393 -25 z "},"Ĕ":{"ha":638,"x_min":10,"x_max":813,"o":"m 521 1132 q 363 1181 417 1132 q 308 1325 308 1231 l 433 1325 q 461 1240 433 1269 q 542 1210 489 1210 q 643 1243 599 1210 q 694 1325 688 1276 l 813 1325 q 764 1227 806 1271 q 658 1158 722 1183 q 521 1132 594 1132 m 265 -25 q 74 44 139 -25 q 10 219 10 114 q 41 370 10 294 q 131 503 72 446 q 267 579 189 560 q 203 653 224 610 q 182 746 182 697 q 222 888 182 818 q 331 1001 261 957 q 486 1044 401 1044 q 629 999 574 1044 q 685 871 685 953 q 654 768 685 810 q 582 726 624 726 q 517 764 544 726 q 560 810 542 772 q 578 885 578 847 q 556 944 578 925 q 501 963 533 963 q 428 934 461 963 q 378 860 396 906 q 360 767 360 815 q 394 649 360 700 q 500 581 429 599 q 372 511 429 565 q 283 385 315 457 q 251 249 251 314 q 284 147 251 186 q 383 108 317 108 q 528 147 453 108 q 640 250 604 185 l 672 236 q 506 46 618 117 q 265 -25 393 -25 z "},"Ě":{"ha":638,"x_min":10,"x_max":822,"o":"m 499 1126 l 415 1389 l 460 1389 l 543 1278 l 761 1389 l 822 1389 l 528 1126 l 499 1126 m 265 -25 q 74 44 139 -25 q 10 219 10 114 q 41 370 10 294 q 131 503 72 446 q 267 579 189 560 q 203 653 224 610 q 182 746 182 697 q 222 888 182 818 q 331 1001 261 957 q 486 1044 401 1044 q 629 999 574 1044 q 685 871 685 953 q 654 768 685 810 q 582 726 624 726 q 517 764 544 726 q 560 810 542 772 q 578 885 578 847 q 556 944 578 925 q 501 963 533 963 q 428 934 461 963 q 378 860 396 906 q 360 767 360 815 q 394 649 360 700 q 500 581 429 599 q 372 511 429 565 q 283 385 315 457 q 251 249 251 314 q 284 147 251 186 q 383 108 317 108 q 528 147 453 108 q 640 250 604 185 l 672 236 q 506 46 618 117 q 265 -25 393 -25 z "},"Ê":{"ha":638,"x_min":10,"x_max":688,"o":"m 281 1126 l 575 1389 l 604 1389 l 688 1126 l 643 1126 l 560 1238 l 342 1126 l 281 1126 m 265 -25 q 74 44 139 -25 q 10 219 10 114 q 41 370 10 294 q 131 503 72 446 q 267 579 189 560 q 203 653 224 610 q 182 746 182 697 q 222 888 182 818 q 331 1001 261 957 q 486 1044 401 1044 q 629 999 574 1044 q 685 871 685 953 q 654 768 685 810 q 582 726 624 726 q 517 764 544 726 q 560 810 542 772 q 578 885 578 847 q 556 944 578 925 q 501 963 533 963 q 428 934 461 963 q 378 860 396 906 q 360 767 360 815 q 394 649 360 700 q 500 581 429 599 q 372 511 429 565 q 283 385 315 457 q 251 249 251 314 q 284 147 251 186 q 383 108 317 108 q 528 147 453 108 q 640 250 604 185 l 672 236 q 506 46 618 117 q 265 -25 393 -25 z "},"Ế":{"ha":638,"x_min":10,"x_max":849,"o":"m 667 1203 l 753 1389 l 849 1389 l 728 1203 l 667 1203 m 333 1126 l 581 1319 l 606 1319 l 675 1126 l 613 1126 l 568 1226 l 415 1126 l 333 1126 m 265 -25 q 74 44 139 -25 q 10 219 10 114 q 41 370 10 294 q 131 503 72 446 q 267 579 189 560 q 203 653 224 610 q 182 746 182 697 q 222 888 182 818 q 331 1001 261 957 q 486 1044 401 1044 q 629 999 574 1044 q 685 871 685 953 q 654 768 685 810 q 582 726 624 726 q 517 764 544 726 q 560 810 542 772 q 578 885 578 847 q 556 944 578 925 q 501 963 533 963 q 428 934 461 963 q 378 860 396 906 q 360 767 360 815 q 394 649 360 700 q 500 581 429 599 q 372 511 429 565 q 283 385 315 457 q 251 249 251 314 q 284 147 251 186 q 383 108 317 108 q 528 147 453 108 q 640 250 604 185 l 672 236 q 506 46 618 117 q 265 -25 393 -25 z "},"Ệ":{"ha":638,"x_min":10,"x_max":688,"o":"m 281 1126 l 575 1389 l 604 1389 l 688 1126 l 643 1126 l 560 1238 l 342 1126 l 281 1126 m 265 -25 q 74 44 139 -25 q 10 219 10 114 q 41 370 10 294 q 131 503 72 446 q 267 579 189 560 q 203 653 224 610 q 182 746 182 697 q 222 888 182 818 q 331 1001 261 957 q 486 1044 401 1044 q 629 999 574 1044 q 685 871 685 953 q 654 768 685 810 q 582 726 624 726 q 517 764 544 726 q 560 810 542 772 q 578 885 578 847 q 556 944 578 925 q 501 963 533 963 q 428 934 461 963 q 378 860 396 906 q 360 767 360 815 q 394 649 360 700 q 500 581 429 599 q 372 511 429 565 q 283 385 315 457 q 251 249 251 314 q 284 147 251 186 q 383 108 317 108 q 528 147 453 108 q 640 250 604 185 l 672 236 q 506 46 618 117 q 265 -25 393 -25 m 213 -321 q 135 -289 167 -321 q 103 -211 103 -257 q 135 -133 103 -165 q 213 -100 167 -100 q 291 -133 258 -100 q 324 -211 324 -165 q 291 -289 324 -257 q 213 -321 258 -321 z "},"Ề":{"ha":638,"x_min":10,"x_max":783,"o":"m 728 1201 l 665 1389 l 757 1389 l 783 1201 l 728 1201 m 333 1126 l 581 1319 l 606 1319 l 675 1126 l 613 1126 l 568 1226 l 415 1126 l 333 1126 m 265 -25 q 74 44 139 -25 q 10 219 10 114 q 41 370 10 294 q 131 503 72 446 q 267 579 189 560 q 203 653 224 610 q 182 746 182 697 q 222 888 182 818 q 331 1001 261 957 q 486 1044 401 1044 q 629 999 574 1044 q 685 871 685 953 q 654 768 685 810 q 582 726 624 726 q 517 764 544 726 q 560 810 542 772 q 578 885 578 847 q 556 944 578 925 q 501 963 533 963 q 428 934 461 963 q 378 860 396 906 q 360 767 360 815 q 394 649 360 700 q 500 581 429 599 q 372 511 429 565 q 283 385 315 457 q 251 249 251 314 q 284 147 251 186 q 383 108 317 108 q 528 147 453 108 q 640 250 604 185 l 672 236 q 506 46 618 117 q 265 -25 393 -25 z "},"Ể":{"ha":638,"x_min":10,"x_max":868,"o":"m 711 1189 l 711 1274 q 754 1268 742 1268 q 801 1306 801 1268 q 754 1340 801 1340 q 696 1325 722 1340 l 671 1364 q 713 1382 688 1375 q 765 1389 739 1389 q 839 1367 810 1389 q 868 1311 868 1346 q 839 1253 868 1276 q 763 1226 810 1229 l 758 1186 l 711 1189 m 333 1126 l 581 1319 l 606 1319 l 675 1126 l 613 1126 l 568 1226 l 415 1126 l 333 1126 m 265 -25 q 74 44 139 -25 q 10 219 10 114 q 41 370 10 294 q 131 503 72 446 q 267 579 189 560 q 203 653 224 610 q 182 746 182 697 q 222 888 182 818 q 331 1001 261 957 q 486 1044 401 1044 q 629 999 574 1044 q 685 871 685 953 q 654 768 685 810 q 582 726 624 726 q 517 764 544 726 q 560 810 542 772 q 578 885 578 847 q 556 944 578 925 q 501 963 533 963 q 428 934 461 963 q 378 860 396 906 q 360 767 360 815 q 394 649 360 700 q 500 581 429 599 q 372 511 429 565 q 283 385 315 457 q 251 249 251 314 q 284 147 251 186 q 383 108 317 108 q 528 147 453 108 q 640 250 604 185 l 672 236 q 506 46 618 117 q 265 -25 393 -25 z "},"Ễ":{"ha":638,"x_min":10,"x_max":790,"o":"m 790 1376 q 735 1309 783 1340 q 632 1278 686 1278 l 621 1278 l 675 1126 l 613 1126 l 568 1226 l 415 1126 l 333 1126 l 550 1296 q 508 1309 529 1303 q 467 1315 486 1315 q 404 1290 432 1315 l 397 1292 q 463 1364 421 1339 q 561 1389 506 1389 q 604 1385 586 1389 q 650 1371 622 1381 q 724 1356 693 1356 q 783 1378 763 1356 l 790 1376 m 517 764 q 560 810 542 772 q 578 885 578 847 q 556 944 578 925 q 501 963 533 963 q 428 934 461 963 q 378 860 396 906 q 360 767 360 815 q 394 649 360 700 q 500 581 429 599 q 372 511 429 565 q 283 385 315 457 q 251 249 251 314 q 284 147 251 186 q 383 108 317 108 q 528 147 453 108 q 640 250 604 185 l 672 236 q 506 46 618 117 q 265 -25 393 -25 q 74 44 139 -25 q 10 219 10 114 q 41 370 10 294 q 131 503 72 446 q 267 579 189 560 q 203 653 224 610 q 182 746 182 697 q 222 888 182 818 q 331 1001 261 957 q 486 1044 401 1044 q 629 999 574 1044 q 685 871 685 953 q 654 768 685 810 q 582 726 624 726 q 517 764 544 726 z "},"Ȅ":{"ha":638,"x_min":10,"x_max":685,"o":"m 344 1126 l 147 1389 l 293 1389 l 421 1126 l 344 1126 m 569 1126 l 374 1389 l 519 1389 l 644 1126 l 569 1126 m 265 -25 q 74 44 139 -25 q 10 219 10 114 q 41 370 10 294 q 131 503 72 446 q 267 579 189 560 q 203 653 224 610 q 182 746 182 697 q 222 888 182 818 q 331 1001 261 957 q 486 1044 401 1044 q 629 999 574 1044 q 685 871 685 953 q 654 768 685 810 q 582 726 624 726 q 517 764 544 726 q 560 810 542 772 q 578 885 578 847 q 556 944 578 925 q 501 963 533 963 q 428 934 461 963 q 378 860 396 906 q 360 767 360 815 q 394 649 360 700 q 500 581 429 599 q 372 511 429 565 q 283 385 315 457 q 251 249 251 314 q 284 147 251 186 q 383 108 317 108 q 528 147 453 108 q 640 250 604 185 l 672 236 q 506 46 618 117 q 265 -25 393 -25 z "},"Ë":{"ha":638,"x_min":10,"x_max":750,"o":"m 415 1143 q 355 1167 379 1143 q 331 1228 331 1192 q 355 1288 331 1263 q 415 1313 379 1313 q 475 1288 450 1313 q 500 1228 500 1263 q 475 1167 500 1192 q 415 1143 450 1143 m 665 1143 q 605 1167 629 1143 q 581 1228 581 1192 q 605 1288 581 1263 q 665 1313 629 1313 q 725 1288 700 1313 q 750 1228 750 1263 q 725 1167 750 1192 q 665 1143 700 1143 m 265 -25 q 74 44 139 -25 q 10 219 10 114 q 41 370 10 294 q 131 503 72 446 q 267 579 189 560 q 203 653 224 610 q 182 746 182 697 q 222 888 182 818 q 331 1001 261 957 q 486 1044 401 1044 q 629 999 574 1044 q 685 871 685 953 q 654 768 685 810 q 582 726 624 726 q 517 764 544 726 q 560 810 542 772 q 578 885 578 847 q 556 944 578 925 q 501 963 533 963 q 428 934 461 963 q 378 860 396 906 q 360 767 360 815 q 394 649 360 700 q 500 581 429 599 q 372 511 429 565 q 283 385 315 457 q 251 249 251 314 q 284 147 251 186 q 383 108 317 108 q 528 147 453 108 q 640 250 604 185 l 672 236 q 506 46 618 117 q 265 -25 393 -25 z "},"Ė":{"ha":638,"x_min":10,"x_max":685,"o":"m 557 1142 q 479 1173 511 1142 q 447 1250 447 1204 q 479 1329 447 1297 q 557 1361 511 1361 q 635 1329 603 1361 q 668 1250 668 1297 q 635 1173 668 1204 q 557 1142 603 1142 m 265 -25 q 74 44 139 -25 q 10 219 10 114 q 41 370 10 294 q 131 503 72 446 q 267 579 189 560 q 203 653 224 610 q 182 746 182 697 q 222 888 182 818 q 331 1001 261 957 q 486 1044 401 1044 q 629 999 574 1044 q 685 871 685 953 q 654 768 685 810 q 582 726 624 726 q 517 764 544 726 q 560 810 542 772 q 578 885 578 847 q 556 944 578 925 q 501 963 533 963 q 428 934 461 963 q 378 860 396 906 q 360 767 360 815 q 394 649 360 700 q 500 581 429 599 q 372 511 429 565 q 283 385 315 457 q 251 249 251 314 q 284 147 251 186 q 383 108 317 108 q 528 147 453 108 q 640 250 604 185 l 672 236 q 506 46 618 117 q 265 -25 393 -25 z "},"Ẹ":{"ha":638,"x_min":10,"x_max":685,"o":"m 265 -25 q 74 44 139 -25 q 10 219 10 114 q 41 370 10 294 q 131 503 72 446 q 267 579 189 560 q 203 653 224 610 q 182 746 182 697 q 222 888 182 818 q 331 1001 261 957 q 486 1044 401 1044 q 629 999 574 1044 q 685 871 685 953 q 654 768 685 810 q 582 726 624 726 q 517 764 544 726 q 560 810 542 772 q 578 885 578 847 q 556 944 578 925 q 501 963 533 963 q 428 934 461 963 q 378 860 396 906 q 360 767 360 815 q 394 649 360 700 q 500 581 429 599 q 372 511 429 565 q 283 385 315 457 q 251 249 251 314 q 284 147 251 186 q 383 108 317 108 q 528 147 453 108 q 640 250 604 185 l 672 236 q 506 46 618 117 q 265 -25 393 -25 m 213 -321 q 135 -289 167 -321 q 103 -211 103 -257 q 135 -133 103 -165 q 213 -100 167 -100 q 291 -133 258 -100 q 324 -211 324 -165 q 291 -289 324 -257 q 213 -321 258 -321 z "},"È":{"ha":638,"x_min":10,"x_max":685,"o":"m 432 1126 l 350 1389 l 496 1389 l 536 1126 l 432 1126 m 265 -25 q 74 44 139 -25 q 10 219 10 114 q 41 370 10 294 q 131 503 72 446 q 267 579 189 560 q 203 653 224 610 q 182 746 182 697 q 222 888 182 818 q 331 1001 261 957 q 486 1044 401 1044 q 629 999 574 1044 q 685 871 685 953 q 654 768 685 810 q 582 726 624 726 q 517 764 544 726 q 560 810 542 772 q 578 885 578 847 q 556 944 578 925 q 501 963 533 963 q 428 934 461 963 q 378 860 396 906 q 360 767 360 815 q 394 649 360 700 q 500 581 429 599 q 372 511 429 565 q 283 385 315 457 q 251 249 251 314 q 284 147 251 186 q 383 108 317 108 q 528 147 453 108 q 640 250 604 185 l 672 236 q 506 46 618 117 q 265 -25 393 -25 z "},"Ẻ":{"ha":638,"x_min":10,"x_max":692,"o":"m 469 1103 l 469 1225 q 532 1218 507 1218 q 580 1231 563 1218 q 597 1268 597 1244 q 532 1318 597 1318 q 449 1296 483 1318 l 413 1354 q 474 1379 436 1369 q 549 1389 511 1389 q 651 1358 611 1389 q 692 1276 692 1326 q 651 1196 692 1229 q 546 1157 611 1163 l 535 1100 l 469 1103 m 265 -25 q 74 44 139 -25 q 10 219 10 114 q 41 370 10 294 q 131 503 72 446 q 267 579 189 560 q 203 653 224 610 q 182 746 182 697 q 222 888 182 818 q 331 1001 261 957 q 486 1044 401 1044 q 629 999 574 1044 q 685 871 685 953 q 654 768 685 810 q 582 726 624 726 q 517 764 544 726 q 560 810 542 772 q 578 885 578 847 q 556 944 578 925 q 501 963 533 963 q 428 934 461 963 q 378 860 396 906 q 360 767 360 815 q 394 649 360 700 q 500 581 429 599 q 372 511 429 565 q 283 385 315 457 q 251 249 251 314 q 284 147 251 186 q 383 108 317 108 q 528 147 453 108 q 640 250 604 185 l 672 236 q 506 46 618 117 q 265 -25 393 -25 z "},"Ȇ":{"ha":638,"x_min":10,"x_max":783,"o":"m 279 1142 q 328 1239 286 1194 q 434 1308 369 1283 q 572 1333 499 1333 q 729 1284 675 1333 q 783 1142 783 1235 l 660 1142 q 631 1227 660 1197 q 550 1257 603 1257 q 449 1224 493 1257 q 399 1142 406 1190 l 279 1142 m 265 -25 q 74 44 139 -25 q 10 219 10 114 q 41 370 10 294 q 131 503 72 446 q 267 579 189 560 q 203 653 224 610 q 182 746 182 697 q 222 888 182 818 q 331 1001 261 957 q 486 1044 401 1044 q 629 999 574 1044 q 685 871 685 953 q 654 768 685 810 q 582 726 624 726 q 517 764 544 726 q 560 810 542 772 q 578 885 578 847 q 556 944 578 925 q 501 963 533 963 q 428 934 461 963 q 378 860 396 906 q 360 767 360 815 q 394 649 360 700 q 500 581 429 599 q 372 511 429 565 q 283 385 315 457 q 251 249 251 314 q 284 147 251 186 q 383 108 317 108 q 528 147 453 108 q 640 250 604 185 l 672 236 q 506 46 618 117 q 265 -25 393 -25 z "},"Ē":{"ha":638,"x_min":10,"x_max":778,"o":"m 311 1179 l 333 1282 l 778 1282 l 757 1179 l 311 1179 m 265 -25 q 74 44 139 -25 q 10 219 10 114 q 41 370 10 294 q 131 503 72 446 q 267 579 189 560 q 203 653 224 610 q 182 746 182 697 q 222 888 182 818 q 331 1001 261 957 q 486 1044 401 1044 q 629 999 574 1044 q 685 871 685 953 q 654 768 685 810 q 582 726 624 726 q 517 764 544 726 q 560 810 542 772 q 578 885 578 847 q 556 944 578 925 q 501 963 533 963 q 428 934 461 963 q 378 860 396 906 q 360 767 360 815 q 394 649 360 700 q 500 581 429 599 q 372 511 429 565 q 283 385 315 457 q 251 249 251 314 q 284 147 251 186 q 383 108 317 108 q 528 147 453 108 q 640 250 604 185 l 672 236 q 506 46 618 117 q 265 -25 393 -25 z "},"Ę":{"ha":638,"x_min":15,"x_max":693,"o":"m 417 -268 q 335 -235 364 -268 q 307 -160 307 -201 q 333 -78 307 -121 q 407 1 358 -36 q 303 -8 358 -8 q 146 31 211 -8 q 48 134 81 69 q 15 272 15 199 q 44 405 15 340 q 130 516 74 469 q 267 579 186 563 q 164 672 199 617 q 129 790 129 728 q 166 913 129 856 q 273 1006 203 971 q 438 1042 343 1042 q 619 995 544 1042 q 693 856 693 949 q 669 762 693 796 q 596 728 646 728 q 517 764 546 728 q 559 810 540 772 q 578 878 578 849 q 560 947 578 914 q 486 981 543 981 q 365 931 413 981 q 317 810 317 881 q 361 683 317 743 q 500 581 406 624 q 317 455 375 529 q 258 301 258 381 q 281 209 258 251 q 340 142 303 167 q 421 117 378 117 q 549 149 499 117 q 640 250 600 181 l 672 236 q 617 135 651 174 q 529 56 582 96 q 448 -22 474 13 q 422 -117 422 -57 q 436 -165 422 -144 q 476 -186 450 -186 q 512 -177 494 -186 q 546 -156 529 -168 q 571 -139 563 -144 q 568 -182 568 -172 q 495 -245 528 -222 q 417 -268 463 -268 z "},"Ẽ":{"ha":638,"x_min":10,"x_max":842,"o":"m 618 1138 q 557 1144 586 1138 q 490 1165 528 1151 q 434 1183 458 1176 q 385 1189 410 1189 q 293 1153 333 1189 l 286 1156 q 378 1257 318 1222 q 518 1292 438 1292 q 580 1285 553 1292 q 643 1267 607 1279 q 681 1256 649 1265 q 747 1246 713 1246 q 835 1278 800 1246 l 842 1276 q 802 1212 836 1244 q 719 1158 768 1179 q 618 1138 669 1138 m 265 -25 q 74 44 139 -25 q 10 219 10 114 q 41 370 10 294 q 131 503 72 446 q 267 579 189 560 q 203 653 224 610 q 182 746 182 697 q 222 888 182 818 q 331 1001 261 957 q 486 1044 401 1044 q 629 999 574 1044 q 685 871 685 953 q 654 768 685 810 q 582 726 624 726 q 517 764 544 726 q 560 810 542 772 q 578 885 578 847 q 556 944 578 925 q 501 963 533 963 q 428 934 461 963 q 378 860 396 906 q 360 767 360 815 q 394 649 360 700 q 500 581 429 599 q 372 511 429 565 q 283 385 315 457 q 251 249 251 314 q 284 147 251 186 q 383 108 317 108 q 528 147 453 108 q 640 250 604 185 l 672 236 q 506 46 618 117 q 265 -25 393 -25 z "},"F":{"ha":638,"x_min":13,"x_max":842,"o":"m 322 928 q 188 861 235 925 q 142 640 142 797 q 151 569 142 589 q 161 546 161 549 q 49 577 86 546 q 13 681 13 608 q 61 860 13 779 q 216 992 110 942 q 486 1042 322 1042 q 575 1035 519 1042 q 717 1025 675 1025 q 842 1042 790 1025 q 826 987 838 1029 q 787 915 815 944 q 710 875 758 885 q 515 901 628 875 l 457 625 l 660 625 l 638 522 l 435 522 l 322 0 l 122 0 l 322 928 z "},"G":{"ha":803,"x_min":26,"x_max":789,"o":"m 321 -287 q 158 -235 219 -287 q 96 -99 96 -183 q 121 -1 96 -46 q 189 69 146 43 q 283 94 232 94 q 369 68 336 94 q 401 -1 401 42 q 386 -54 401 -35 q 352 -28 374 -37 q 307 -18 331 -18 q 239 -46 265 -18 q 213 -118 213 -74 q 238 -190 213 -162 q 303 -218 264 -218 q 386 -175 351 -218 q 439 -47 421 -132 l 508 260 l 503 260 q 412 179 465 207 q 294 151 358 151 q 153 194 214 151 q 59 317 92 238 q 26 503 26 397 q 93 781 26 656 q 276 979 160 907 q 533 1051 393 1051 q 720 1000 651 1051 q 789 860 789 949 q 760 764 789 800 q 683 728 731 728 q 634 739 657 728 q 596 771 611 750 q 638 824 621 788 q 656 899 656 861 q 631 963 656 940 q 563 986 607 986 q 407 915 482 986 q 286 728 332 843 q 240 486 240 613 q 274 327 240 382 q 369 272 307 272 q 502 351 444 272 q 594 582 560 431 l 758 581 l 657 114 q 531 -190 613 -93 q 321 -287 450 -287 z "},"Ǵ":{"ha":803,"x_min":26,"x_max":792,"o":"m 519 1126 l 646 1389 l 792 1389 l 624 1126 l 519 1126 m 321 -287 q 158 -235 219 -287 q 96 -99 96 -183 q 121 -1 96 -46 q 189 69 146 43 q 283 94 232 94 q 369 68 336 94 q 401 -1 401 42 q 386 -54 401 -35 q 352 -28 374 -37 q 307 -18 331 -18 q 239 -46 265 -18 q 213 -118 213 -74 q 238 -190 213 -162 q 303 -218 264 -218 q 386 -175 351 -218 q 439 -47 421 -132 l 508 260 l 503 260 q 412 179 465 207 q 294 151 358 151 q 153 194 214 151 q 59 317 92 238 q 26 503 26 397 q 93 781 26 656 q 276 979 160 907 q 533 1051 393 1051 q 720 1000 651 1051 q 789 860 789 949 q 760 764 789 800 q 683 728 731 728 q 634 739 657 728 q 596 771 611 750 q 638 824 621 788 q 656 899 656 861 q 631 963 656 940 q 563 986 607 986 q 407 915 482 986 q 286 728 332 843 q 240 486 240 613 q 274 327 240 382 q 369 272 307 272 q 502 351 444 272 q 594 582 560 431 l 758 581 l 657 114 q 531 -190 613 -93 q 321 -287 450 -287 z "},"Ğ":{"ha":803,"x_min":26,"x_max":894,"o":"m 601 1132 q 443 1181 497 1132 q 389 1325 389 1231 l 514 1325 q 542 1240 514 1269 q 622 1210 569 1210 q 724 1243 679 1210 q 775 1325 768 1276 l 894 1325 q 845 1226 886 1271 q 740 1157 804 1182 q 601 1132 675 1132 m 321 -287 q 158 -235 219 -287 q 96 -99 96 -183 q 121 -1 96 -46 q 189 69 146 43 q 283 94 232 94 q 369 68 336 94 q 401 -1 401 42 q 386 -54 401 -35 q 352 -28 374 -37 q 307 -18 331 -18 q 239 -46 265 -18 q 213 -118 213 -74 q 238 -190 213 -162 q 303 -218 264 -218 q 386 -175 351 -218 q 439 -47 421 -132 l 508 260 l 503 260 q 412 179 465 207 q 294 151 358 151 q 153 194 214 151 q 59 317 92 238 q 26 503 26 397 q 93 781 26 656 q 276 979 160 907 q 533 1051 393 1051 q 720 1000 651 1051 q 789 860 789 949 q 760 764 789 800 q 683 728 731 728 q 634 739 657 728 q 596 771 611 750 q 638 824 621 788 q 656 899 656 861 q 631 963 656 940 q 563 986 607 986 q 407 915 482 986 q 286 728 332 843 q 240 486 240 613 q 274 327 240 382 q 369 272 307 272 q 502 351 444 272 q 594 582 560 431 l 758 581 l 657 114 q 531 -190 613 -93 q 321 -287 450 -287 z "},"Ǧ":{"ha":803,"x_min":26,"x_max":897,"o":"m 574 1126 l 490 1389 l 535 1389 l 618 1278 l 836 1389 l 897 1389 l 603 1126 l 574 1126 m 321 -287 q 158 -235 219 -287 q 96 -99 96 -183 q 121 -1 96 -46 q 189 69 146 43 q 283 94 232 94 q 369 68 336 94 q 401 -1 401 42 q 386 -54 401 -35 q 352 -28 374 -37 q 307 -18 331 -18 q 239 -46 265 -18 q 213 -118 213 -74 q 238 -190 213 -162 q 303 -218 264 -218 q 386 -175 351 -218 q 439 -47 421 -132 l 508 260 l 503 260 q 412 179 465 207 q 294 151 358 151 q 153 194 214 151 q 59 317 92 238 q 26 503 26 397 q 93 781 26 656 q 276 979 160 907 q 533 1051 393 1051 q 720 1000 651 1051 q 789 860 789 949 q 760 764 789 800 q 683 728 731 728 q 634 739 657 728 q 596 771 611 750 q 638 824 621 788 q 656 899 656 861 q 631 963 656 940 q 563 986 607 986 q 407 915 482 986 q 286 728 332 843 q 240 486 240 613 q 274 327 240 382 q 369 272 307 272 q 502 351 444 272 q 594 582 560 431 l 758 581 l 657 114 q 531 -190 613 -93 q 321 -287 450 -287 z "},"Ĝ":{"ha":803,"x_min":26,"x_max":789,"o":"m 347 1126 l 640 1389 l 669 1389 l 753 1126 l 710 1126 l 626 1238 l 407 1126 l 347 1126 m 321 -287 q 158 -235 219 -287 q 96 -99 96 -183 q 121 -1 96 -46 q 189 69 146 43 q 283 94 232 94 q 369 68 336 94 q 401 -1 401 42 q 386 -54 401 -35 q 352 -28 374 -37 q 307 -18 331 -18 q 239 -46 265 -18 q 213 -118 213 -74 q 238 -190 213 -162 q 303 -218 264 -218 q 386 -175 351 -218 q 439 -47 421 -132 l 508 260 l 503 260 q 412 179 465 207 q 294 151 358 151 q 153 194 214 151 q 59 317 92 238 q 26 503 26 397 q 93 781 26 656 q 276 979 160 907 q 533 1051 393 1051 q 720 1000 651 1051 q 789 860 789 949 q 760 764 789 800 q 683 728 731 728 q 634 739 657 728 q 596 771 611 750 q 638 824 621 788 q 656 899 656 861 q 631 963 656 940 q 563 986 607 986 q 407 915 482 986 q 286 728 332 843 q 240 486 240 613 q 274 327 240 382 q 369 272 307 272 q 502 351 444 272 q 594 582 560 431 l 758 581 l 657 114 q 531 -190 613 -93 q 321 -287 450 -287 z "},"Ģ":{"ha":803,"x_min":8,"x_max":744,"o":"m 274 -8 q 78 90 147 -8 q 8 363 8 188 q 78 701 8 543 q 263 956 147 860 q 510 1051 379 1051 q 670 999 608 1051 q 732 861 732 946 q 703 767 732 803 q 626 731 674 731 q 542 774 574 731 q 583 827 567 792 q 599 900 599 863 q 581 963 599 939 q 531 986 563 986 q 396 892 464 986 q 283 651 328 797 q 239 364 239 506 q 268 180 239 247 q 349 113 297 113 q 440 166 393 113 q 525 312 488 219 q 581 514 563 404 l 744 514 l 631 0 l 451 0 l 471 94 l 465 94 q 377 16 422 40 q 274 -8 332 -8 m 282 -318 q 319 -274 308 -289 q 329 -246 329 -258 q 322 -226 329 -236 q 307 -207 315 -215 q 286 -181 293 -193 q 279 -154 279 -169 q 301 -108 279 -126 q 357 -89 322 -89 q 410 -110 390 -89 q 431 -165 431 -131 q 397 -262 431 -211 q 310 -346 363 -312 l 282 -318 z "},"Ġ":{"ha":803,"x_min":26,"x_max":789,"o":"m 578 1142 q 500 1173 532 1142 q 468 1250 468 1204 q 500 1329 468 1297 q 578 1361 532 1361 q 656 1329 624 1361 q 689 1250 689 1297 q 656 1173 689 1204 q 578 1142 624 1142 m 321 -287 q 158 -235 219 -287 q 96 -99 96 -183 q 121 -1 96 -46 q 189 69 146 43 q 283 94 232 94 q 369 68 336 94 q 401 -1 401 42 q 386 -54 401 -35 q 352 -28 374 -37 q 307 -18 331 -18 q 239 -46 265 -18 q 213 -118 213 -74 q 238 -190 213 -162 q 303 -218 264 -218 q 386 -175 351 -218 q 439 -47 421 -132 l 508 260 l 503 260 q 412 179 465 207 q 294 151 358 151 q 153 194 214 151 q 59 317 92 238 q 26 503 26 397 q 93 781 26 656 q 276 979 160 907 q 533 1051 393 1051 q 720 1000 651 1051 q 789 860 789 949 q 760 764 789 800 q 683 728 731 728 q 634 739 657 728 q 596 771 611 750 q 638 824 621 788 q 656 899 656 861 q 631 963 656 940 q 563 986 607 986 q 407 915 482 986 q 286 728 332 843 q 240 486 240 613 q 274 327 240 382 q 369 272 307 272 q 502 351 444 272 q 594 582 560 431 l 758 581 l 657 114 q 531 -190 613 -93 q 321 -287 450 -287 z "},"Ḡ":{"ha":803,"x_min":26,"x_max":790,"o":"m 324 1179 l 347 1282 l 790 1282 l 771 1179 l 324 1179 m 321 -287 q 158 -235 219 -287 q 96 -99 96 -183 q 121 -1 96 -46 q 189 69 146 43 q 283 94 232 94 q 369 68 336 94 q 401 -1 401 42 q 386 -54 401 -35 q 352 -28 374 -37 q 307 -18 331 -18 q 239 -46 265 -18 q 213 -118 213 -74 q 238 -190 213 -162 q 303 -218 264 -218 q 386 -175 351 -218 q 439 -47 421 -132 l 508 260 l 503 260 q 412 179 465 207 q 294 151 358 151 q 153 194 214 151 q 59 317 92 238 q 26 503 26 397 q 93 781 26 656 q 276 979 160 907 q 533 1051 393 1051 q 720 1000 651 1051 q 789 860 789 949 q 760 764 789 800 q 683 728 731 728 q 634 739 657 728 q 596 771 611 750 q 638 824 621 788 q 656 899 656 861 q 631 963 656 940 q 563 986 607 986 q 407 915 482 986 q 286 728 332 843 q 240 486 240 613 q 274 327 240 382 q 369 272 307 272 q 502 351 444 272 q 594 582 560 431 l 758 581 l 657 114 q 531 -190 613 -93 q 321 -287 450 -287 z "},"H":{"ha":924,"x_min":17,"x_max":964,"o":"m 340 944 q 197 828 247 906 q 146 640 146 750 q 156 569 146 589 q 165 546 165 549 q 53 577 90 546 q 17 681 17 608 q 90 853 17 769 q 276 990 163 938 q 504 1042 390 1042 q 560 1039 524 1042 l 471 625 l 675 625 l 764 1039 l 964 1039 l 743 0 l 543 0 l 654 522 l 450 522 l 339 0 l 139 0 l 340 944 z "},"Ħ":{"ha":924,"x_min":17,"x_max":1031,"o":"m 1011 717 l 896 717 l 743 0 l 543 0 l 654 522 l 450 522 l 339 0 l 139 0 l 292 717 l 226 717 l 246 786 l 307 786 l 340 944 q 197 828 247 906 q 146 640 146 750 q 156 569 146 589 q 165 546 165 549 q 53 577 90 546 q 17 681 17 608 q 90 853 17 769 q 276 990 163 938 q 504 1042 390 1042 q 560 1039 524 1042 l 506 786 l 710 786 l 764 1039 l 964 1039 l 910 786 l 1031 786 l 1011 717 m 675 625 l 694 717 l 490 717 l 471 625 l 675 625 z "},"Ḫ":{"ha":924,"x_min":17,"x_max":964,"o":"m 340 944 q 197 828 247 906 q 146 640 146 750 q 156 569 146 589 q 165 546 165 549 q 53 577 90 546 q 17 681 17 608 q 90 853 17 769 q 276 990 163 938 q 504 1042 390 1042 q 560 1039 524 1042 l 471 625 l 675 625 l 764 1039 l 964 1039 l 743 0 l 543 0 l 654 522 l 450 522 l 339 0 l 139 0 l 340 944 m 382 -282 q 233 -235 285 -282 q 182 -100 182 -189 l 299 -100 q 326 -181 299 -153 q 403 -208 353 -208 q 497 -177 456 -208 q 544 -100 539 -146 l 657 -100 q 611 -192 650 -150 q 512 -258 572 -233 q 382 -282 451 -282 z "},"Ĥ":{"ha":924,"x_min":17,"x_max":964,"o":"m 468 1126 l 763 1389 l 792 1389 l 875 1126 l 832 1126 l 749 1238 l 529 1126 l 468 1126 m 340 944 q 197 828 247 906 q 146 640 146 750 q 156 569 146 589 q 165 546 165 549 q 53 577 90 546 q 17 681 17 608 q 90 853 17 769 q 276 990 163 938 q 504 1042 390 1042 q 560 1039 524 1042 l 471 625 l 675 625 l 764 1039 l 964 1039 l 743 0 l 543 0 l 654 522 l 450 522 l 339 0 l 139 0 l 340 944 z "},"Ḥ":{"ha":924,"x_min":17,"x_max":964,"o":"m 340 944 q 197 828 247 906 q 146 640 146 750 q 156 569 146 589 q 165 546 165 549 q 53 577 90 546 q 17 681 17 608 q 90 853 17 769 q 276 990 163 938 q 504 1042 390 1042 q 560 1039 524 1042 l 471 625 l 675 625 l 764 1039 l 964 1039 l 743 0 l 543 0 l 654 522 l 450 522 l 339 0 l 139 0 l 340 944 m 403 -321 q 324 -289 357 -321 q 292 -211 292 -257 q 324 -133 292 -165 q 403 -100 357 -100 q 481 -133 447 -100 q 514 -211 514 -165 q 481 -289 514 -257 q 403 -321 449 -321 z "},"I":{"ha":521,"x_min":8,"x_max":551,"o":"m 332 943 q 188 828 239 906 q 138 640 138 751 q 147 569 138 589 q 157 546 157 549 q 45 577 82 546 q 8 681 8 608 q 81 853 8 769 q 268 990 154 938 q 496 1042 382 1042 q 551 1039 515 1042 l 331 0 l 131 0 l 332 943 z "},"Ĳ":{"ha":921,"x_min":8,"x_max":935,"o":"m 379 -287 q 211 -235 267 -287 q 156 -97 156 -183 q 176 0 156 -42 l 131 0 l 332 943 q 188 828 239 906 q 138 640 138 751 q 147 569 138 589 q 157 546 157 549 q 45 577 82 546 q 8 681 8 608 q 81 853 8 769 q 268 990 154 938 q 496 1042 382 1042 q 551 1039 515 1042 l 347 81 q 415 50 390 74 q 440 -8 440 26 q 431 -54 440 -29 q 363 -22 399 -22 q 299 -52 325 -22 q 272 -124 272 -82 q 299 -192 272 -165 q 371 -218 326 -218 q 447 -181 415 -218 q 499 -47 478 -144 l 726 996 l 935 1042 l 726 56 q 612 -197 693 -106 q 379 -287 531 -287 z "},"Í":{"ha":521,"x_min":8,"x_max":679,"o":"m 407 1126 l 533 1389 l 679 1389 l 513 1126 l 407 1126 m 332 943 q 188 828 239 906 q 138 640 138 751 q 147 569 138 589 q 157 546 157 549 q 45 577 82 546 q 8 681 8 608 q 81 853 8 769 q 268 990 154 938 q 496 1042 382 1042 q 551 1039 515 1042 l 331 0 l 131 0 l 332 943 z "},"Ĭ":{"ha":521,"x_min":8,"x_max":746,"o":"m 453 1132 q 295 1181 350 1132 q 240 1325 240 1231 l 365 1325 q 394 1240 365 1269 q 474 1210 422 1210 q 575 1243 531 1210 q 626 1325 619 1276 l 746 1325 q 697 1226 738 1271 q 591 1157 656 1182 q 453 1132 526 1132 m 332 943 q 188 828 239 906 q 138 640 138 751 q 147 569 138 589 q 157 546 157 549 q 45 577 82 546 q 8 681 8 608 q 81 853 8 769 q 268 990 154 938 q 496 1042 382 1042 q 551 1039 515 1042 l 331 0 l 131 0 l 332 943 z "},"Ǐ":{"ha":521,"x_min":8,"x_max":775,"o":"m 451 1126 l 368 1389 l 413 1389 l 496 1278 l 714 1389 l 775 1389 l 481 1126 l 451 1126 m 332 943 q 188 828 239 906 q 138 640 138 751 q 147 569 138 589 q 157 546 157 549 q 45 577 82 546 q 8 681 8 608 q 81 853 8 769 q 268 990 154 938 q 496 1042 382 1042 q 551 1039 515 1042 l 331 0 l 131 0 l 332 943 z "},"Î":{"ha":521,"x_min":8,"x_max":643,"o":"m 236 1126 l 531 1389 l 560 1389 l 643 1126 l 600 1126 l 517 1238 l 297 1126 l 236 1126 m 332 943 q 188 828 239 906 q 138 640 138 751 q 147 569 138 589 q 157 546 157 549 q 45 577 82 546 q 8 681 8 608 q 81 853 8 769 q 268 990 154 938 q 496 1042 382 1042 q 551 1039 515 1042 l 331 0 l 131 0 l 332 943 z "},"Ȉ":{"ha":521,"x_min":8,"x_max":583,"o":"m 283 1126 l 88 1389 l 232 1389 l 360 1126 l 283 1126 m 508 1126 l 313 1389 l 458 1389 l 583 1126 l 508 1126 m 332 943 q 188 828 239 906 q 138 640 138 751 q 147 569 138 589 q 157 546 157 549 q 45 577 82 546 q 8 681 8 608 q 81 853 8 769 q 268 990 154 938 q 496 1042 382 1042 q 551 1039 515 1042 l 331 0 l 131 0 l 332 943 z "},"Ï":{"ha":521,"x_min":8,"x_max":679,"o":"m 344 1143 q 283 1167 307 1143 q 260 1228 260 1192 q 284 1288 260 1263 q 344 1313 308 1313 q 404 1288 379 1313 q 429 1228 429 1263 q 404 1167 429 1192 q 344 1143 379 1143 m 594 1143 q 534 1167 558 1143 q 510 1228 510 1192 q 534 1288 510 1263 q 594 1313 558 1313 q 653 1288 628 1313 q 679 1228 679 1263 q 654 1167 679 1192 q 594 1143 629 1143 m 332 943 q 188 828 239 906 q 138 640 138 751 q 147 569 138 589 q 157 546 157 549 q 45 577 82 546 q 8 681 8 608 q 81 853 8 769 q 268 990 154 938 q 496 1042 382 1042 q 551 1039 515 1042 l 331 0 l 131 0 l 332 943 z "},"İ":{"ha":521,"x_min":8,"x_max":607,"o":"m 496 1142 q 418 1173 450 1142 q 386 1250 386 1204 q 418 1329 386 1297 q 496 1361 450 1361 q 574 1329 542 1361 q 607 1250 607 1297 q 574 1173 607 1204 q 496 1142 542 1142 m 332 943 q 188 828 239 906 q 138 640 138 751 q 147 569 138 589 q 157 546 157 549 q 45 577 82 546 q 8 681 8 608 q 81 853 8 769 q 268 990 154 938 q 496 1042 382 1042 q 551 1039 515 1042 l 331 0 l 131 0 l 332 943 z "},"Ị":{"ha":521,"x_min":8,"x_max":551,"o":"m 332 943 q 188 828 239 906 q 138 640 138 751 q 147 569 138 589 q 157 546 157 549 q 45 577 82 546 q 8 681 8 608 q 81 853 8 769 q 268 990 154 938 q 496 1042 382 1042 q 551 1039 515 1042 l 331 0 l 131 0 l 332 943 m 192 -321 q 114 -289 146 -321 q 82 -211 82 -257 q 114 -133 82 -165 q 192 -100 146 -100 q 270 -133 238 -100 q 303 -211 303 -165 q 270 -289 303 -257 q 192 -321 238 -321 z "},"Ì":{"ha":521,"x_min":8,"x_max":551,"o":"m 381 1126 l 299 1389 l 444 1389 l 485 1126 l 381 1126 m 332 943 q 188 828 239 906 q 138 640 138 751 q 147 569 138 589 q 157 546 157 549 q 45 577 82 546 q 8 681 8 608 q 81 853 8 769 q 268 990 154 938 q 496 1042 382 1042 q 551 1039 515 1042 l 331 0 l 131 0 l 332 943 z "},"Ỉ":{"ha":521,"x_min":8,"x_max":638,"o":"m 415 1103 l 415 1225 q 478 1218 450 1218 q 526 1231 508 1218 q 543 1268 543 1244 q 478 1318 543 1318 q 394 1296 429 1318 l 358 1354 q 419 1379 382 1369 q 493 1389 457 1389 q 597 1358 557 1389 q 638 1276 638 1326 q 597 1196 638 1229 q 492 1157 557 1163 l 481 1100 l 415 1103 m 332 943 q 188 828 239 906 q 138 640 138 751 q 147 569 138 589 q 157 546 157 549 q 45 577 82 546 q 8 681 8 608 q 81 853 8 769 q 268 990 154 938 q 496 1042 382 1042 q 551 1039 515 1042 l 331 0 l 131 0 l 332 943 z "},"Ȋ":{"ha":521,"x_min":8,"x_max":690,"o":"m 185 1142 q 234 1239 193 1194 q 340 1308 275 1283 q 478 1333 404 1333 q 635 1284 581 1333 q 690 1142 690 1235 l 565 1142 q 537 1227 565 1197 q 457 1257 508 1257 q 355 1224 399 1257 q 304 1142 311 1190 l 185 1142 m 332 943 q 188 828 239 906 q 138 640 138 751 q 147 569 138 589 q 157 546 157 549 q 45 577 82 546 q 8 681 8 608 q 81 853 8 769 q 268 990 154 938 q 496 1042 382 1042 q 551 1039 515 1042 l 331 0 l 131 0 l 332 943 z "},"Ī":{"ha":521,"x_min":8,"x_max":679,"o":"m 213 1179 l 235 1282 l 679 1282 l 658 1179 l 213 1179 m 332 943 q 188 828 239 906 q 138 640 138 751 q 147 569 138 589 q 157 546 157 549 q 45 577 82 546 q 8 681 8 608 q 81 853 8 769 q 268 990 154 938 q 496 1042 382 1042 q 551 1039 515 1042 l 331 0 l 131 0 l 332 943 z "},"Į":{"ha":521,"x_min":8,"x_max":551,"o":"m 424 1126 l 319 1126 l 238 1389 l 383 1389 l 424 1126 m 274 -207 q 374 -153 326 -207 l 397 -185 q 324 -265 375 -232 q 219 -297 272 -297 q 121 -260 160 -297 q 82 -168 82 -224 q 185 0 82 -74 l 131 0 l 332 943 q 188 828 239 906 q 138 640 138 751 q 147 569 138 589 q 157 546 157 549 q 45 577 82 546 q 8 681 8 608 q 81 853 8 769 q 268 990 154 938 q 496 1042 382 1042 q 551 1039 515 1042 l 331 0 l 256 0 q 213 -53 228 -21 q 197 -122 197 -85 q 218 -184 197 -161 q 274 -207 239 -207 z "},"Ĩ":{"ha":521,"x_min":8,"x_max":740,"o":"m 517 1138 q 456 1144 485 1138 q 389 1165 426 1151 q 333 1183 357 1176 q 283 1189 308 1189 q 192 1153 232 1189 l 183 1156 q 276 1257 217 1222 q 415 1292 336 1292 q 480 1285 451 1292 q 543 1267 508 1279 q 644 1246 603 1246 q 732 1278 700 1246 l 740 1276 q 699 1212 733 1244 q 617 1158 665 1179 q 517 1138 568 1138 m 332 943 q 188 828 239 906 q 138 640 138 751 q 147 569 138 589 q 157 546 157 549 q 45 577 82 546 q 8 681 8 608 q 81 853 8 769 q 268 990 154 938 q 496 1042 382 1042 q 551 1039 515 1042 l 331 0 l 131 0 l 332 943 z "},"J":{"ha":744,"x_min":24,"x_max":803,"o":"m 229 -287 q 77 -234 131 -287 q 24 -92 24 -181 q 69 39 24 -17 q 193 94 115 94 q 291 77 253 94 q 329 1 329 60 q 321 -54 329 -24 q 278 -26 296 -33 q 238 -18 260 -18 q 166 -49 192 -18 q 140 -121 140 -79 q 169 -194 140 -169 q 235 -218 199 -218 q 291 -205 268 -218 q 332 -155 314 -192 q 367 -47 350 -118 l 585 944 q 440 829 492 907 q 389 640 389 751 q 399 569 389 589 q 408 546 408 549 q 297 577 333 546 q 260 681 260 608 q 333 853 260 769 q 519 990 406 938 q 747 1042 633 1042 l 803 1042 l 594 56 q 475 -201 558 -115 q 229 -287 392 -287 z "},"Ĵ":{"ha":744,"x_min":24,"x_max":889,"o":"m 482 1126 l 776 1389 l 806 1389 l 889 1126 l 844 1126 l 761 1238 l 543 1126 l 482 1126 m 229 -287 q 77 -234 131 -287 q 24 -92 24 -181 q 69 39 24 -17 q 193 94 115 94 q 291 77 253 94 q 329 1 329 60 q 321 -54 329 -24 q 278 -26 296 -33 q 238 -18 260 -18 q 166 -49 192 -18 q 140 -121 140 -79 q 169 -194 140 -169 q 235 -218 199 -218 q 291 -205 268 -218 q 332 -155 314 -192 q 367 -47 350 -118 l 585 944 q 440 829 492 907 q 389 640 389 751 q 399 569 389 589 q 408 546 408 549 q 297 577 333 546 q 260 681 260 608 q 333 853 260 769 q 519 990 406 938 q 747 1042 633 1042 l 803 1042 l 594 56 q 475 -201 558 -115 q 229 -287 392 -287 z "},"K":{"ha":835,"x_min":8,"x_max":922,"o":"m 606 -24 q 497 69 497 -24 q 506 140 497 100 q 532 242 515 179 q 561 353 551 307 q 571 435 571 399 q 488 529 571 529 q 442 524 464 529 l 331 0 l 131 0 l 332 944 q 188 828 239 906 q 138 640 138 750 q 147 569 138 589 q 157 546 157 549 q 45 577 82 546 q 8 681 8 608 q 81 853 8 769 q 268 990 154 938 q 496 1042 382 1042 q 551 1039 515 1042 l 461 614 l 604 806 q 776 1035 775 1036 l 922 1035 l 536 590 l 585 592 q 718 552 679 592 q 757 443 757 513 q 747 358 757 403 q 719 246 738 313 q 699 161 708 203 q 689 92 689 119 q 703 35 689 60 q 743 0 718 10 q 606 -24 658 -24 z "},"Ķ":{"ha":835,"x_min":8,"x_max":922,"o":"m 606 -24 q 497 69 497 -24 q 506 140 497 100 q 532 242 515 179 q 561 353 551 307 q 571 435 571 399 q 488 529 571 529 q 442 524 464 529 l 331 0 l 131 0 l 332 944 q 188 828 239 906 q 138 640 138 750 q 147 569 138 589 q 157 546 157 549 q 45 577 82 546 q 8 681 8 608 q 81 853 8 769 q 268 990 154 938 q 496 1042 382 1042 q 551 1039 515 1042 l 461 614 l 604 806 q 776 1035 775 1036 l 922 1035 l 536 590 l 585 592 q 718 552 679 592 q 757 443 757 513 q 747 358 757 403 q 719 246 738 313 q 699 161 708 203 q 689 92 689 119 q 703 35 689 60 q 743 0 718 10 q 606 -24 658 -24 m 349 -318 q 387 -274 376 -289 q 397 -246 397 -258 q 390 -226 397 -236 q 375 -207 383 -215 q 354 -181 361 -193 q 347 -154 347 -169 q 369 -107 347 -125 q 425 -89 390 -89 q 477 -110 457 -89 q 497 -165 497 -131 q 464 -262 497 -211 q 376 -346 431 -312 l 349 -318 z "},"L":{"ha":526,"x_min":8,"x_max":921,"o":"m 776 -347 q 653 -312 714 -347 q 500 -203 593 -276 q 381 -113 431 -147 q 274 -56 332 -79 q 157 -32 217 -32 q 125 -33 136 -32 l 332 929 q 188 815 239 892 q 138 626 138 738 q 147 555 138 575 q 157 532 157 535 q 45 563 82 532 q 8 667 8 594 q 81 840 8 756 q 268 976 154 924 q 496 1028 382 1028 q 551 1025 515 1028 l 338 28 q 417 -1 376 18 q 517 -51 458 -19 q 671 -126 607 -100 q 804 -151 735 -151 q 921 -129 867 -151 q 872 -289 910 -231 q 776 -347 833 -347 z "},"Ĺ":{"ha":526,"x_min":8,"x_max":921,"o":"m 424 1126 l 550 1389 l 696 1389 l 528 1126 l 424 1126 m 776 -347 q 653 -312 714 -347 q 500 -203 593 -276 q 381 -113 431 -147 q 274 -56 332 -79 q 157 -32 217 -32 q 125 -33 136 -32 l 332 929 q 188 815 239 892 q 138 626 138 738 q 147 555 138 575 q 157 532 157 535 q 45 563 82 532 q 8 667 8 594 q 81 840 8 756 q 268 976 154 924 q 496 1028 382 1028 q 551 1025 515 1028 l 338 28 q 417 -1 376 18 q 517 -51 458 -19 q 671 -126 607 -100 q 804 -151 735 -151 q 921 -129 867 -151 q 872 -289 910 -231 q 776 -347 833 -347 z "},"Ľ":{"ha":526,"x_min":8,"x_max":921,"o":"m 479 1126 l 396 1389 l 439 1389 l 522 1278 l 742 1389 l 803 1389 l 508 1126 l 479 1126 m 776 -347 q 653 -312 714 -347 q 500 -203 593 -276 q 381 -113 431 -147 q 274 -56 332 -79 q 157 -32 217 -32 q 125 -33 136 -32 l 332 929 q 188 815 239 892 q 138 626 138 738 q 147 555 138 575 q 157 532 157 535 q 45 563 82 532 q 8 667 8 594 q 81 840 8 756 q 268 976 154 924 q 496 1028 382 1028 q 551 1025 515 1028 l 338 28 q 417 -1 376 18 q 517 -51 458 -19 q 671 -126 607 -100 q 804 -151 735 -151 q 921 -129 867 -151 q 872 -289 910 -231 q 776 -347 833 -347 z "},"Ļ":{"ha":526,"x_min":8,"x_max":921,"o":"m 776 -347 q 653 -312 714 -347 q 500 -203 593 -276 q 381 -113 431 -147 q 274 -56 332 -79 q 157 -32 217 -32 q 125 -33 136 -32 l 332 929 q 188 815 239 892 q 138 626 138 738 q 147 555 138 575 q 157 532 157 535 q 45 563 82 532 q 8 667 8 594 q 81 840 8 756 q 268 976 154 924 q 496 1028 382 1028 q 551 1025 515 1028 l 338 28 q 417 -1 376 18 q 517 -51 458 -19 q 671 -126 607 -100 q 804 -151 735 -151 q 921 -129 867 -151 q 872 -289 910 -231 q 776 -347 833 -347 m 113 -318 q 149 -273 139 -287 q 160 -246 160 -258 q 153 -226 160 -236 q 138 -207 146 -215 q 117 -181 124 -193 q 110 -154 110 -169 q 131 -108 110 -126 q 188 -89 153 -89 q 241 -110 221 -89 q 261 -165 261 -131 q 227 -262 261 -211 q 140 -346 193 -312 l 113 -318 z "},"Ŀ":{"ha":840,"x_min":8,"x_max":921,"o":"m 776 -347 q 653 -312 714 -347 q 500 -203 593 -276 q 381 -113 431 -147 q 274 -56 332 -79 q 157 -32 217 -32 q 125 -33 136 -32 l 332 929 q 188 815 239 892 q 138 626 138 738 q 147 555 138 575 q 157 532 157 535 q 45 563 82 532 q 8 667 8 594 q 81 840 8 756 q 268 976 154 924 q 496 1028 382 1028 q 551 1025 515 1028 l 338 28 q 417 -1 376 18 q 517 -51 458 -19 q 671 -126 607 -100 q 804 -151 735 -151 q 921 -129 867 -151 q 872 -289 910 -231 q 776 -347 833 -347 m 667 239 q 590 271 622 239 q 557 347 557 303 q 590 427 557 394 q 667 460 622 460 q 746 427 713 460 q 779 347 779 394 q 746 271 779 303 q 667 239 713 239 z "},"Ḷ":{"ha":526,"x_min":8,"x_max":921,"o":"m 776 -347 q 653 -312 714 -347 q 500 -203 593 -276 q 381 -113 431 -147 q 274 -56 332 -79 q 157 -32 217 -32 q 125 -33 136 -32 l 332 929 q 188 815 239 892 q 138 626 138 738 q 147 555 138 575 q 157 532 157 535 q 45 563 82 532 q 8 667 8 594 q 81 840 8 756 q 268 976 154 924 q 496 1028 382 1028 q 551 1025 515 1028 l 338 28 q 417 -1 376 18 q 517 -51 458 -19 q 671 -126 607 -100 q 804 -151 735 -151 q 921 -129 867 -151 q 872 -289 910 -231 q 776 -347 833 -347 m 206 -321 q 128 -289 160 -321 q 96 -211 96 -257 q 128 -133 96 -165 q 206 -100 160 -100 q 284 -133 251 -100 q 317 -211 317 -165 q 284 -289 317 -257 q 206 -321 251 -321 z "},"Ł":{"ha":544,"x_min":8,"x_max":921,"o":"m 776 -347 q 653 -312 714 -347 q 500 -203 593 -276 q 381 -113 431 -147 q 274 -56 332 -79 q 157 -32 217 -32 q 125 -33 136 -32 l 222 410 l 132 356 l 135 429 l 240 497 l 332 929 q 188 815 239 892 q 138 626 138 738 q 147 555 138 575 q 157 532 157 535 q 45 563 82 532 q 8 667 8 594 q 81 840 8 756 q 268 976 154 924 q 496 1028 382 1028 q 551 1025 515 1028 l 475 660 l 636 756 l 631 671 l 454 563 l 338 28 q 417 -1 376 18 q 517 -51 458 -19 q 671 -126 607 -101 q 804 -151 735 -151 q 921 -129 867 -151 q 872 -289 910 -231 q 776 -347 833 -347 z "},"M":{"ha":1093,"x_min":93,"x_max":1117,"o":"m 446 954 q 283 840 340 919 q 225 642 225 760 q 235 569 225 589 q 244 546 244 550 q 96 672 96 546 q 162 845 96 758 q 331 987 228 932 q 538 1042 435 1042 q 643 1022 589 1042 l 611 290 l 917 1022 l 1117 1022 l 971 0 l 771 0 l 860 624 l 599 0 l 408 0 l 436 626 l 204 0 l 93 0 l 446 954 z "},"Ṃ":{"ha":1093,"x_min":93,"x_max":1117,"o":"m 446 954 q 283 840 340 919 q 225 642 225 760 q 235 569 225 589 q 244 546 244 550 q 96 672 96 546 q 162 845 96 758 q 331 987 228 932 q 538 1042 435 1042 q 643 1022 589 1042 l 611 290 l 917 1022 l 1117 1022 l 971 0 l 771 0 l 860 624 l 599 0 l 408 0 l 436 626 l 204 0 l 93 0 l 446 954 m 463 -321 q 385 -289 418 -321 q 353 -211 353 -257 q 385 -133 353 -165 q 463 -100 418 -100 q 542 -133 508 -100 q 575 -211 575 -165 q 542 -289 575 -257 q 463 -321 508 -321 z "},"N":{"ha":928,"x_min":8,"x_max":997,"o":"m 338 951 q 194 847 243 918 q 144 674 144 775 q 154 592 144 629 q 182 532 164 556 q 51 569 93 532 q 8 682 8 606 q 65 863 8 779 q 219 997 122 947 q 431 1047 317 1047 q 486 1043 463 1047 q 540 1028 510 1039 l 707 285 l 863 1039 l 997 1039 l 771 0 l 579 0 l 418 689 l 260 0 l 128 0 l 338 951 z "},"Ń":{"ha":975,"x_min":8,"x_max":997,"o":"m 689 1126 l 815 1389 l 961 1389 l 793 1126 l 689 1126 m 338 951 q 194 847 243 918 q 144 674 144 775 q 154 592 144 629 q 182 532 164 556 q 51 569 93 532 q 8 682 8 606 q 65 863 8 779 q 219 997 122 947 q 431 1047 317 1047 q 486 1043 463 1047 q 540 1028 510 1039 l 707 285 l 863 1039 l 997 1039 l 771 0 l 579 0 l 418 689 l 260 0 l 128 0 l 338 951 z "},"Ň":{"ha":928,"x_min":8,"x_max":1019,"o":"m 696 1126 l 613 1389 l 657 1389 l 740 1278 l 958 1389 l 1019 1389 l 725 1126 l 696 1126 m 338 951 q 194 847 243 918 q 144 674 144 775 q 154 592 144 629 q 182 532 164 556 q 51 569 93 532 q 8 682 8 606 q 65 863 8 779 q 219 997 122 947 q 431 1047 317 1047 q 486 1043 463 1047 q 540 1028 510 1039 l 707 285 l 863 1039 l 997 1039 l 771 0 l 579 0 l 418 689 l 260 0 l 128 0 l 338 951 z "},"Ņ":{"ha":928,"x_min":8,"x_max":997,"o":"m 338 951 q 194 847 243 918 q 144 674 144 775 q 154 592 144 629 q 182 532 164 556 q 51 569 93 532 q 8 682 8 606 q 65 863 8 779 q 219 997 122 947 q 431 1047 317 1047 q 486 1043 463 1047 q 540 1028 510 1039 l 707 285 l 863 1039 l 997 1039 l 771 0 l 579 0 l 418 689 l 260 0 l 128 0 l 338 951 m 343 -318 q 380 -273 369 -287 q 390 -246 390 -258 q 383 -226 390 -236 q 368 -207 376 -215 q 347 -181 354 -193 q 340 -154 340 -169 q 362 -108 340 -126 q 418 -89 383 -89 q 472 -110 451 -89 q 492 -165 492 -131 q 458 -262 492 -211 q 371 -346 424 -312 l 343 -318 z "},"Ṅ":{"ha":928,"x_min":8,"x_max":997,"o":"m 740 1142 q 663 1173 694 1142 q 631 1250 631 1204 q 663 1329 631 1297 q 740 1361 694 1361 q 819 1329 786 1361 q 851 1250 851 1297 q 819 1173 851 1204 q 740 1142 786 1142 m 338 951 q 194 847 243 918 q 144 674 144 775 q 154 592 144 629 q 182 532 164 556 q 51 569 93 532 q 8 682 8 606 q 65 863 8 779 q 219 997 122 947 q 431 1047 317 1047 q 486 1043 463 1047 q 540 1028 510 1039 l 707 285 l 863 1039 l 997 1039 l 771 0 l 579 0 l 418 689 l 260 0 l 128 0 l 338 951 z "},"Ṇ":{"ha":928,"x_min":8,"x_max":997,"o":"m 338 951 q 194 847 243 918 q 144 674 144 775 q 154 592 144 629 q 182 532 164 556 q 51 569 93 532 q 8 682 8 606 q 65 863 8 779 q 219 997 122 947 q 431 1047 317 1047 q 486 1043 463 1047 q 540 1028 510 1039 l 707 285 l 863 1039 l 997 1039 l 771 0 l 579 0 l 418 689 l 260 0 l 128 0 l 338 951 m 415 -321 q 338 -289 369 -321 q 306 -211 306 -257 q 338 -133 306 -165 q 415 -100 369 -100 q 494 -133 461 -100 q 526 -211 526 -165 q 494 -289 526 -257 q 415 -321 461 -321 z "},"Ŋ":{"ha":1004,"x_min":71,"x_max":1071,"o":"m 525 -286 q 383 -242 436 -286 q 329 -124 329 -197 q 353 -44 329 -74 q 419 -15 378 -15 q 471 -31 450 -15 q 497 -71 492 -46 q 460 -92 475 -71 q 446 -142 446 -112 q 467 -196 446 -175 q 519 -217 488 -217 q 600 -171 564 -217 q 654 -46 636 -125 l 665 0 l 481 689 l 322 0 l 190 0 l 406 951 q 258 847 310 918 q 207 674 207 775 q 217 592 207 629 q 244 532 226 556 q 113 569 154 532 q 71 683 71 606 q 129 864 71 781 q 286 997 188 947 q 499 1047 385 1047 q 551 1043 528 1047 q 608 1028 575 1039 l 769 285 l 936 1044 l 1071 1044 l 863 115 q 525 -286 772 -286 z "},"Ñ":{"ha":953,"x_min":8,"x_max":997,"o":"m 761 1138 q 700 1144 729 1138 q 633 1165 671 1151 q 577 1183 601 1176 q 528 1189 553 1189 q 436 1153 476 1189 l 428 1156 q 521 1257 461 1222 q 660 1292 581 1292 q 724 1285 694 1292 q 788 1267 753 1279 q 889 1246 847 1246 q 976 1278 944 1246 l 985 1276 q 944 1212 978 1244 q 861 1158 910 1179 q 761 1138 813 1138 m 338 951 q 194 847 243 918 q 144 674 144 775 q 154 592 144 629 q 182 532 164 556 q 51 569 93 532 q 8 682 8 606 q 65 863 8 779 q 219 997 122 947 q 431 1047 317 1047 q 486 1043 463 1047 q 540 1028 510 1039 l 707 285 l 863 1039 l 997 1039 l 771 0 l 579 0 l 418 689 l 260 0 l 128 0 l 338 951 z "},"O":{"ha":924,"x_min":22,"x_max":911,"o":"m 399 -8 q 216 58 282 -8 q 150 271 150 125 q 194 549 150 394 q 324 813 239 703 q 526 922 410 922 q 599 911 568 922 q 481 763 538 875 q 390 511 425 650 q 356 265 356 372 q 375 147 356 190 q 436 104 394 104 q 572 202 504 104 q 683 449 639 300 q 726 735 726 597 q 712 873 726 821 q 658 951 697 925 q 549 978 619 978 q 350 934 442 978 q 203 809 258 890 q 149 621 149 728 q 156 566 149 583 q 163 546 163 549 q 58 574 93 546 q 22 663 22 601 q 101 846 22 758 q 309 988 179 933 q 582 1042 439 1042 q 833 947 756 1042 q 911 686 911 853 q 856 376 911 538 q 684 103 800 215 q 399 -8 568 -8 z "},"Ó":{"ha":924,"x_min":22,"x_max":911,"o":"m 551 1126 l 678 1389 l 824 1389 l 656 1126 l 551 1126 m 399 -8 q 216 58 282 -8 q 150 271 150 125 q 194 549 150 394 q 324 813 239 703 q 526 922 410 922 q 599 911 568 922 q 481 763 538 875 q 390 511 425 650 q 356 265 356 372 q 375 147 356 190 q 436 104 394 104 q 572 202 504 104 q 683 449 639 300 q 726 735 726 597 q 712 873 726 821 q 658 951 697 925 q 549 978 619 978 q 350 934 442 978 q 203 809 258 890 q 149 621 149 728 q 156 566 149 583 q 163 546 163 549 q 58 574 93 546 q 22 663 22 601 q 101 846 22 758 q 309 988 179 933 q 582 1042 439 1042 q 833 947 756 1042 q 911 686 911 853 q 856 376 911 538 q 684 103 800 215 q 399 -8 568 -8 z "},"Ŏ":{"ha":924,"x_min":22,"x_max":928,"o":"m 636 1132 q 478 1181 532 1132 q 424 1325 424 1231 l 549 1325 q 576 1240 549 1269 q 657 1210 604 1210 q 758 1243 714 1210 q 810 1325 803 1276 l 928 1325 q 879 1227 921 1271 q 774 1158 838 1183 q 636 1132 710 1132 m 399 -8 q 216 58 282 -8 q 150 271 150 125 q 194 549 150 394 q 324 813 239 703 q 526 922 410 922 q 599 911 568 922 q 481 763 538 875 q 390 511 425 650 q 356 265 356 372 q 375 147 356 190 q 436 104 394 104 q 572 202 504 104 q 683 449 639 300 q 726 735 726 597 q 712 873 726 821 q 658 951 697 925 q 549 978 619 978 q 350 934 442 978 q 203 809 258 890 q 149 621 149 728 q 156 566 149 583 q 163 546 163 549 q 58 574 93 546 q 22 663 22 601 q 101 846 22 758 q 309 988 179 933 q 582 1042 439 1042 q 833 947 756 1042 q 911 686 911 853 q 856 376 911 538 q 684 103 800 215 q 399 -8 568 -8 z "},"Ǒ":{"ha":924,"x_min":22,"x_max":972,"o":"m 649 1126 l 565 1389 l 608 1389 l 693 1278 l 911 1389 l 972 1389 l 678 1126 l 649 1126 m 399 -8 q 216 58 282 -8 q 150 271 150 125 q 194 549 150 394 q 324 813 239 703 q 526 922 410 922 q 599 911 568 922 q 481 763 538 875 q 390 511 425 650 q 356 265 356 372 q 375 147 356 190 q 436 104 394 104 q 572 202 504 104 q 683 449 639 300 q 726 735 726 597 q 712 873 726 821 q 658 951 697 925 q 549 978 619 978 q 350 934 442 978 q 203 809 258 890 q 149 621 149 728 q 156 566 149 583 q 163 546 163 549 q 58 574 93 546 q 22 663 22 601 q 101 846 22 758 q 309 988 179 933 q 582 1042 439 1042 q 833 947 756 1042 q 911 686 911 853 q 856 376 911 538 q 684 103 800 215 q 399 -8 568 -8 z "},"Ô":{"ha":924,"x_min":22,"x_max":911,"o":"m 378 1126 l 672 1389 l 701 1389 l 785 1126 l 740 1126 l 657 1238 l 439 1126 l 378 1126 m 399 -8 q 216 58 282 -8 q 150 271 150 125 q 194 549 150 394 q 324 813 239 703 q 526 922 410 922 q 599 911 568 922 q 481 763 538 875 q 390 511 425 650 q 356 265 356 372 q 375 147 356 190 q 436 104 394 104 q 572 202 504 104 q 683 449 639 300 q 726 735 726 597 q 712 873 726 821 q 658 951 697 925 q 549 978 619 978 q 350 934 442 978 q 203 809 258 890 q 149 621 149 728 q 156 566 149 583 q 163 546 163 549 q 58 574 93 546 q 22 663 22 601 q 101 846 22 758 q 309 988 179 933 q 582 1042 439 1042 q 833 947 756 1042 q 911 686 911 853 q 856 376 911 538 q 684 103 800 215 q 399 -8 568 -8 z "},"Ố":{"ha":924,"x_min":22,"x_max":964,"o":"m 782 1203 l 868 1389 l 964 1389 l 843 1203 l 782 1203 m 449 1126 l 696 1319 l 721 1319 l 790 1126 l 728 1126 l 683 1226 l 531 1126 l 449 1126 m 399 -8 q 216 58 282 -8 q 150 271 150 125 q 194 549 150 394 q 324 813 239 703 q 526 922 410 922 q 599 911 568 922 q 481 763 538 875 q 390 511 425 650 q 356 265 356 372 q 375 147 356 190 q 436 104 394 104 q 572 202 504 104 q 683 449 639 300 q 726 735 726 597 q 712 873 726 821 q 658 951 697 925 q 549 978 619 978 q 350 934 442 978 q 203 809 258 890 q 149 621 149 728 q 156 566 149 583 q 163 546 163 549 q 58 574 93 546 q 22 663 22 601 q 101 846 22 758 q 309 988 179 933 q 582 1042 439 1042 q 833 947 756 1042 q 911 686 911 853 q 856 376 911 538 q 684 103 800 215 q 399 -8 568 -8 z "},"Ộ":{"ha":924,"x_min":22,"x_max":911,"o":"m 378 1126 l 672 1389 l 701 1389 l 785 1126 l 740 1126 l 657 1238 l 439 1126 l 378 1126 m 399 -8 q 216 58 282 -8 q 150 271 150 125 q 194 549 150 394 q 324 813 239 703 q 526 922 410 922 q 599 911 568 922 q 481 763 538 875 q 390 511 425 650 q 356 265 356 372 q 375 147 356 190 q 436 104 394 104 q 572 202 504 104 q 683 449 639 300 q 726 735 726 597 q 712 873 726 821 q 658 951 697 925 q 549 978 619 978 q 350 934 442 978 q 203 809 258 890 q 149 621 149 728 q 156 566 149 583 q 163 546 163 549 q 58 574 93 546 q 22 663 22 601 q 101 846 22 758 q 309 988 179 933 q 582 1042 439 1042 q 833 947 756 1042 q 911 686 911 853 q 856 376 911 538 q 684 103 800 215 q 399 -8 568 -8 m 361 -321 q 283 -289 315 -321 q 251 -211 251 -257 q 283 -133 251 -165 q 361 -100 315 -100 q 440 -133 407 -100 q 472 -211 472 -165 q 440 -289 472 -257 q 361 -321 407 -321 z "},"Ồ":{"ha":924,"x_min":22,"x_max":911,"o":"m 842 1201 l 781 1389 l 872 1389 l 899 1201 l 842 1201 m 449 1126 l 696 1319 l 721 1319 l 790 1126 l 728 1126 l 683 1226 l 529 1126 l 449 1126 m 399 -8 q 216 58 282 -8 q 150 271 150 125 q 194 549 150 394 q 324 813 239 703 q 526 922 410 922 q 599 911 568 922 q 481 763 538 875 q 390 511 425 650 q 356 265 356 372 q 375 147 356 190 q 436 104 394 104 q 572 202 504 104 q 683 449 639 300 q 726 735 726 597 q 712 873 726 821 q 658 951 697 925 q 549 978 619 978 q 350 934 442 978 q 203 809 258 890 q 149 621 149 728 q 156 566 149 583 q 163 546 163 549 q 58 574 93 546 q 22 663 22 601 q 101 846 22 758 q 309 988 179 933 q 582 1042 439 1042 q 833 947 756 1042 q 911 686 911 853 q 856 376 911 538 q 684 103 800 215 q 399 -8 568 -8 z "},"Ổ":{"ha":924,"x_min":22,"x_max":983,"o":"m 826 1189 l 826 1274 q 869 1268 857 1268 q 917 1306 917 1268 q 869 1340 917 1340 q 811 1325 838 1340 l 786 1364 q 828 1382 803 1375 q 881 1389 854 1389 q 954 1367 925 1389 q 983 1311 983 1346 q 954 1253 983 1276 q 878 1226 925 1229 l 874 1186 l 826 1189 m 449 1126 l 696 1319 l 721 1319 l 790 1126 l 728 1126 l 683 1226 l 529 1126 l 449 1126 m 399 -8 q 216 58 282 -8 q 150 271 150 125 q 194 549 150 394 q 324 813 239 703 q 526 922 410 922 q 599 911 568 922 q 481 763 538 875 q 390 511 425 650 q 356 265 356 372 q 375 147 356 190 q 436 104 394 104 q 572 202 504 104 q 683 449 639 300 q 726 735 726 597 q 712 873 726 821 q 658 951 697 925 q 549 978 619 978 q 350 934 442 978 q 203 809 258 890 q 149 621 149 728 q 156 566 149 583 q 163 546 163 549 q 58 574 93 546 q 22 663 22 601 q 101 846 22 758 q 309 988 179 933 q 582 1042 439 1042 q 833 947 756 1042 q 911 686 911 853 q 856 376 911 538 q 684 103 800 215 q 399 -8 568 -8 z "},"Ỗ":{"ha":924,"x_min":22,"x_max":911,"o":"m 449 1126 l 665 1296 q 623 1309 644 1303 q 582 1315 601 1315 q 519 1290 547 1315 l 513 1292 q 578 1364 536 1339 q 676 1389 621 1389 q 721 1384 701 1389 q 767 1371 740 1379 q 839 1356 810 1356 q 899 1378 878 1356 l 906 1376 q 850 1309 899 1340 q 747 1278 801 1278 l 736 1278 l 790 1126 l 728 1126 l 683 1226 l 531 1126 l 449 1126 m 582 1042 q 833 947 756 1042 q 911 686 911 853 q 856 376 911 538 q 684 103 800 215 q 399 -8 568 -8 q 216 58 282 -8 q 150 271 150 125 q 194 549 150 394 q 324 813 239 703 q 526 922 410 922 q 599 911 568 922 q 481 763 538 875 q 390 511 425 650 q 356 265 356 372 q 375 147 356 190 q 436 104 394 104 q 572 202 504 104 q 683 449 639 300 q 726 735 726 597 q 712 873 726 821 q 658 951 697 925 q 549 978 619 978 q 350 934 442 978 q 203 809 258 890 q 149 621 149 728 q 156 566 149 583 q 163 546 163 549 q 58 574 93 546 q 22 663 22 601 q 101 846 22 758 q 309 988 179 933 q 582 1042 439 1042 z "},"Ȍ":{"ha":924,"x_min":22,"x_max":911,"o":"m 458 1126 l 263 1389 l 408 1389 l 535 1126 l 458 1126 m 683 1126 l 488 1389 l 633 1389 l 760 1126 l 683 1126 m 399 -8 q 216 58 282 -8 q 150 271 150 125 q 194 549 150 394 q 324 813 239 703 q 526 922 410 922 q 599 911 568 922 q 481 763 538 875 q 390 511 425 650 q 356 265 356 372 q 375 147 356 190 q 436 104 394 104 q 572 202 504 104 q 683 449 639 300 q 726 735 726 597 q 712 873 726 821 q 658 951 697 925 q 549 978 619 978 q 350 934 442 978 q 203 809 258 890 q 149 621 149 728 q 156 566 149 583 q 163 546 163 549 q 58 574 93 546 q 22 663 22 601 q 101 846 22 758 q 309 988 179 933 q 582 1042 439 1042 q 833 947 756 1042 q 911 686 911 853 q 856 376 911 538 q 684 103 800 215 q 399 -8 568 -8 z "},"Ö":{"ha":924,"x_min":22,"x_max":911,"o":"m 485 1143 q 424 1167 449 1143 q 400 1228 400 1192 q 424 1288 400 1263 q 485 1313 449 1313 q 544 1288 519 1313 q 569 1228 569 1263 q 544 1167 569 1192 q 485 1143 519 1143 m 735 1143 q 674 1167 699 1143 q 650 1228 650 1192 q 674 1288 650 1263 q 735 1313 699 1313 q 794 1288 769 1313 q 819 1228 819 1263 q 794 1167 819 1192 q 735 1143 769 1143 m 399 -8 q 216 58 282 -8 q 150 271 150 125 q 194 549 150 394 q 324 813 239 703 q 526 922 410 922 q 599 911 568 922 q 481 763 538 875 q 390 511 425 650 q 356 265 356 372 q 375 147 356 190 q 436 104 394 104 q 572 202 504 104 q 683 449 639 300 q 726 735 726 597 q 712 873 726 821 q 658 951 697 925 q 549 978 619 978 q 350 934 442 978 q 203 809 258 890 q 149 621 149 728 q 156 566 149 583 q 163 546 163 549 q 58 574 93 546 q 22 663 22 601 q 101 846 22 758 q 309 988 179 933 q 582 1042 439 1042 q 833 947 756 1042 q 911 686 911 853 q 856 376 911 538 q 684 103 800 215 q 399 -8 568 -8 z "},"Ọ":{"ha":924,"x_min":22,"x_max":911,"o":"m 399 -8 q 216 58 282 -8 q 150 271 150 125 q 194 549 150 394 q 324 813 239 703 q 526 922 410 922 q 599 911 568 922 q 481 763 538 875 q 390 511 425 650 q 356 265 356 372 q 375 147 356 190 q 436 104 394 104 q 572 202 504 104 q 683 449 639 300 q 726 735 726 597 q 712 873 726 821 q 658 951 697 925 q 549 978 619 978 q 350 934 442 978 q 203 809 258 890 q 149 621 149 728 q 156 566 149 583 q 163 546 163 549 q 58 574 93 546 q 22 663 22 601 q 101 846 22 758 q 309 988 179 933 q 582 1042 439 1042 q 833 947 756 1042 q 911 686 911 853 q 856 376 911 538 q 684 103 800 215 q 399 -8 568 -8 m 361 -321 q 283 -289 315 -321 q 251 -211 251 -257 q 283 -133 251 -165 q 361 -100 315 -100 q 440 -133 407 -100 q 472 -211 472 -165 q 440 -289 472 -257 q 361 -321 407 -321 z "},"Ò":{"ha":924,"x_min":22,"x_max":911,"o":"m 501 1126 l 419 1389 l 565 1389 l 606 1126 l 501 1126 m 399 -8 q 216 58 282 -8 q 150 271 150 125 q 194 549 150 394 q 324 813 239 703 q 526 922 410 922 q 599 911 568 922 q 481 763 538 875 q 390 511 425 650 q 356 265 356 372 q 375 147 356 190 q 436 104 394 104 q 572 202 504 104 q 683 449 639 300 q 726 735 726 597 q 712 873 726 821 q 658 951 697 925 q 549 978 619 978 q 350 934 442 978 q 203 809 258 890 q 149 621 149 728 q 156 566 149 583 q 163 546 163 549 q 58 574 93 546 q 22 663 22 601 q 101 846 22 758 q 309 988 179 933 q 582 1042 439 1042 q 833 947 756 1042 q 911 686 911 853 q 856 376 911 538 q 684 103 800 215 q 399 -8 568 -8 z "},"Ỏ":{"ha":924,"x_min":22,"x_max":911,"o":"m 592 1103 l 592 1225 q 654 1218 626 1218 q 702 1231 685 1218 q 719 1268 719 1244 q 654 1318 719 1318 q 571 1296 606 1318 l 535 1354 q 596 1379 558 1369 q 669 1389 633 1389 q 774 1358 733 1389 q 814 1276 814 1326 q 773 1195 814 1228 q 667 1157 732 1163 l 657 1100 l 592 1103 m 399 -8 q 216 58 282 -8 q 150 271 150 125 q 194 549 150 394 q 324 813 239 703 q 526 922 410 922 q 599 911 568 922 q 481 763 538 875 q 390 511 425 650 q 356 265 356 372 q 375 147 356 190 q 436 104 394 104 q 572 202 504 104 q 683 449 639 300 q 726 735 726 597 q 712 873 726 821 q 658 951 697 925 q 549 978 619 978 q 350 934 442 978 q 203 809 258 890 q 149 621 149 728 q 156 566 149 583 q 163 546 163 549 q 58 574 93 546 q 22 663 22 601 q 101 846 22 758 q 309 988 179 933 q 582 1042 439 1042 q 833 947 756 1042 q 911 686 911 853 q 856 376 911 538 q 684 103 800 215 q 399 -8 568 -8 z "},"Ơ":{"ha":924,"x_min":22,"x_max":1006,"o":"m 1006 1163 q 964 1024 1006 1096 q 860 910 922 951 q 911 686 911 825 q 856 376 911 538 q 684 103 800 215 q 399 -8 568 -8 q 216 58 282 -8 q 150 271 150 125 q 194 549 150 394 q 324 813 239 703 q 526 922 410 922 q 599 911 568 922 q 481 763 538 875 q 390 511 425 650 q 356 265 356 372 q 375 147 356 190 q 436 104 394 104 q 572 202 504 104 q 683 449 639 300 q 726 735 726 597 q 712 873 726 821 q 658 951 697 925 q 549 978 619 978 q 350 934 442 978 q 203 809 258 890 q 149 621 149 728 q 156 566 149 583 q 163 546 163 549 q 58 574 93 546 q 22 663 22 601 q 101 846 22 758 q 309 988 179 933 q 582 1042 439 1042 q 807 974 724 1042 q 861 1035 846 997 q 876 1125 876 1074 q 868 1199 876 1164 q 950 1228 913 1228 q 1006 1163 1006 1228 z "},"Ớ":{"ha":924,"x_min":22,"x_max":1006,"o":"m 824 1389 l 656 1126 l 551 1126 l 678 1389 l 824 1389 m 1006 1163 q 964 1024 1006 1096 q 860 910 922 951 q 911 686 911 825 q 856 376 911 538 q 684 103 800 215 q 399 -8 568 -8 q 216 58 282 -8 q 150 271 150 125 q 194 549 150 394 q 324 813 239 703 q 526 922 410 922 q 599 911 568 922 q 481 763 538 875 q 390 511 425 650 q 356 265 356 372 q 375 147 356 190 q 436 104 394 104 q 572 202 504 104 q 683 449 639 300 q 726 735 726 597 q 712 873 726 821 q 658 951 697 925 q 549 978 619 978 q 350 934 442 978 q 203 809 258 890 q 149 621 149 728 q 156 566 149 583 q 163 546 163 549 q 58 574 93 546 q 22 663 22 601 q 101 846 22 758 q 309 988 179 933 q 582 1042 439 1042 q 807 974 724 1042 q 861 1035 846 997 q 876 1125 876 1074 q 868 1199 876 1164 q 950 1228 913 1228 q 1006 1163 1006 1228 z "},"Ợ":{"ha":924,"x_min":22,"x_max":1006,"o":"m 1006 1163 q 964 1024 1006 1096 q 860 910 922 951 q 911 686 911 825 q 856 376 911 538 q 684 103 800 215 q 399 -8 568 -8 q 216 58 282 -8 q 150 271 150 125 q 194 549 150 394 q 324 813 239 703 q 526 922 410 922 q 599 911 568 922 q 481 763 538 875 q 390 511 425 650 q 356 265 356 372 q 375 147 356 190 q 436 104 394 104 q 572 202 504 104 q 683 449 639 300 q 726 735 726 597 q 712 873 726 821 q 658 951 697 925 q 549 978 619 978 q 350 934 442 978 q 203 809 258 890 q 149 621 149 728 q 156 566 149 583 q 163 546 163 549 q 58 574 93 546 q 22 663 22 601 q 101 846 22 758 q 309 988 179 933 q 582 1042 439 1042 q 807 974 724 1042 q 861 1035 846 997 q 876 1125 876 1074 q 868 1199 876 1164 q 950 1228 913 1228 q 1006 1163 1006 1228 m 361 -100 q 440 -133 407 -100 q 472 -211 472 -165 q 440 -289 472 -257 q 361 -321 407 -321 q 283 -289 315 -321 q 251 -211 251 -257 q 283 -133 251 -165 q 361 -100 315 -100 z "},"Ờ":{"ha":924,"x_min":22,"x_max":1006,"o":"m 606 1126 l 501 1126 l 419 1389 l 565 1389 l 606 1126 m 1006 1163 q 964 1024 1006 1096 q 860 910 922 951 q 911 686 911 825 q 856 376 911 538 q 684 103 800 215 q 399 -8 568 -8 q 216 58 282 -8 q 150 271 150 125 q 194 549 150 394 q 324 813 239 703 q 526 922 410 922 q 599 911 568 922 q 481 763 538 875 q 390 511 425 650 q 356 265 356 372 q 375 147 356 190 q 436 104 394 104 q 572 202 504 104 q 683 449 639 300 q 726 735 726 597 q 712 873 726 821 q 658 951 697 925 q 549 978 619 978 q 350 934 442 978 q 203 809 258 890 q 149 621 149 728 q 156 566 149 583 q 163 546 163 549 q 58 574 93 546 q 22 663 22 601 q 101 846 22 758 q 309 988 179 933 q 582 1042 439 1042 q 807 974 724 1042 q 861 1035 846 997 q 876 1125 876 1074 q 868 1199 876 1164 q 950 1228 913 1228 q 1006 1163 1006 1228 z "},"Ở":{"ha":924,"x_min":22,"x_max":1006,"o":"m 654 1318 q 571 1296 606 1318 l 535 1354 q 596 1379 558 1369 q 669 1389 633 1389 q 774 1358 733 1389 q 814 1276 814 1326 q 773 1195 814 1228 q 667 1157 732 1163 l 657 1100 l 592 1103 l 592 1225 q 654 1218 626 1218 q 702 1231 685 1218 q 719 1268 719 1244 q 654 1318 719 1318 m 1006 1163 q 964 1024 1006 1096 q 860 910 922 951 q 911 686 911 825 q 856 376 911 538 q 684 103 800 215 q 399 -8 568 -8 q 216 58 282 -8 q 150 271 150 125 q 194 549 150 394 q 324 813 239 703 q 526 922 410 922 q 599 911 568 922 q 481 763 538 875 q 390 511 425 650 q 356 265 356 372 q 375 147 356 190 q 436 104 394 104 q 572 202 504 104 q 683 449 639 300 q 726 735 726 597 q 712 873 726 821 q 658 951 697 925 q 549 978 619 978 q 350 934 442 978 q 203 809 258 890 q 149 621 149 728 q 156 566 149 583 q 163 546 163 549 q 58 574 93 546 q 22 663 22 601 q 101 846 22 758 q 309 988 179 933 q 582 1042 439 1042 q 807 974 724 1042 q 861 1035 846 997 q 876 1125 876 1074 q 868 1199 876 1164 q 950 1228 913 1228 q 1006 1163 1006 1228 z "},"Ỡ":{"ha":924,"x_min":22,"x_max":1006,"o":"m 421 1189 q 339 1153 375 1189 l 332 1156 q 414 1257 361 1222 q 536 1292 467 1292 q 592 1285 568 1292 q 650 1267 617 1279 q 739 1246 703 1246 q 817 1278 788 1246 l 824 1276 q 788 1212 818 1244 q 715 1158 758 1179 q 626 1138 671 1138 q 572 1144 597 1138 q 513 1165 547 1151 q 463 1183 483 1176 q 421 1189 443 1189 m 1006 1163 q 964 1024 1006 1096 q 860 910 922 951 q 911 686 911 825 q 856 376 911 538 q 684 103 800 215 q 399 -8 568 -8 q 216 58 282 -8 q 150 271 150 125 q 194 549 150 394 q 324 813 239 703 q 526 922 410 922 q 599 911 568 922 q 481 763 538 875 q 390 511 425 650 q 356 265 356 372 q 375 147 356 190 q 436 104 394 104 q 572 202 504 104 q 683 449 639 300 q 726 735 726 597 q 712 873 726 821 q 658 951 697 925 q 549 978 619 978 q 350 934 442 978 q 203 809 258 890 q 149 621 149 728 q 156 566 149 583 q 163 546 163 549 q 58 574 93 546 q 22 663 22 601 q 101 846 22 758 q 309 988 179 933 q 582 1042 439 1042 q 807 974 724 1042 q 861 1035 846 997 q 876 1125 876 1074 q 868 1199 876 1164 q 950 1228 913 1228 q 1006 1163 1006 1228 z "},"Ő":{"ha":924,"x_min":22,"x_max":1013,"o":"m 515 1125 l 642 1388 l 788 1388 l 592 1125 l 515 1125 m 740 1125 l 867 1388 l 1013 1388 l 817 1125 l 740 1125 m 399 -8 q 216 58 282 -8 q 150 271 150 125 q 194 549 150 394 q 324 813 239 703 q 526 922 410 922 q 599 911 568 922 q 481 763 538 875 q 390 511 425 650 q 356 265 356 372 q 375 147 356 190 q 436 104 394 104 q 572 202 504 104 q 683 449 639 300 q 726 735 726 597 q 712 873 726 821 q 658 951 697 925 q 549 978 619 978 q 350 934 442 978 q 203 809 258 890 q 149 621 149 728 q 156 566 149 583 q 163 546 163 549 q 58 574 93 546 q 22 663 22 601 q 101 846 22 758 q 309 988 179 933 q 582 1042 439 1042 q 833 947 756 1042 q 911 686 911 853 q 856 376 911 538 q 684 103 800 215 q 399 -8 568 -8 z "},"Ȏ":{"ha":924,"x_min":22,"x_max":911,"o":"m 403 1142 q 451 1239 410 1194 q 557 1308 493 1283 q 694 1333 621 1333 q 853 1285 799 1333 q 907 1142 907 1236 l 782 1142 q 753 1227 782 1197 q 674 1257 725 1257 q 572 1224 617 1257 q 521 1142 528 1190 l 403 1142 m 399 -8 q 216 58 282 -8 q 150 271 150 125 q 194 549 150 394 q 324 813 239 703 q 526 922 410 922 q 599 911 568 922 q 481 763 538 875 q 390 511 425 650 q 356 265 356 372 q 375 147 356 190 q 436 104 394 104 q 572 202 504 104 q 683 449 639 300 q 726 735 726 597 q 712 873 726 821 q 658 951 697 925 q 549 978 619 978 q 350 934 442 978 q 203 809 258 890 q 149 621 149 728 q 156 566 149 583 q 163 546 163 549 q 58 574 93 546 q 22 663 22 601 q 101 846 22 758 q 309 988 179 933 q 582 1042 439 1042 q 833 947 756 1042 q 911 686 911 853 q 856 376 911 538 q 684 103 800 215 q 399 -8 568 -8 z "},"Ō":{"ha":924,"x_min":22,"x_max":911,"o":"m 375 1179 l 397 1282 l 840 1282 l 821 1179 l 375 1179 m 399 -8 q 216 58 282 -8 q 150 271 150 125 q 194 549 150 394 q 324 813 239 703 q 526 922 410 922 q 599 911 568 922 q 481 763 538 875 q 390 511 425 650 q 356 265 356 372 q 375 147 356 190 q 436 104 394 104 q 572 202 504 104 q 683 449 639 300 q 726 735 726 597 q 712 873 726 821 q 658 951 697 925 q 549 978 619 978 q 350 934 442 978 q 203 809 258 890 q 149 621 149 728 q 156 566 149 583 q 163 546 163 549 q 58 574 93 546 q 22 663 22 601 q 101 846 22 758 q 309 988 179 933 q 582 1042 439 1042 q 833 947 756 1042 q 911 686 911 853 q 856 376 911 538 q 684 103 800 215 q 399 -8 568 -8 z "},"Ǫ":{"ha":924,"x_min":22,"x_max":911,"o":"m 592 1126 l 488 1126 l 406 1389 l 551 1389 l 592 1126 m 403 -8 q 366 -59 379 -29 q 353 -122 353 -89 q 374 -184 353 -161 q 431 -207 396 -207 q 529 -153 482 -207 l 553 -185 q 480 -265 531 -232 q 376 -297 429 -297 q 276 -260 315 -297 q 238 -168 238 -224 q 338 -3 238 -75 q 199 80 249 13 q 150 271 150 147 q 194 549 150 394 q 324 813 239 703 q 526 922 410 922 q 599 911 568 922 q 481 763 538 875 q 390 511 425 650 q 356 265 356 372 q 375 147 356 190 q 436 104 394 104 q 572 202 504 104 q 683 449 639 300 q 726 735 726 597 q 712 873 726 821 q 658 951 697 925 q 549 978 619 978 q 350 934 442 978 q 203 809 258 890 q 149 621 149 728 q 156 566 149 583 q 163 546 163 549 q 58 574 93 546 q 22 663 22 601 q 101 846 22 758 q 309 988 179 933 q 582 1042 439 1042 q 833 947 756 1042 q 911 686 911 853 q 856 378 911 539 q 685 105 800 217 q 403 -8 571 -7 z "},"Ø":{"ha":914,"x_min":21,"x_max":878,"o":"m 388 -8 l 385 -8 q 208 55 272 -8 q 144 254 144 118 q 188 514 144 369 q 313 761 231 658 q 507 864 396 864 q 569 854 542 864 l 582 911 q 529 915 560 915 q 337 874 425 915 q 196 757 249 833 q 143 581 143 681 q 150 530 143 546 q 157 511 157 514 q 56 537 90 511 q 21 619 21 563 q 97 792 21 710 q 297 924 172 874 q 561 975 422 975 q 594 974 583 975 l 610 1042 l 682 1042 l 665 964 q 878 642 878 913 q 833 376 878 515 q 693 130 788 236 q 461 -1 599 24 l 440 -99 l 368 -99 l 388 -8 m 488 122 q 591 255 542 163 q 670 464 640 347 q 700 688 700 581 q 689 808 700 763 q 647 881 678 854 l 488 122 m 568 847 q 459 705 511 810 q 375 473 407 600 q 343 249 343 346 q 410 97 343 111 l 568 847 z "},"Ǿ":{"ha":914,"x_min":21,"x_max":879,"o":"m 607 1126 l 733 1389 l 879 1389 l 711 1126 l 607 1126 m 388 -8 l 385 -8 q 208 55 272 -8 q 144 254 144 118 q 188 514 144 369 q 313 761 231 658 q 507 864 396 864 q 569 854 542 864 l 582 911 q 529 915 560 915 q 337 874 425 915 q 196 757 249 833 q 143 581 143 681 q 150 530 143 546 q 157 511 157 514 q 56 537 90 511 q 21 619 21 563 q 97 792 21 710 q 297 924 172 874 q 561 975 422 975 q 594 974 583 975 l 610 1042 l 682 1042 l 665 964 q 878 642 878 913 q 833 376 878 515 q 693 130 788 236 q 461 -1 599 24 l 440 -99 l 368 -99 l 388 -8 m 488 122 q 591 255 542 163 q 670 464 640 347 q 700 688 700 581 q 689 808 700 763 q 647 881 678 854 l 488 122 m 568 847 q 459 705 511 810 q 375 473 407 600 q 343 249 343 346 q 410 97 343 111 l 568 847 z "},"Õ":{"ha":924,"x_min":22,"x_max":938,"o":"m 714 1138 q 653 1144 682 1138 q 586 1165 624 1151 q 530 1183 554 1176 q 481 1189 506 1189 q 389 1153 429 1189 l 381 1156 q 474 1257 414 1222 q 613 1292 533 1292 q 677 1285 649 1292 q 740 1267 706 1279 q 842 1246 800 1246 q 929 1278 897 1246 l 938 1276 q 897 1212 931 1244 q 814 1158 863 1179 q 714 1138 765 1138 m 399 -8 q 216 58 282 -8 q 150 271 150 125 q 194 549 150 394 q 324 813 239 703 q 526 922 410 922 q 599 911 568 922 q 481 763 538 875 q 390 511 425 650 q 356 265 356 372 q 375 147 356 190 q 436 104 394 104 q 572 202 504 104 q 683 449 639 300 q 726 735 726 597 q 712 873 726 821 q 658 951 697 925 q 549 978 619 978 q 350 934 442 978 q 203 809 258 890 q 149 621 149 728 q 156 566 149 583 q 163 546 163 549 q 58 574 93 546 q 22 663 22 601 q 101 846 22 758 q 309 988 179 933 q 582 1042 439 1042 q 833 947 756 1042 q 911 686 911 853 q 856 376 911 538 q 684 103 800 215 q 399 -8 568 -8 z "},"Œ":{"ha":1175,"x_min":22,"x_max":1269,"o":"m 399 -8 q 216 58 282 -8 q 150 271 150 125 q 194 549 150 394 q 324 813 239 703 q 526 922 410 922 q 599 911 568 922 q 481 763 538 875 q 390 511 425 650 q 356 265 356 372 q 375 147 356 190 q 436 104 394 104 q 572 202 504 104 q 683 449 639 300 q 726 735 726 597 q 712 873 726 821 q 658 951 697 925 q 549 978 619 978 q 350 934 442 978 q 203 809 258 890 q 149 621 149 728 q 156 566 149 583 q 163 546 163 549 q 58 574 93 546 q 22 663 22 601 q 101 846 22 758 q 309 988 179 933 q 582 1042 439 1042 q 735 1015 669 1042 q 914 1042 810 1042 q 1003 1035 947 1042 q 1144 1025 1103 1025 q 1269 1042 1218 1025 q 1254 987 1265 1029 q 1215 915 1243 944 q 1138 875 1186 885 q 1056 882 1094 875 q 961 903 1017 889 q 850 925 894 919 q 911 686 911 839 q 904 582 911 642 l 1089 582 l 1061 479 l 885 479 q 822 299 863 385 q 725 147 782 213 l 1064 147 l 1035 0 l 497 0 l 499 3 q 399 -8 447 -8 z "},"P":{"ha":796,"x_min":8,"x_max":824,"o":"m 319 883 l 525 911 l 426 447 q 549 506 493 453 q 638 636 606 558 q 669 789 669 714 q 626 925 669 872 q 497 978 583 978 q 233 889 328 978 q 138 640 138 800 q 147 569 138 589 q 157 546 157 549 q 45 577 82 546 q 8 681 8 608 q 81 853 8 769 q 268 990 154 938 q 496 1042 382 1042 q 679 1004 606 1042 q 788 905 753 967 q 824 768 824 843 q 774 592 824 678 q 633 451 725 506 q 422 396 542 396 l 415 396 l 331 0 l 131 0 l 319 883 z "},"Þ":{"ha":810,"x_min":8,"x_max":824,"o":"m 297 781 q 178 666 219 740 q 138 488 138 592 q 147 416 138 436 q 157 393 157 396 q 45 424 82 393 q 8 528 8 456 q 49 659 8 594 q 160 775 90 724 q 313 856 229 826 l 347 1014 l 553 1042 l 519 889 q 747 804 669 881 q 824 615 824 728 q 774 439 824 525 q 633 298 725 353 q 422 243 542 243 l 382 243 l 331 0 l 131 0 l 297 781 m 413 294 q 542 347 483 294 q 635 480 601 400 q 669 636 669 560 q 629 769 669 717 q 507 825 589 822 l 393 294 l 413 294 z "},"Q":{"ha":924,"x_min":22,"x_max":911,"o":"m 707 -157 q 615 -134 650 -157 q 563 -77 581 -111 q 528 11 546 -43 q 399 -8 465 -8 q 216 58 282 -8 q 150 271 150 125 q 194 549 150 394 q 324 813 239 703 q 526 922 410 922 q 599 911 568 922 q 481 763 538 875 q 390 511 425 650 q 356 265 356 372 l 356 240 q 358 206 356 217 q 444 218 408 218 q 556 181 507 218 q 676 430 626 272 q 726 735 726 588 q 712 873 726 821 q 658 951 697 925 q 549 978 619 978 q 350 934 442 978 q 203 809 258 890 q 149 621 149 728 q 156 566 149 583 q 163 546 163 549 q 58 574 93 546 q 22 663 22 601 q 101 846 22 758 q 309 988 179 933 q 582 1042 439 1042 q 833 947 756 1042 q 911 686 911 853 q 882 466 911 583 q 793 243 853 349 q 646 72 733 138 q 721 -11 682 18 q 819 -40 760 -40 q 850 -37 828 -40 q 790 -131 824 -106 q 707 -157 756 -157 m 436 104 q 489 119 467 104 q 410 167 461 167 q 369 161 388 167 q 436 104 389 104 z "},"R":{"ha":835,"x_min":8,"x_max":811,"o":"m 606 -24 q 497 69 497 -24 q 506 140 497 100 q 532 242 515 179 q 561 353 551 307 q 571 435 571 399 q 488 529 571 529 q 442 524 465 529 l 331 0 l 131 0 l 319 883 l 525 911 l 457 590 l 468 590 q 568 628 522 590 q 640 722 614 665 q 665 832 665 778 q 627 937 665 896 q 513 978 589 978 q 315 938 400 978 q 184 821 231 897 q 138 640 138 744 q 147 569 138 589 q 157 546 157 549 q 45 577 82 546 q 8 681 8 608 q 81 853 8 769 q 268 990 154 938 q 496 1042 382 1042 q 671 1011 600 1042 q 776 930 742 981 q 811 819 811 879 q 771 689 811 754 q 661 582 731 624 q 735 531 714 567 q 757 443 757 496 q 747 358 757 403 q 719 246 738 313 q 699 161 708 203 q 689 92 689 119 q 703 35 689 60 q 743 0 718 10 q 606 -24 658 -24 z "},"Ŕ":{"ha":835,"x_min":8,"x_max":811,"o":"m 513 1126 l 639 1389 l 785 1389 l 617 1126 l 513 1126 m 606 -24 q 497 69 497 -24 q 506 140 497 100 q 532 242 515 179 q 561 353 551 307 q 571 435 571 399 q 488 529 571 529 q 442 524 465 529 l 331 0 l 131 0 l 319 883 l 525 911 l 457 590 l 468 590 q 568 628 522 590 q 640 722 614 665 q 665 832 665 778 q 627 937 665 896 q 513 978 589 978 q 315 938 400 978 q 184 821 231 897 q 138 640 138 744 q 147 569 138 589 q 157 546 157 549 q 45 577 82 546 q 8 681 8 608 q 81 853 8 769 q 268 990 154 938 q 496 1042 382 1042 q 671 1011 600 1042 q 776 930 742 981 q 811 819 811 879 q 771 689 811 754 q 661 582 731 624 q 735 531 714 567 q 757 443 757 496 q 747 358 757 403 q 719 246 738 313 q 699 161 708 203 q 689 92 689 119 q 703 35 689 60 q 743 0 718 10 q 606 -24 658 -24 z "},"Ř":{"ha":835,"x_min":8,"x_max":883,"o":"m 560 1126 l 476 1389 l 521 1389 l 604 1278 l 822 1389 l 883 1389 l 589 1126 l 560 1126 m 606 -24 q 497 69 497 -24 q 506 140 497 100 q 532 242 515 179 q 561 353 551 307 q 571 435 571 399 q 488 529 571 529 q 442 524 465 529 l 331 0 l 131 0 l 319 883 l 525 911 l 457 590 l 468 590 q 568 628 522 590 q 640 722 614 665 q 665 832 665 778 q 627 937 665 896 q 513 978 589 978 q 315 938 400 978 q 184 821 231 897 q 138 640 138 744 q 147 569 138 589 q 157 546 157 549 q 45 577 82 546 q 8 681 8 608 q 81 853 8 769 q 268 990 154 938 q 496 1042 382 1042 q 671 1011 600 1042 q 776 930 742 981 q 811 819 811 879 q 771 689 811 754 q 661 582 731 624 q 735 531 714 567 q 757 443 757 496 q 747 358 757 403 q 719 246 738 313 q 699 161 708 203 q 689 92 689 119 q 703 35 689 60 q 743 0 718 10 q 606 -24 658 -24 z "},"Ŗ":{"ha":835,"x_min":8,"x_max":811,"o":"m 606 -24 q 497 69 497 -24 q 506 140 497 100 q 532 242 515 179 q 561 353 551 307 q 571 435 571 399 q 488 529 571 529 q 442 524 465 529 l 331 0 l 131 0 l 319 883 l 525 911 l 457 590 l 468 590 q 568 628 522 590 q 640 722 614 665 q 665 832 665 778 q 627 937 665 896 q 513 978 589 978 q 315 938 400 978 q 184 821 231 897 q 138 640 138 744 q 147 569 138 589 q 157 546 157 549 q 45 577 82 546 q 8 681 8 608 q 81 853 8 769 q 268 990 154 938 q 496 1042 382 1042 q 671 1011 600 1042 q 776 930 742 981 q 811 819 811 879 q 771 689 811 754 q 661 582 731 624 q 735 531 714 567 q 757 443 757 496 q 747 358 757 403 q 719 246 738 313 q 699 161 708 203 q 689 92 689 119 q 703 35 689 60 q 743 0 718 10 q 606 -24 658 -24 m 322 -318 q 359 -274 349 -289 q 369 -246 369 -258 q 363 -226 369 -236 q 347 -207 356 -215 q 326 -181 333 -193 q 319 -154 319 -169 q 341 -108 319 -126 q 397 -89 363 -89 q 451 -110 431 -89 q 471 -165 471 -131 q 437 -262 471 -211 q 350 -346 403 -312 l 322 -318 z "},"Ȑ":{"ha":835,"x_min":8,"x_max":811,"o":"m 357 1126 l 161 1389 l 307 1389 l 435 1126 l 357 1126 m 582 1126 l 386 1389 l 532 1389 l 658 1126 l 582 1126 m 606 -24 q 497 69 497 -24 q 506 140 497 100 q 532 242 515 179 q 561 353 551 307 q 571 435 571 399 q 488 529 571 529 q 442 524 465 529 l 331 0 l 131 0 l 319 883 l 525 911 l 457 590 l 468 590 q 568 628 522 590 q 640 722 614 665 q 665 832 665 778 q 627 937 665 896 q 513 978 589 978 q 315 938 400 978 q 184 821 231 897 q 138 640 138 744 q 147 569 138 589 q 157 546 157 549 q 45 577 82 546 q 8 681 8 608 q 81 853 8 769 q 268 990 154 938 q 496 1042 382 1042 q 671 1011 600 1042 q 776 930 742 981 q 811 819 811 879 q 771 689 811 754 q 661 582 731 624 q 735 531 714 567 q 757 443 757 496 q 747 358 757 403 q 719 246 738 313 q 699 161 708 203 q 689 92 689 119 q 703 35 689 60 q 743 0 718 10 q 606 -24 658 -24 z "},"Ṛ":{"ha":835,"x_min":8,"x_max":811,"o":"m 606 -24 q 497 69 497 -24 q 506 140 497 100 q 532 242 515 179 q 561 353 551 307 q 571 435 571 399 q 488 529 571 529 q 442 524 465 529 l 331 0 l 131 0 l 319 883 l 525 911 l 457 590 l 468 590 q 568 628 522 590 q 640 722 614 665 q 665 832 665 778 q 627 937 665 896 q 513 978 589 978 q 315 938 400 978 q 184 821 231 897 q 138 640 138 744 q 147 569 138 589 q 157 546 157 549 q 45 577 82 546 q 8 681 8 608 q 81 853 8 769 q 268 990 154 938 q 496 1042 382 1042 q 671 1011 600 1042 q 776 930 742 981 q 811 819 811 879 q 771 689 811 754 q 661 582 731 624 q 735 531 714 567 q 757 443 757 496 q 747 358 757 403 q 719 246 738 313 q 699 161 708 203 q 689 92 689 119 q 703 35 689 60 q 743 0 718 10 q 606 -24 658 -24 m 396 -321 q 318 -289 350 -321 q 286 -211 286 -257 q 318 -133 286 -165 q 396 -100 350 -100 q 474 -133 442 -100 q 507 -211 507 -165 q 474 -289 507 -257 q 396 -321 442 -321 z "},"Ȓ":{"ha":835,"x_min":8,"x_max":811,"o":"m 281 1142 q 329 1239 288 1194 q 435 1308 371 1283 q 574 1333 500 1333 q 731 1284 676 1333 q 785 1142 785 1235 l 661 1142 q 633 1227 661 1197 q 551 1257 604 1257 q 451 1224 494 1257 q 400 1142 407 1190 l 281 1142 m 606 -24 q 497 69 497 -24 q 506 140 497 100 q 532 242 515 179 q 561 353 551 307 q 571 435 571 399 q 488 529 571 529 q 442 524 465 529 l 331 0 l 131 0 l 319 883 l 525 911 l 457 590 l 468 590 q 568 628 522 590 q 640 722 614 665 q 665 832 665 778 q 627 937 665 896 q 513 978 589 978 q 315 938 400 978 q 184 821 231 897 q 138 640 138 744 q 147 569 138 589 q 157 546 157 549 q 45 577 82 546 q 8 681 8 608 q 81 853 8 769 q 268 990 154 938 q 496 1042 382 1042 q 671 1011 600 1042 q 776 930 742 981 q 811 819 811 879 q 771 689 811 754 q 661 582 731 624 q 735 531 714 567 q 757 443 757 496 q 747 358 757 403 q 719 246 738 313 q 699 161 708 203 q 689 92 689 119 q 703 35 689 60 q 743 0 718 10 q 606 -24 658 -24 z "},"S":{"ha":792,"x_min":47,"x_max":768,"o":"m 340 -25 q 186 6 253 -25 q 83 91 119 36 q 47 218 47 146 q 73 329 47 279 q 142 408 99 379 q 239 438 186 438 q 321 413 288 438 q 363 346 354 389 q 247 308 290 346 q 204 204 204 269 q 240 108 204 144 q 336 72 276 72 q 458 122 410 72 q 506 246 506 171 q 469 369 506 311 q 361 511 433 428 q 248 659 286 597 q 210 794 210 721 q 250 924 210 867 q 361 1015 290 982 q 521 1049 432 1049 q 701 996 633 1049 q 768 854 768 943 q 739 760 768 796 q 663 724 710 724 q 578 767 610 724 q 619 818 604 786 q 635 885 635 850 q 608 956 635 929 q 536 982 582 982 q 445 942 481 982 q 410 842 410 903 q 442 738 410 786 q 542 615 474 690 q 631 513 597 556 q 690 413 665 469 q 714 292 714 357 q 665 131 714 203 q 530 17 615 58 q 340 -25 444 -25 z "},"Ś":{"ha":792,"x_min":47,"x_max":769,"o":"m 497 1126 l 624 1389 l 769 1389 l 601 1126 l 497 1126 m 340 -25 q 186 6 253 -25 q 83 91 119 36 q 47 218 47 146 q 73 329 47 279 q 142 408 99 379 q 239 438 186 438 q 321 413 288 438 q 363 346 354 389 q 247 308 290 346 q 204 204 204 269 q 240 108 204 144 q 336 72 276 72 q 458 122 410 72 q 506 246 506 171 q 469 369 506 311 q 361 511 433 428 q 248 659 286 597 q 210 794 210 721 q 250 924 210 867 q 361 1015 290 982 q 521 1049 432 1049 q 701 996 633 1049 q 768 854 768 943 q 739 760 768 796 q 663 724 710 724 q 578 767 610 724 q 619 818 604 786 q 635 885 635 850 q 608 956 635 929 q 536 982 582 982 q 445 942 481 982 q 410 842 410 903 q 442 738 410 786 q 542 615 474 690 q 631 513 597 556 q 690 413 665 469 q 714 292 714 357 q 665 131 714 203 q 530 17 615 58 q 340 -25 444 -25 z "},"Š":{"ha":792,"x_min":47,"x_max":889,"o":"m 565 1126 l 482 1389 l 526 1389 l 610 1278 l 828 1389 l 889 1389 l 594 1126 l 565 1126 m 340 -25 q 186 6 253 -25 q 83 91 119 36 q 47 218 47 146 q 73 329 47 279 q 142 408 99 379 q 239 438 186 438 q 321 413 288 438 q 363 346 354 389 q 247 308 290 346 q 204 204 204 269 q 240 108 204 144 q 336 72 276 72 q 458 122 410 72 q 506 246 506 171 q 469 369 506 311 q 361 511 433 428 q 248 659 286 597 q 210 794 210 721 q 250 924 210 867 q 361 1015 290 982 q 521 1049 432 1049 q 701 996 633 1049 q 768 854 768 943 q 739 760 768 796 q 663 724 710 724 q 578 767 610 724 q 619 818 604 786 q 635 885 635 850 q 608 956 635 929 q 536 982 582 982 q 445 942 481 982 q 410 842 410 903 q 442 738 410 786 q 542 615 474 690 q 631 513 597 556 q 690 413 665 469 q 714 292 714 357 q 665 131 714 203 q 530 17 615 58 q 340 -25 444 -25 z "},"Ş":{"ha":792,"x_min":47,"x_max":768,"o":"m 578 767 q 619 818 604 786 q 635 885 635 850 q 608 956 635 929 q 536 982 582 982 q 445 942 481 982 q 410 842 410 903 q 442 738 410 786 q 542 615 474 690 q 631 513 597 556 q 690 413 665 469 q 714 292 714 357 q 669 138 714 207 q 547 25 625 68 q 374 -24 469 -18 l 346 -92 q 419 -78 393 -78 q 492 -103 465 -78 q 519 -169 519 -128 q 494 -242 519 -208 q 427 -294 469 -275 q 336 -314 385 -314 q 258 -297 294 -314 q 197 -250 221 -281 l 221 -212 q 267 -243 240 -232 q 321 -254 294 -254 q 371 -238 351 -254 q 390 -197 390 -222 q 374 -162 390 -175 q 332 -149 358 -149 q 264 -165 297 -149 l 258 -160 l 313 -24 q 119 49 192 -17 q 47 218 47 115 q 73 329 47 279 q 142 408 99 379 q 239 438 186 438 q 321 413 288 438 q 363 346 354 389 q 247 308 290 346 q 204 204 204 269 q 240 108 204 144 q 336 72 276 72 q 458 122 410 72 q 506 246 506 171 q 469 369 506 311 q 361 511 433 428 q 248 659 286 597 q 210 794 210 721 q 250 924 210 867 q 361 1015 290 982 q 521 1049 432 1049 q 701 996 633 1049 q 768 854 768 943 q 739 760 768 796 q 663 724 710 724 q 578 767 610 724 z "},"Ŝ":{"ha":792,"x_min":47,"x_max":768,"o":"m 347 1126 l 640 1389 l 669 1389 l 753 1126 l 710 1126 l 626 1238 l 407 1126 l 347 1126 m 340 -25 q 186 6 253 -25 q 83 91 119 36 q 47 218 47 146 q 73 329 47 279 q 142 408 99 379 q 239 438 186 438 q 321 413 288 438 q 363 346 354 389 q 247 308 290 346 q 204 204 204 269 q 240 108 204 144 q 336 72 276 72 q 458 122 410 72 q 506 246 506 171 q 469 369 506 311 q 361 511 433 428 q 248 659 286 597 q 210 794 210 721 q 250 924 210 867 q 361 1015 290 982 q 521 1049 432 1049 q 701 996 633 1049 q 768 854 768 943 q 739 760 768 796 q 663 724 710 724 q 578 767 610 724 q 619 818 604 786 q 635 885 635 850 q 608 956 635 929 q 536 982 582 982 q 445 942 481 982 q 410 842 410 903 q 442 738 410 786 q 542 615 474 690 q 631 513 597 556 q 690 413 665 469 q 714 292 714 357 q 665 131 714 203 q 530 17 615 58 q 340 -25 444 -25 z "},"Ș":{"ha":792,"x_min":47,"x_max":768,"o":"m 340 -25 q 186 6 253 -25 q 83 91 119 36 q 47 218 47 146 q 73 329 47 279 q 142 408 99 379 q 239 438 186 438 q 321 413 288 438 q 363 346 354 389 q 247 308 290 346 q 204 204 204 269 q 240 108 204 144 q 336 72 276 72 q 458 122 410 72 q 506 246 506 171 q 469 369 506 311 q 361 511 433 428 q 248 659 286 597 q 210 794 210 721 q 250 924 210 867 q 361 1015 290 982 q 521 1049 432 1049 q 701 996 633 1049 q 768 854 768 943 q 739 760 768 796 q 663 724 710 724 q 578 767 610 724 q 619 818 604 786 q 635 885 635 850 q 608 956 635 929 q 536 982 582 982 q 445 942 481 982 q 410 842 410 903 q 442 738 410 786 q 542 615 474 690 q 631 513 597 556 q 690 413 665 469 q 714 292 714 357 q 665 131 714 203 q 530 17 615 58 q 340 -25 444 -25 m 228 -318 q 265 -273 254 -287 q 275 -246 275 -258 q 268 -226 275 -236 q 253 -207 261 -215 q 232 -181 239 -193 q 225 -154 225 -169 q 247 -108 225 -126 q 303 -89 268 -89 q 356 -110 336 -89 q 376 -165 376 -131 q 342 -262 376 -211 q 256 -346 308 -312 l 228 -318 z "},"Ṡ":{"ha":792,"x_min":47,"x_max":768,"o":"m 578 1142 q 500 1173 532 1142 q 468 1250 468 1204 q 500 1329 468 1297 q 578 1361 532 1361 q 656 1329 624 1361 q 689 1250 689 1297 q 656 1173 689 1204 q 578 1142 624 1142 m 340 -25 q 186 6 253 -25 q 83 91 119 36 q 47 218 47 146 q 73 329 47 279 q 142 408 99 379 q 239 438 186 438 q 321 413 288 438 q 363 346 354 389 q 247 308 290 346 q 204 204 204 269 q 240 108 204 144 q 336 72 276 72 q 458 122 410 72 q 506 246 506 171 q 469 369 506 311 q 361 511 433 428 q 248 659 286 597 q 210 794 210 721 q 250 924 210 867 q 361 1015 290 982 q 521 1049 432 1049 q 701 996 633 1049 q 768 854 768 943 q 739 760 768 796 q 663 724 710 724 q 578 767 610 724 q 619 818 604 786 q 635 885 635 850 q 608 956 635 929 q 536 982 582 982 q 445 942 481 982 q 410 842 410 903 q 442 738 410 786 q 542 615 474 690 q 631 513 597 556 q 690 413 665 469 q 714 292 714 357 q 665 131 714 203 q 530 17 615 58 q 340 -25 444 -25 z "},"Ṣ":{"ha":792,"x_min":47,"x_max":768,"o":"m 340 -25 q 186 6 253 -25 q 83 91 119 36 q 47 218 47 146 q 73 329 47 279 q 142 408 99 379 q 239 438 186 438 q 321 413 288 438 q 363 346 354 389 q 247 308 290 346 q 204 204 204 269 q 240 108 204 144 q 336 72 276 72 q 458 122 410 72 q 506 246 506 171 q 469 369 506 311 q 361 511 433 428 q 248 659 286 597 q 210 794 210 721 q 250 924 210 867 q 361 1015 290 982 q 521 1049 432 1049 q 701 996 633 1049 q 768 854 768 943 q 739 760 768 796 q 663 724 710 724 q 578 767 610 724 q 619 818 604 786 q 635 885 635 850 q 608 956 635 929 q 536 982 582 982 q 445 942 481 982 q 410 842 410 903 q 442 738 410 786 q 542 615 474 690 q 631 513 597 556 q 690 413 665 469 q 714 292 714 357 q 665 131 714 203 q 530 17 615 58 q 340 -25 444 -25 m 281 -321 q 203 -289 235 -321 q 171 -211 171 -257 q 203 -133 171 -165 q 281 -100 235 -100 q 359 -133 326 -100 q 392 -211 392 -165 q 359 -289 392 -257 q 281 -321 326 -321 z "},"Ə":{"ha":756,"x_min":28,"x_max":749,"o":"m 244 -8 q 88 49 147 -8 q 28 196 28 106 q 99 385 28 293 q 283 533 169 476 q 515 590 396 590 q 522 703 522 625 q 485 849 522 801 q 368 896 447 896 q 254 866 304 896 q 176 779 204 836 q 144 821 156 796 q 132 875 132 846 q 170 969 132 926 q 274 1035 208 1011 q 421 1060 340 1060 q 663 962 578 1060 q 749 683 749 864 q 676 351 749 511 q 488 91 604 190 q 244 -8 371 -8 m 256 94 q 349 149 301 94 q 436 302 396 204 q 501 524 476 400 q 353 469 424 519 q 242 342 283 419 q 200 182 200 265 q 256 94 200 94 z "},"T":{"ha":668,"x_min":8,"x_max":999,"o":"m 415 919 l 399 919 q 206 858 275 919 q 138 639 138 796 q 147 567 138 588 q 157 544 157 547 q 45 576 82 544 q 8 679 8 607 q 57 859 8 778 q 212 990 106 940 q 482 1040 318 1040 q 679 1024 574 1040 q 838 1008 768 1008 q 999 1038 926 1008 q 953 904 996 947 q 825 861 910 861 q 736 868 781 861 q 610 892 692 875 l 418 0 l 218 0 l 415 919 z "},"Ŧ":{"ha":668,"x_min":8,"x_max":999,"o":"m 838 1008 q 999 1038 926 1008 q 953 904 996 947 q 825 861 910 861 q 736 868 781 861 q 610 892 692 875 l 514 444 l 740 444 l 722 375 l 499 375 l 418 0 l 218 0 l 299 375 l 110 375 l 129 444 l 314 444 l 415 919 l 399 919 q 206 858 275 919 q 138 639 138 796 q 147 567 138 588 q 157 544 157 547 q 45 576 82 544 q 8 679 8 607 q 57 859 8 778 q 212 990 106 940 q 482 1040 318 1040 q 679 1024 574 1040 q 838 1008 768 1008 z "},"Ť":{"ha":668,"x_min":8,"x_max":999,"o":"m 526 1126 l 443 1389 l 488 1389 l 571 1278 l 789 1389 l 850 1389 l 556 1126 l 526 1126 m 415 919 l 399 919 q 206 858 275 919 q 138 639 138 796 q 147 567 138 588 q 157 544 157 547 q 45 576 82 544 q 8 679 8 607 q 57 859 8 778 q 212 990 106 940 q 482 1040 318 1040 q 679 1024 574 1040 q 838 1008 768 1008 q 999 1038 926 1008 q 953 904 996 947 q 825 861 910 861 q 736 868 781 861 q 610 892 692 875 l 418 0 l 218 0 l 415 919 z "},"Ţ":{"ha":668,"x_min":8,"x_max":999,"o":"m 838 1008 q 999 1038 926 1008 q 953 904 996 947 q 825 861 910 861 q 736 868 781 861 q 610 892 692 875 l 418 0 l 363 0 l 325 -92 q 399 -78 372 -78 q 472 -103 444 -78 q 499 -169 499 -128 q 474 -242 499 -208 q 406 -294 449 -275 q 315 -314 364 -314 q 237 -297 274 -314 q 176 -250 200 -281 l 200 -212 q 247 -243 219 -232 q 300 -254 274 -254 q 350 -238 331 -254 q 369 -197 369 -222 q 353 -162 369 -175 q 311 -149 338 -149 q 243 -165 276 -149 l 238 -160 l 301 0 l 218 0 l 415 919 l 399 919 q 206 858 275 919 q 138 639 138 796 q 147 567 138 588 q 157 544 157 547 q 45 576 82 544 q 8 679 8 607 q 57 859 8 778 q 212 990 106 940 q 482 1040 318 1040 q 679 1024 574 1040 q 838 1008 768 1008 z "},"Ț":{"ha":668,"x_min":8,"x_max":999,"o":"m 415 919 l 399 919 q 206 858 275 919 q 138 639 138 796 q 147 567 138 588 q 157 544 157 547 q 45 576 82 544 q 8 679 8 607 q 57 859 8 778 q 212 990 106 940 q 482 1040 318 1040 q 679 1024 574 1040 q 838 1008 768 1008 q 999 1038 926 1008 q 953 904 996 947 q 825 861 910 861 q 736 868 781 861 q 610 892 692 875 l 418 0 l 218 0 l 415 919 m 228 -318 q 265 -273 254 -287 q 275 -246 275 -258 q 268 -226 275 -236 q 253 -207 261 -215 q 232 -181 239 -193 q 225 -154 225 -169 q 247 -108 225 -126 q 303 -89 268 -89 q 356 -110 336 -89 q 376 -165 376 -131 q 342 -262 376 -211 q 256 -346 308 -312 l 228 -318 z "},"Ṭ":{"ha":668,"x_min":8,"x_max":999,"o":"m 415 919 l 399 919 q 206 858 275 919 q 138 639 138 796 q 147 567 138 588 q 157 544 157 547 q 45 576 82 544 q 8 679 8 607 q 57 859 8 778 q 212 990 106 940 q 482 1040 318 1040 q 679 1024 574 1040 q 838 1008 768 1008 q 999 1038 926 1008 q 953 904 996 947 q 825 861 910 861 q 736 868 781 861 q 610 892 692 875 l 418 0 l 218 0 l 415 919 m 288 -321 q 210 -289 242 -321 q 178 -211 178 -257 q 210 -133 178 -165 q 288 -100 242 -100 q 366 -133 333 -100 q 399 -211 399 -165 q 366 -289 399 -257 q 288 -321 333 -321 z "},"U":{"ha":994,"x_min":-7,"x_max":1058,"o":"m 493 -10 q 285 58 356 -10 q 215 257 215 125 q 235 403 215 322 l 376 967 q 190 853 257 935 q 124 675 124 772 q 160 543 124 607 q 37 582 81 543 q -7 692 -7 621 q 66 865 -7 782 q 260 997 139 947 q 515 1047 381 1047 q 593 1040 563 1047 l 424 399 q 400 249 400 311 q 508 117 400 117 q 724 403 664 117 l 863 1044 l 1058 1044 l 924 403 q 770 94 879 199 q 493 -10 661 -10 z "},"Ú":{"ha":994,"x_min":-7,"x_max":1050,"o":"m 619 1126 l 746 1389 l 892 1389 l 724 1126 l 619 1126 m 476 -10 q 270 46 332 -10 q 208 211 208 101 q 230 396 208 292 q 299 683 251 500 l 322 778 l 368 961 q 188 848 253 931 q 122 642 122 765 q 132 569 122 589 q 142 546 142 550 q 31 576 68 546 q -7 674 -7 606 q 67 854 -7 769 q 263 990 142 939 q 518 1042 385 1042 q 585 1035 549 1042 l 524 811 q 422 424 447 531 q 397 251 397 317 q 419 158 397 189 q 493 126 442 126 q 599 155 561 126 q 674 285 638 183 q 761 610 711 386 l 854 1039 l 1050 1039 l 958 606 q 858 245 910 372 q 718 54 807 118 q 476 -10 629 -10 z "},"Ŭ":{"ha":994,"x_min":-7,"x_max":1050,"o":"m 731 1132 q 574 1181 628 1132 q 519 1325 519 1231 l 643 1325 q 672 1240 643 1269 q 753 1210 700 1210 q 853 1243 810 1210 q 904 1325 897 1276 l 1024 1325 q 975 1227 1017 1271 q 869 1158 933 1183 q 731 1132 804 1132 m 476 -10 q 270 46 332 -10 q 208 211 208 101 q 230 396 208 292 q 299 683 251 500 l 322 778 l 368 961 q 188 848 253 931 q 122 642 122 765 q 132 569 122 589 q 142 546 142 550 q 31 576 68 546 q -7 674 -7 606 q 67 854 -7 769 q 263 990 142 939 q 518 1042 385 1042 q 585 1035 549 1042 l 524 811 q 422 424 447 531 q 397 251 397 317 q 419 158 397 189 q 493 126 442 126 q 599 155 561 126 q 674 285 638 183 q 761 610 711 386 l 854 1039 l 1050 1039 l 958 606 q 858 245 910 372 q 718 54 807 118 q 476 -10 629 -10 z "},"Ǔ":{"ha":994,"x_min":-7,"x_max":1050,"o":"m 724 1126 l 639 1389 l 683 1389 l 767 1278 l 985 1389 l 1046 1389 l 753 1126 l 724 1126 m 476 -10 q 270 46 332 -10 q 208 211 208 101 q 230 396 208 292 q 299 683 251 500 l 322 778 l 368 961 q 188 848 253 931 q 122 642 122 765 q 132 569 122 589 q 142 546 142 550 q 31 576 68 546 q -7 674 -7 606 q 67 854 -7 769 q 263 990 142 939 q 518 1042 385 1042 q 585 1035 549 1042 l 524 811 q 422 424 447 531 q 397 251 397 317 q 419 158 397 189 q 493 126 442 126 q 599 155 561 126 q 674 285 638 183 q 761 610 711 386 l 854 1039 l 1050 1039 l 958 606 q 858 245 910 372 q 718 54 807 118 q 476 -10 629 -10 z "},"Û":{"ha":994,"x_min":-7,"x_max":1050,"o":"m 497 1126 l 792 1389 l 821 1389 l 904 1126 l 860 1126 l 776 1238 l 558 1126 l 497 1126 m 476 -10 q 270 46 332 -10 q 208 211 208 101 q 230 396 208 292 q 299 683 251 500 l 322 778 l 368 961 q 188 848 253 931 q 122 642 122 765 q 132 569 122 589 q 142 546 142 550 q 31 576 68 546 q -7 674 -7 606 q 67 854 -7 769 q 263 990 142 939 q 518 1042 385 1042 q 585 1035 549 1042 l 524 811 q 422 424 447 531 q 397 251 397 317 q 419 158 397 189 q 493 126 442 126 q 599 155 561 126 q 674 285 638 183 q 761 610 711 386 l 854 1039 l 1050 1039 l 958 606 q 858 245 910 372 q 718 54 807 118 q 476 -10 629 -10 z "},"Ȕ":{"ha":994,"x_min":-7,"x_max":1050,"o":"m 575 1126 l 378 1389 l 524 1389 l 651 1126 l 575 1126 m 800 1126 l 604 1389 l 750 1389 l 875 1126 l 800 1126 m 476 -10 q 270 46 332 -10 q 208 211 208 101 q 230 396 208 292 q 299 683 251 500 l 322 778 l 368 961 q 188 848 253 931 q 122 642 122 765 q 132 569 122 589 q 142 546 142 550 q 31 576 68 546 q -7 674 -7 606 q 67 854 -7 769 q 263 990 142 939 q 518 1042 385 1042 q 585 1035 549 1042 l 524 811 q 422 424 447 531 q 397 251 397 317 q 419 158 397 189 q 493 126 442 126 q 599 155 561 126 q 674 285 638 183 q 761 610 711 386 l 854 1039 l 1050 1039 l 958 606 q 858 245 910 372 q 718 54 807 118 q 476 -10 629 -10 z "},"Ü":{"ha":994,"x_min":-7,"x_max":1050,"o":"m 610 1143 q 549 1167 574 1143 q 525 1228 525 1192 q 549 1288 525 1263 q 610 1313 574 1313 q 669 1288 644 1313 q 694 1228 694 1263 q 669 1167 694 1192 q 610 1143 644 1143 m 860 1143 q 799 1167 824 1143 q 775 1228 775 1192 q 799 1288 775 1263 q 860 1313 824 1313 q 919 1288 894 1313 q 944 1228 944 1263 q 919 1167 944 1192 q 860 1143 894 1143 m 476 -10 q 270 46 332 -10 q 208 211 208 101 q 230 396 208 292 q 299 683 251 500 l 322 778 l 368 961 q 188 848 253 931 q 122 642 122 765 q 132 569 122 589 q 142 546 142 550 q 31 576 68 546 q -7 674 -7 606 q 67 854 -7 769 q 263 990 142 939 q 518 1042 385 1042 q 585 1035 549 1042 l 524 811 q 422 424 447 531 q 397 251 397 317 q 419 158 397 189 q 493 126 442 126 q 599 155 561 126 q 674 285 638 183 q 761 610 711 386 l 854 1039 l 1050 1039 l 958 606 q 858 245 910 372 q 718 54 807 118 q 476 -10 629 -10 z "},"Ǘ":{"ha":994,"x_min":-7,"x_max":1053,"o":"m 640 1126 l 767 1389 l 913 1389 l 744 1126 l 640 1126 m 542 1143 q 481 1167 506 1143 q 457 1228 457 1192 q 481 1288 457 1263 q 542 1313 506 1313 q 601 1288 576 1313 q 626 1228 626 1263 q 601 1167 626 1192 q 542 1143 576 1143 m 968 1143 q 908 1167 932 1143 q 883 1228 883 1192 q 908 1288 883 1263 q 968 1313 932 1313 q 1028 1288 1003 1313 q 1053 1228 1053 1263 q 1028 1167 1053 1192 q 968 1143 1003 1143 m 476 -10 q 270 46 332 -10 q 208 211 208 101 q 230 396 208 292 q 299 683 251 500 l 322 778 l 368 961 q 188 848 253 931 q 122 642 122 765 q 132 569 122 589 q 142 546 142 550 q 31 576 68 546 q -7 674 -7 606 q 67 854 -7 769 q 263 990 142 939 q 518 1042 385 1042 q 585 1035 549 1042 l 524 811 q 422 424 447 531 q 397 251 397 317 q 419 158 397 189 q 493 126 442 126 q 599 155 561 126 q 674 285 638 183 q 761 610 711 386 l 854 1039 l 1050 1039 l 958 606 q 858 245 910 372 q 718 54 807 118 q 476 -10 629 -10 z "},"Ǚ":{"ha":994,"x_min":-7,"x_max":1053,"o":"m 693 1157 l 619 1389 l 658 1389 l 732 1290 l 925 1389 l 979 1389 l 719 1157 l 693 1157 m 542 1143 q 481 1167 506 1143 q 457 1228 457 1192 q 481 1288 457 1263 q 542 1313 506 1313 q 601 1288 576 1313 q 626 1228 626 1263 q 601 1167 626 1192 q 542 1143 576 1143 m 968 1143 q 908 1167 932 1143 q 883 1228 883 1192 q 908 1288 883 1263 q 968 1313 932 1313 q 1028 1288 1003 1313 q 1053 1228 1053 1263 q 1028 1167 1053 1192 q 968 1143 1003 1143 m 476 -10 q 270 46 332 -10 q 208 211 208 101 q 230 396 208 292 q 299 683 251 500 l 322 778 l 368 961 q 188 848 253 931 q 122 642 122 765 q 132 569 122 589 q 142 546 142 550 q 31 576 68 546 q -7 674 -7 606 q 67 854 -7 769 q 263 990 142 939 q 518 1042 385 1042 q 585 1035 549 1042 l 524 811 q 422 424 447 531 q 397 251 397 317 q 419 158 397 189 q 493 126 442 126 q 599 155 561 126 q 674 285 638 183 q 761 610 711 386 l 854 1039 l 1050 1039 l 958 606 q 858 245 910 372 q 718 54 807 118 q 476 -10 629 -10 z "},"Ǜ":{"ha":994,"x_min":-7,"x_max":1053,"o":"m 732 1126 l 650 1389 l 796 1389 l 836 1126 l 732 1126 m 542 1143 q 481 1167 506 1143 q 457 1228 457 1192 q 481 1288 457 1263 q 542 1313 506 1313 q 601 1288 576 1313 q 626 1228 626 1263 q 601 1167 626 1192 q 542 1143 576 1143 m 968 1143 q 908 1167 932 1143 q 883 1228 883 1192 q 908 1288 883 1263 q 968 1313 932 1313 q 1028 1288 1003 1313 q 1053 1228 1053 1263 q 1028 1167 1053 1192 q 968 1143 1003 1143 m 476 -10 q 270 46 332 -10 q 208 211 208 101 q 230 396 208 292 q 299 683 251 500 l 322 778 l 368 961 q 188 848 253 931 q 122 642 122 765 q 132 569 122 589 q 142 546 142 550 q 31 576 68 546 q -7 674 -7 606 q 67 854 -7 769 q 263 990 142 939 q 518 1042 385 1042 q 585 1035 549 1042 l 524 811 q 422 424 447 531 q 397 251 397 317 q 419 158 397 189 q 493 126 442 126 q 599 155 561 126 q 674 285 638 183 q 761 610 711 386 l 854 1039 l 1050 1039 l 958 606 q 858 245 910 372 q 718 54 807 118 q 476 -10 629 -10 z "},"Ǖ":{"ha":994,"x_min":-7,"x_max":1050,"o":"m 544 1313 l 567 1389 l 1011 1389 l 990 1313 l 544 1313 m 610 1089 q 549 1113 574 1089 q 525 1174 525 1138 q 549 1233 525 1208 q 610 1258 574 1258 q 669 1233 644 1258 q 694 1174 694 1208 q 669 1113 694 1138 q 610 1089 644 1089 m 900 1089 q 840 1113 864 1089 q 815 1174 815 1138 q 840 1233 815 1208 q 900 1258 864 1258 q 960 1233 935 1258 q 985 1174 985 1208 q 960 1113 985 1138 q 900 1089 935 1089 m 476 -10 q 270 46 332 -10 q 208 211 208 101 q 230 396 208 292 q 299 683 251 500 l 322 778 l 368 961 q 188 848 253 931 q 122 642 122 765 q 132 569 122 589 q 142 546 142 550 q 31 576 68 546 q -7 674 -7 606 q 67 854 -7 769 q 263 990 142 939 q 518 1042 385 1042 q 585 1035 549 1042 l 524 811 q 422 424 447 531 q 397 251 397 317 q 419 158 397 189 q 493 126 442 126 q 599 155 561 126 q 674 285 638 183 q 761 610 711 386 l 854 1039 l 1050 1039 l 958 606 q 858 245 910 372 q 718 54 807 118 q 476 -10 629 -10 z "},"Ụ":{"ha":994,"x_min":-7,"x_max":1050,"o":"m 476 -10 q 270 46 332 -10 q 208 211 208 101 q 230 396 208 292 q 299 683 251 500 l 322 778 l 368 961 q 188 848 253 931 q 122 642 122 765 q 132 569 122 589 q 142 546 142 550 q 31 576 68 546 q -7 674 -7 606 q 67 854 -7 769 q 263 990 142 939 q 518 1042 385 1042 q 585 1035 549 1042 l 524 811 q 422 424 447 531 q 397 251 397 317 q 419 158 397 189 q 493 126 442 126 q 599 155 561 126 q 674 285 638 183 q 761 610 711 386 l 854 1039 l 1050 1039 l 958 606 q 858 245 910 372 q 718 54 807 118 q 476 -10 629 -10 m 429 -321 q 351 -289 383 -321 q 319 -211 319 -257 q 351 -133 319 -165 q 429 -100 383 -100 q 508 -133 475 -100 q 540 -211 540 -165 q 508 -289 540 -257 q 429 -321 475 -321 z "},"Ù":{"ha":994,"x_min":-7,"x_max":1050,"o":"m 644 1126 l 563 1389 l 708 1389 l 749 1126 l 644 1126 m 476 -10 q 270 46 332 -10 q 208 211 208 101 q 230 396 208 292 q 299 683 251 500 l 322 778 l 368 961 q 188 848 253 931 q 122 642 122 765 q 132 569 122 589 q 142 546 142 550 q 31 576 68 546 q -7 674 -7 606 q 67 854 -7 769 q 263 990 142 939 q 518 1042 385 1042 q 585 1035 549 1042 l 524 811 q 422 424 447 531 q 397 251 397 317 q 419 158 397 189 q 493 126 442 126 q 599 155 561 126 q 674 285 638 183 q 761 610 711 386 l 854 1039 l 1050 1039 l 958 606 q 858 245 910 372 q 718 54 807 118 q 476 -10 629 -10 z "},"Ủ":{"ha":994,"x_min":-7,"x_max":1050,"o":"m 694 1103 l 694 1225 q 756 1218 729 1218 q 803 1231 786 1218 q 821 1268 821 1244 q 756 1318 821 1318 q 672 1296 707 1318 l 636 1354 q 698 1379 660 1369 q 772 1389 736 1389 q 875 1358 835 1389 q 915 1276 915 1326 q 875 1196 915 1229 q 769 1157 835 1163 l 758 1100 l 694 1103 m 476 -10 q 270 46 332 -10 q 208 211 208 101 q 230 396 208 292 q 299 683 251 500 l 322 778 l 368 961 q 188 848 253 931 q 122 642 122 765 q 132 569 122 589 q 142 546 142 550 q 31 576 68 546 q -7 674 -7 606 q 67 854 -7 769 q 263 990 142 939 q 518 1042 385 1042 q 585 1035 549 1042 l 524 811 q 422 424 447 531 q 397 251 397 317 q 419 158 397 189 q 493 126 442 126 q 599 155 561 126 q 674 285 638 183 q 761 610 711 386 l 854 1039 l 1050 1039 l 958 606 q 858 245 910 372 q 718 54 807 118 q 476 -10 629 -10 z "},"Ư":{"ha":994,"x_min":-7,"x_max":1210,"o":"m 1210 1231 q 1158 1075 1210 1154 q 1033 961 1106 996 l 958 606 q 858 245 910 372 q 718 54 807 118 q 476 -10 629 -10 q 270 46 332 -10 q 208 211 208 101 q 230 396 208 292 q 299 683 251 500 l 322 778 l 368 961 q 188 848 253 931 q 122 642 122 765 q 132 569 122 589 q 142 546 142 550 q 31 576 68 546 q -7 674 -7 606 q 67 854 -7 769 q 263 990 142 939 q 518 1042 385 1042 q 585 1035 549 1042 l 524 811 q 422 424 447 531 q 397 251 397 317 q 419 158 397 189 q 493 126 442 126 q 599 155 561 126 q 674 285 638 183 q 761 610 711 386 l 854 1039 l 1006 1039 q 1065 1101 1049 1063 q 1081 1193 1081 1140 q 1072 1267 1081 1232 q 1154 1296 1114 1296 q 1210 1231 1210 1296 z "},"Ứ":{"ha":994,"x_min":-7,"x_max":1210,"o":"m 960 1389 l 792 1126 l 688 1126 l 814 1389 l 960 1389 m 1210 1231 q 1158 1075 1210 1154 q 1033 961 1106 996 l 958 606 q 858 245 910 372 q 718 54 807 118 q 476 -10 629 -10 q 270 46 332 -10 q 208 211 208 101 q 230 396 208 292 q 299 683 251 500 l 322 778 l 368 961 q 188 848 253 931 q 122 642 122 765 q 132 569 122 589 q 142 546 142 550 q 31 576 68 546 q -7 674 -7 606 q 67 854 -7 769 q 263 990 142 939 q 518 1042 385 1042 q 585 1035 549 1042 l 524 811 q 422 424 447 531 q 397 251 397 317 q 419 158 397 189 q 493 126 442 126 q 599 155 561 126 q 674 285 638 183 q 761 610 711 386 l 854 1039 l 1006 1039 q 1065 1101 1049 1063 q 1081 1193 1081 1140 q 1072 1267 1081 1232 q 1154 1296 1114 1296 q 1210 1231 1210 1296 z "},"Ự":{"ha":994,"x_min":-7,"x_max":1210,"o":"m 1210 1231 q 1158 1075 1210 1154 q 1033 961 1106 996 l 958 606 q 858 245 910 372 q 718 54 807 118 q 476 -10 629 -10 q 270 46 332 -10 q 208 211 208 101 q 230 396 208 292 q 299 683 251 500 l 322 778 l 368 961 q 188 848 253 931 q 122 642 122 765 q 132 569 122 589 q 142 546 142 550 q 31 576 68 546 q -7 674 -7 606 q 67 854 -7 769 q 263 990 142 939 q 518 1042 385 1042 q 585 1035 549 1042 l 524 811 q 422 424 447 531 q 397 251 397 317 q 419 158 397 189 q 493 126 442 126 q 599 155 561 126 q 674 285 638 183 q 761 610 711 386 l 854 1039 l 1006 1039 q 1065 1101 1049 1063 q 1081 1193 1081 1140 q 1072 1267 1081 1232 q 1154 1296 1114 1296 q 1210 1231 1210 1296 m 429 -100 q 508 -133 475 -100 q 540 -211 540 -165 q 508 -289 540 -257 q 429 -321 475 -321 q 351 -289 383 -321 q 319 -211 319 -257 q 351 -133 319 -165 q 429 -100 383 -100 z "},"Ừ":{"ha":994,"x_min":-7,"x_max":1210,"o":"m 749 1126 l 644 1126 l 563 1389 l 708 1389 l 749 1126 m 1210 1231 q 1158 1075 1210 1154 q 1033 961 1106 996 l 958 606 q 858 245 910 372 q 718 54 807 118 q 476 -10 629 -10 q 270 46 332 -10 q 208 211 208 101 q 230 396 208 292 q 299 683 251 500 l 322 778 l 368 961 q 188 848 253 931 q 122 642 122 765 q 132 569 122 589 q 142 546 142 550 q 31 576 68 546 q -7 674 -7 606 q 67 854 -7 769 q 263 990 142 939 q 518 1042 385 1042 q 585 1035 549 1042 l 524 811 q 422 424 447 531 q 397 251 397 317 q 419 158 397 189 q 493 126 442 126 q 599 155 561 126 q 674 285 638 183 q 761 610 711 386 l 854 1039 l 1006 1039 q 1065 1101 1049 1063 q 1081 1193 1081 1140 q 1072 1267 1081 1232 q 1154 1296 1114 1296 q 1210 1231 1210 1296 z "},"Ử":{"ha":994,"x_min":-7,"x_max":1210,"o":"m 756 1318 q 672 1296 707 1318 l 636 1354 q 698 1379 660 1369 q 772 1389 736 1389 q 875 1358 835 1389 q 915 1276 915 1326 q 875 1196 915 1229 q 769 1157 835 1163 l 758 1100 l 694 1103 l 694 1225 q 756 1218 729 1218 q 803 1231 786 1218 q 821 1268 821 1244 q 756 1318 821 1318 m 1210 1231 q 1158 1075 1210 1154 q 1033 961 1106 996 l 958 606 q 858 245 910 372 q 718 54 807 118 q 476 -10 629 -10 q 270 46 332 -10 q 208 211 208 101 q 230 396 208 292 q 299 683 251 500 l 322 778 l 368 961 q 188 848 253 931 q 122 642 122 765 q 132 569 122 589 q 142 546 142 550 q 31 576 68 546 q -7 674 -7 606 q 67 854 -7 769 q 263 990 142 939 q 518 1042 385 1042 q 585 1035 549 1042 l 524 811 q 422 424 447 531 q 397 251 397 317 q 419 158 397 189 q 493 126 442 126 q 599 155 561 126 q 674 285 638 183 q 761 610 711 386 l 854 1039 l 1006 1039 q 1065 1101 1049 1063 q 1081 1193 1081 1140 q 1072 1267 1081 1232 q 1154 1296 1114 1296 q 1210 1231 1210 1296 z "},"Ữ":{"ha":994,"x_min":-7,"x_max":1210,"o":"m 1210 1231 q 1158 1075 1210 1154 q 1033 961 1106 996 l 958 606 q 858 245 910 372 q 718 54 807 118 q 476 -10 629 -10 q 270 46 332 -10 q 208 211 208 101 q 230 396 208 292 q 299 683 251 500 l 322 778 l 368 961 q 188 848 253 931 q 122 642 122 765 q 132 569 122 589 q 142 546 142 550 q 31 576 68 546 q -7 674 -7 606 q 67 854 -7 769 q 263 990 142 939 q 518 1042 385 1042 q 585 1035 549 1042 l 524 811 q 422 424 447 531 q 397 251 397 317 q 419 158 397 189 q 493 126 442 126 q 599 155 561 126 q 674 285 638 183 q 761 610 711 386 l 854 1039 l 1006 1039 q 1065 1101 1049 1063 q 1081 1193 1081 1140 q 1072 1267 1081 1232 q 1154 1296 1114 1296 q 1210 1231 1210 1296 m 568 1189 q 476 1153 517 1189 l 468 1156 q 561 1257 501 1222 q 700 1292 621 1292 q 765 1285 736 1292 q 828 1267 793 1279 q 929 1246 888 1246 q 1017 1278 985 1246 l 1025 1276 q 984 1212 1018 1244 q 901 1158 950 1179 q 801 1138 853 1138 q 740 1144 769 1138 q 674 1165 711 1151 q 617 1183 642 1176 q 568 1189 593 1189 z "},"Ű":{"ha":994,"x_min":-7,"x_max":1081,"o":"m 583 1125 l 710 1388 l 856 1388 l 660 1125 l 583 1125 m 808 1125 l 935 1388 l 1081 1388 l 885 1125 l 808 1125 m 476 -10 q 270 46 332 -10 q 208 211 208 101 q 230 396 208 292 q 299 683 251 500 l 322 778 l 368 961 q 188 848 253 931 q 122 642 122 765 q 132 569 122 589 q 142 546 142 550 q 31 576 68 546 q -7 674 -7 606 q 67 854 -7 769 q 263 990 142 939 q 518 1042 385 1042 q 585 1035 549 1042 l 524 811 q 422 424 447 531 q 397 251 397 317 q 419 158 397 189 q 493 126 442 126 q 599 155 561 126 q 674 285 638 183 q 761 610 711 386 l 854 1039 l 1050 1039 l 958 606 q 858 245 910 372 q 718 54 807 118 q 476 -10 629 -10 z "},"Ȗ":{"ha":994,"x_min":-7,"x_max":1050,"o":"m 483 1142 q 532 1239 490 1194 q 638 1308 574 1283 q 776 1333 703 1333 q 933 1284 879 1333 q 988 1142 988 1235 l 864 1142 q 835 1227 864 1197 q 754 1257 807 1257 q 653 1224 697 1257 q 603 1142 610 1190 l 483 1142 m 476 -10 q 270 46 332 -10 q 208 211 208 101 q 230 396 208 292 q 299 683 251 500 l 322 778 l 368 961 q 188 848 253 931 q 122 642 122 765 q 132 569 122 589 q 142 546 142 550 q 31 576 68 546 q -7 674 -7 606 q 67 854 -7 769 q 263 990 142 939 q 518 1042 385 1042 q 585 1035 549 1042 l 524 811 q 422 424 447 531 q 397 251 397 317 q 419 158 397 189 q 493 126 442 126 q 599 155 561 126 q 674 285 638 183 q 761 610 711 386 l 854 1039 l 1050 1039 l 958 606 q 858 245 910 372 q 718 54 807 118 q 476 -10 629 -10 z "},"Ū":{"ha":994,"x_min":-7,"x_max":1050,"o":"m 511 1179 l 533 1282 l 978 1282 l 957 1179 l 511 1179 m 476 -10 q 270 46 332 -10 q 208 211 208 101 q 230 396 208 292 q 299 683 251 500 l 322 778 l 368 961 q 188 848 253 931 q 122 642 122 765 q 132 569 122 589 q 142 546 142 550 q 31 576 68 546 q -7 674 -7 606 q 67 854 -7 769 q 263 990 142 939 q 518 1042 385 1042 q 585 1035 549 1042 l 524 811 q 422 424 447 531 q 397 251 397 317 q 419 158 397 189 q 493 126 442 126 q 599 155 561 126 q 674 285 638 183 q 761 610 711 386 l 854 1039 l 1050 1039 l 958 606 q 858 245 910 372 q 718 54 807 118 q 476 -10 629 -10 z "},"Ų":{"ha":994,"x_min":-7,"x_max":1050,"o":"m 749 1126 l 644 1126 l 563 1389 l 708 1389 l 749 1126 m 1050 1039 l 958 606 q 862 253 911 379 q 728 62 813 128 q 503 -10 644 -4 q 468 -60 481 -31 q 456 -122 456 -89 q 476 -184 456 -161 q 532 -207 497 -207 q 632 -153 585 -207 l 656 -185 q 582 -265 633 -232 q 478 -297 531 -297 q 379 -260 418 -297 q 340 -168 340 -224 q 432 -8 340 -78 q 260 55 313 0 q 208 211 208 110 q 230 396 208 292 q 299 683 251 500 l 322 778 l 368 961 q 188 848 253 931 q 122 642 122 765 q 132 569 122 589 q 142 546 142 550 q 31 576 68 546 q -7 674 -7 606 q 67 854 -7 769 q 263 990 142 939 q 518 1042 385 1042 q 585 1035 549 1042 l 524 811 q 422 424 447 531 q 397 251 397 317 q 419 158 397 189 q 493 126 442 126 q 599 155 561 126 q 674 285 638 183 q 761 610 711 386 l 854 1039 l 1050 1039 z "},"Ů":{"ha":994,"x_min":-7,"x_max":1050,"o":"m 724 1121 q 653 1149 679 1121 q 626 1218 626 1176 q 657 1303 626 1263 q 744 1344 688 1344 q 819 1315 793 1344 q 844 1238 844 1285 q 815 1154 844 1188 q 724 1121 785 1121 m 729 1169 q 777 1186 761 1169 q 793 1233 793 1203 q 785 1281 793 1263 q 747 1299 776 1299 q 698 1275 714 1299 q 682 1221 682 1251 q 729 1169 682 1169 m 476 -10 q 270 46 332 -10 q 208 211 208 101 q 230 396 208 292 q 299 683 251 500 l 322 778 l 368 961 q 188 848 253 931 q 122 642 122 765 q 132 569 122 589 q 142 546 142 550 q 31 576 68 546 q -7 674 -7 606 q 67 854 -7 769 q 263 990 142 939 q 518 1042 385 1042 q 585 1035 549 1042 l 524 811 q 422 424 447 531 q 397 251 397 317 q 419 158 397 189 q 493 126 442 126 q 599 155 561 126 q 674 285 638 183 q 761 610 711 386 l 854 1039 l 1050 1039 l 958 606 q 858 245 910 372 q 718 54 807 118 q 476 -10 629 -10 z "},"Ũ":{"ha":994,"x_min":-7,"x_max":1050,"o":"m 801 1138 q 740 1144 769 1138 q 674 1165 711 1151 q 617 1183 642 1176 q 568 1189 593 1189 q 476 1153 517 1189 l 468 1156 q 561 1257 501 1222 q 700 1292 621 1292 q 765 1285 736 1292 q 828 1267 793 1279 q 929 1246 888 1246 q 1017 1278 985 1246 l 1025 1276 q 984 1212 1018 1244 q 901 1158 950 1179 q 801 1138 853 1138 m 476 -10 q 270 46 332 -10 q 208 211 208 101 q 230 396 208 292 q 299 683 251 500 l 322 778 l 368 961 q 188 848 253 931 q 122 642 122 765 q 132 569 122 589 q 142 546 142 550 q 31 576 68 546 q -7 674 -7 606 q 67 854 -7 769 q 263 990 142 939 q 518 1042 385 1042 q 585 1035 549 1042 l 524 811 q 422 424 447 531 q 397 251 397 317 q 419 158 397 189 q 493 126 442 126 q 599 155 561 126 q 674 285 638 183 q 761 610 711 386 l 854 1039 l 1050 1039 l 958 606 q 858 245 910 372 q 718 54 807 118 q 476 -10 629 -10 z "},"V":{"ha":854,"x_min":8,"x_max":953,"o":"m 344 949 q 192 833 246 911 q 138 640 138 754 q 147 569 138 589 q 157 546 157 549 q 45 577 82 546 q 8 681 8 608 q 81 853 8 769 q 268 990 154 938 q 496 1042 382 1042 q 551 1039 515 1042 l 564 185 l 856 1035 l 953 1035 l 567 0 l 367 0 l 344 949 z "},"W":{"ha":1336,"x_min":8,"x_max":1433,"o":"m 344 949 q 192 833 246 911 q 138 640 138 754 q 147 569 138 589 q 157 546 157 549 q 45 577 82 546 q 8 681 8 608 q 81 853 8 769 q 268 990 154 938 q 496 1042 382 1042 q 551 1039 515 1042 l 564 185 l 856 1035 l 1032 1035 l 1044 185 l 1336 1035 l 1433 1035 l 1047 0 l 847 0 l 831 707 l 567 0 l 367 0 l 344 949 z "},"Ẃ":{"ha":1336,"x_min":8,"x_max":1433,"o":"m 906 1126 l 1032 1389 l 1178 1389 l 1010 1126 l 906 1126 m 344 949 q 192 833 246 911 q 138 640 138 754 q 147 569 138 589 q 157 546 157 549 q 45 577 82 546 q 8 681 8 608 q 81 853 8 769 q 268 990 154 938 q 496 1042 382 1042 q 551 1039 515 1042 l 564 185 l 856 1035 l 1032 1035 l 1044 185 l 1336 1035 l 1433 1035 l 1047 0 l 847 0 l 831 707 l 567 0 l 367 0 l 344 949 z "},"Ŵ":{"ha":1336,"x_min":8,"x_max":1433,"o":"m 742 1126 l 1036 1389 l 1065 1389 l 1149 1126 l 1104 1126 l 1021 1238 l 803 1126 l 742 1126 m 344 949 q 192 833 246 911 q 138 640 138 754 q 147 569 138 589 q 157 546 157 549 q 45 577 82 546 q 8 681 8 608 q 81 853 8 769 q 268 990 154 938 q 496 1042 382 1042 q 551 1039 515 1042 l 564 185 l 856 1035 l 1032 1035 l 1044 185 l 1336 1035 l 1433 1035 l 1047 0 l 847 0 l 831 707 l 567 0 l 367 0 l 344 949 z "},"Ẅ":{"ha":1336,"x_min":8,"x_max":1433,"o":"m 825 1143 q 765 1167 789 1143 q 740 1228 740 1192 q 765 1288 740 1263 q 825 1313 789 1313 q 883 1288 858 1313 q 908 1228 908 1263 q 883 1167 908 1192 q 825 1143 858 1143 m 1074 1143 q 1013 1167 1038 1143 q 989 1228 989 1192 q 1014 1288 989 1263 q 1074 1313 1039 1313 q 1133 1288 1108 1313 q 1158 1228 1158 1263 q 1134 1167 1158 1192 q 1074 1143 1110 1143 m 344 949 q 192 833 246 911 q 138 640 138 754 q 147 569 138 589 q 157 546 157 549 q 45 577 82 546 q 8 681 8 608 q 81 853 8 769 q 268 990 154 938 q 496 1042 382 1042 q 551 1039 515 1042 l 564 185 l 856 1035 l 1032 1035 l 1044 185 l 1336 1035 l 1433 1035 l 1047 0 l 847 0 l 831 707 l 567 0 l 367 0 l 344 949 z "},"Ẁ":{"ha":1336,"x_min":8,"x_max":1433,"o":"m 886 1126 l 804 1389 l 950 1389 l 989 1126 l 886 1126 m 344 949 q 192 833 246 911 q 138 640 138 754 q 147 569 138 589 q 157 546 157 549 q 45 577 82 546 q 8 681 8 608 q 81 853 8 769 q 268 990 154 938 q 496 1042 382 1042 q 551 1039 515 1042 l 564 185 l 856 1035 l 1032 1035 l 1044 185 l 1336 1035 l 1433 1035 l 1047 0 l 847 0 l 831 707 l 567 0 l 367 0 l 344 949 z "},"X":{"ha":861,"x_min":8,"x_max":869,"o":"m 447 461 l 344 949 q 192 833 246 911 q 138 640 138 754 q 147 569 138 589 q 157 546 157 549 q 45 577 82 546 q 8 681 8 608 q 81 853 8 769 q 268 990 154 938 q 496 1042 382 1042 q 551 1039 515 1042 l 611 750 l 772 1035 l 869 1035 l 636 631 l 767 0 l 546 0 l 472 347 l 271 0 l 186 0 l 447 461 z "},"Y":{"ha":861,"x_min":8,"x_max":969,"o":"m 478 428 l 344 949 q 192 833 246 911 q 138 640 138 754 q 147 569 138 589 q 157 546 157 549 q 45 577 82 546 q 8 681 8 608 q 81 853 8 769 q 268 990 154 938 q 496 1042 382 1042 q 551 1039 515 1042 l 672 542 l 878 1035 l 969 1035 l 700 428 l 608 0 l 386 0 l 478 428 z "},"Ý":{"ha":861,"x_min":8,"x_max":969,"o":"m 683 1126 l 810 1389 l 956 1389 l 788 1126 l 683 1126 m 478 428 l 344 949 q 192 833 246 911 q 138 640 138 754 q 147 569 138 589 q 157 546 157 549 q 45 577 82 546 q 8 681 8 608 q 81 853 8 769 q 268 990 154 938 q 496 1042 382 1042 q 551 1039 515 1042 l 672 542 l 878 1035 l 969 1035 l 700 428 l 608 0 l 386 0 l 478 428 z "},"Ŷ":{"ha":861,"x_min":8,"x_max":969,"o":"m 478 1126 l 772 1389 l 801 1389 l 885 1126 l 839 1126 l 756 1238 l 539 1126 l 478 1126 m 478 428 l 344 949 q 192 833 246 911 q 138 640 138 754 q 147 569 138 589 q 157 546 157 549 q 45 577 82 546 q 8 681 8 608 q 81 853 8 769 q 268 990 154 938 q 496 1042 382 1042 q 551 1039 515 1042 l 672 542 l 878 1035 l 969 1035 l 700 428 l 608 0 l 386 0 l 478 428 z "},"Ÿ":{"ha":861,"x_min":8,"x_max":969,"o":"m 611 1143 q 551 1167 575 1143 q 526 1228 526 1192 q 551 1288 526 1263 q 611 1313 575 1313 q 671 1288 646 1313 q 696 1228 696 1263 q 671 1167 696 1192 q 611 1143 646 1143 m 861 1143 q 801 1167 825 1143 q 776 1228 776 1192 q 801 1288 776 1263 q 861 1313 825 1313 q 921 1288 896 1313 q 946 1228 946 1263 q 921 1167 946 1192 q 861 1143 896 1143 m 478 428 l 344 949 q 192 833 246 911 q 138 640 138 754 q 147 569 138 589 q 157 546 157 549 q 45 577 82 546 q 8 681 8 608 q 81 853 8 769 q 268 990 154 938 q 496 1042 382 1042 q 551 1039 515 1042 l 672 542 l 878 1035 l 969 1035 l 700 428 l 608 0 l 386 0 l 478 428 z "},"Ẏ":{"ha":861,"x_min":8,"x_max":969,"o":"m 726 1142 q 649 1173 681 1142 q 617 1250 617 1204 q 649 1329 617 1297 q 726 1361 681 1361 q 806 1328 772 1361 q 839 1250 839 1296 q 806 1173 839 1204 q 726 1142 772 1142 m 478 428 l 344 949 q 192 833 246 911 q 138 640 138 754 q 147 569 138 589 q 157 546 157 549 q 45 577 82 546 q 8 681 8 608 q 81 853 8 769 q 268 990 154 938 q 496 1042 382 1042 q 551 1039 515 1042 l 672 542 l 878 1035 l 969 1035 l 700 428 l 608 0 l 386 0 l 478 428 z "},"Ỵ":{"ha":861,"x_min":8,"x_max":969,"o":"m 478 428 l 344 949 q 192 833 246 911 q 138 640 138 754 q 147 569 138 589 q 157 546 157 549 q 45 577 82 546 q 8 681 8 608 q 81 853 8 769 q 268 990 154 938 q 496 1042 382 1042 q 551 1039 515 1042 l 672 542 l 878 1035 l 969 1035 l 700 428 l 608 0 l 386 0 l 478 428 m 457 -321 q 379 -289 411 -321 q 347 -211 347 -257 q 379 -133 347 -165 q 457 -100 411 -100 q 535 -133 503 -100 q 568 -211 568 -165 q 535 -289 568 -257 q 457 -321 503 -321 z "},"Ỳ":{"ha":861,"x_min":8,"x_max":969,"o":"m 668 1126 l 586 1389 l 732 1389 l 772 1126 l 668 1126 m 478 428 l 344 949 q 192 833 246 911 q 138 640 138 754 q 147 569 138 589 q 157 546 157 549 q 45 577 82 546 q 8 681 8 608 q 81 853 8 769 q 268 990 154 938 q 496 1042 382 1042 q 551 1039 515 1042 l 672 542 l 878 1035 l 969 1035 l 700 428 l 608 0 l 386 0 l 478 428 z "},"Ỷ":{"ha":861,"x_min":8,"x_max":969,"o":"m 694 1103 l 694 1225 q 756 1218 729 1218 q 803 1231 786 1218 q 821 1268 821 1244 q 756 1318 821 1318 q 672 1296 707 1318 l 636 1354 q 698 1379 660 1369 q 772 1389 736 1389 q 875 1358 835 1389 q 915 1276 915 1326 q 875 1196 915 1229 q 769 1157 835 1163 l 758 1100 l 694 1103 m 478 428 l 344 949 q 192 833 246 911 q 138 640 138 754 q 147 569 138 589 q 157 546 157 549 q 45 577 82 546 q 8 681 8 608 q 81 853 8 769 q 268 990 154 938 q 496 1042 382 1042 q 551 1039 515 1042 l 672 542 l 878 1035 l 969 1035 l 700 428 l 608 0 l 386 0 l 478 428 z "},"Ỹ":{"ha":861,"x_min":8,"x_max":985,"o":"m 761 1138 q 701 1144 729 1138 q 635 1165 674 1151 q 574 1183 594 1178 q 528 1189 553 1189 q 436 1153 476 1189 l 429 1156 q 521 1257 461 1222 q 661 1292 581 1292 q 724 1285 696 1292 q 788 1267 753 1279 q 842 1251 819 1256 q 890 1246 864 1246 q 978 1278 943 1246 l 985 1276 q 945 1212 979 1244 q 862 1158 911 1179 q 761 1138 813 1138 m 478 428 l 344 949 q 192 833 246 911 q 138 640 138 754 q 147 569 138 589 q 157 546 157 549 q 45 577 82 546 q 8 681 8 608 q 81 853 8 769 q 268 990 154 938 q 496 1042 382 1042 q 551 1039 515 1042 l 672 542 l 878 1035 l 969 1035 l 700 428 l 608 0 l 386 0 l 478 428 z "},"Z":{"ha":753,"x_min":15,"x_max":767,"o":"m 501 967 q 454 968 472 967 l 376 969 q 249 939 249 969 q 265 928 257 939 q 272 894 272 917 q 247 834 272 853 q 190 815 221 815 q 136 840 153 815 q 119 897 119 864 q 165 998 119 954 q 290 1042 211 1042 l 767 1042 l 288 90 q 347 89 326 90 l 421 88 q 516 94 479 88 q 565 118 553 100 q 548 128 556 118 q 540 161 540 139 q 565 222 540 203 q 624 242 590 242 q 677 218 660 242 q 694 161 694 194 q 672 88 694 125 q 609 25 650 50 q 517 0 568 0 l 15 0 l 501 967 z "},"Ź":{"ha":753,"x_min":15,"x_max":776,"o":"m 504 1126 l 631 1389 l 776 1389 l 608 1126 l 504 1126 m 501 967 q 454 968 472 967 l 376 969 q 249 939 249 969 q 265 928 257 939 q 272 894 272 917 q 247 834 272 853 q 190 815 221 815 q 136 840 153 815 q 119 897 119 864 q 165 998 119 954 q 290 1042 211 1042 l 767 1042 l 288 90 q 347 89 326 90 l 421 88 q 516 94 479 88 q 565 118 553 100 q 548 128 556 118 q 540 161 540 139 q 565 222 540 203 q 624 242 590 242 q 677 218 660 242 q 694 161 694 194 q 672 88 694 125 q 609 25 650 50 q 517 0 568 0 l 15 0 l 501 967 z "},"Ž":{"ha":753,"x_min":15,"x_max":829,"o":"m 506 1126 l 422 1389 l 467 1389 l 550 1278 l 768 1389 l 829 1389 l 535 1126 l 506 1126 m 501 967 q 454 968 472 967 l 376 969 q 249 939 249 969 q 265 928 257 939 q 272 894 272 917 q 247 834 272 853 q 190 815 221 815 q 136 840 153 815 q 119 897 119 864 q 165 998 119 954 q 290 1042 211 1042 l 767 1042 l 288 90 q 347 89 326 90 l 421 88 q 516 94 479 88 q 565 118 553 100 q 548 128 556 118 q 540 161 540 139 q 565 222 540 203 q 624 242 590 242 q 677 218 660 242 q 694 161 694 194 q 672 88 694 125 q 609 25 650 50 q 517 0 568 0 l 15 0 l 501 967 z "},"Ż":{"ha":736,"x_min":15,"x_max":767,"o":"m 500 1143 q 440 1167 464 1143 q 415 1228 415 1192 q 440 1288 415 1263 q 500 1313 464 1313 q 560 1288 535 1313 q 585 1228 585 1263 q 560 1167 585 1192 q 500 1143 535 1143 m 501 967 q 454 968 472 967 l 376 969 q 249 939 249 969 q 265 928 257 939 q 272 894 272 917 q 247 834 272 853 q 190 815 221 815 q 136 840 153 815 q 119 897 119 864 q 165 998 119 954 q 290 1042 211 1042 l 767 1042 l 288 90 q 347 89 326 90 l 421 88 q 516 94 479 88 q 565 118 553 100 q 548 128 556 118 q 540 161 540 139 q 565 222 540 203 q 624 242 590 242 q 677 218 660 242 q 694 161 694 194 q 672 88 694 125 q 609 25 650 50 q 517 0 568 0 l 15 0 l 501 967 z "},"Ẓ":{"ha":753,"x_min":15,"x_max":776,"o":"m 504 1126 l 631 1389 l 776 1389 l 608 1126 l 504 1126 m 501 967 q 454 968 472 967 l 376 969 q 249 939 249 969 q 265 928 257 939 q 272 894 272 917 q 247 834 272 853 q 190 815 221 815 q 136 840 153 815 q 119 897 119 864 q 165 998 119 954 q 290 1042 211 1042 l 767 1042 l 288 90 q 347 89 326 90 l 421 88 q 516 94 479 88 q 565 118 553 100 q 548 128 556 118 q 540 161 540 139 q 565 222 540 203 q 624 242 590 242 q 677 218 660 242 q 694 161 694 194 q 672 88 694 125 q 609 25 650 50 q 517 0 568 0 l 15 0 l 501 967 m 293 -321 q 215 -289 247 -321 q 183 -211 183 -257 q 215 -133 183 -165 q 293 -100 247 -100 q 372 -133 339 -100 q 406 -211 406 -165 q 372 -289 406 -257 q 293 -321 339 -321 z "},"a":{"ha":731,"x_min":-18,"x_max":789,"o":"m 167 -8 q 35 46 88 -8 q -18 215 -18 100 q 23 431 -18 318 q 145 623 64 544 q 339 701 226 701 q 424 682 396 701 q 451 631 451 663 l 451 621 l 467 694 l 667 694 l 567 222 q 561 178 561 201 q 618 118 561 118 q 685 154 657 118 q 731 249 714 190 l 789 249 q 662 45 738 99 q 510 -8 586 -8 q 416 24 451 -8 q 374 119 381 57 q 284 27 333 63 q 167 -8 235 -8 m 257 126 q 326 159 292 126 q 372 249 360 192 l 439 563 q 425 598 439 581 q 382 615 411 615 q 282 551 326 615 q 213 395 238 486 q 188 235 188 304 q 208 146 188 165 q 257 126 228 126 z "},"á":{"ha":731,"x_min":-18,"x_max":789,"o":"m 340 779 l 467 1042 l 613 1042 l 444 779 l 340 779 m 167 -8 q 35 46 88 -8 q -18 215 -18 100 q 23 431 -18 318 q 145 623 64 544 q 339 701 226 701 q 424 682 396 701 q 451 631 451 663 l 451 621 l 467 694 l 667 694 l 567 222 q 561 178 561 201 q 618 118 561 118 q 685 154 657 118 q 731 249 714 190 l 789 249 q 662 45 738 99 q 510 -8 586 -8 q 416 24 451 -8 q 374 119 381 57 q 284 27 333 63 q 167 -8 235 -8 m 257 126 q 326 159 292 126 q 372 249 360 192 l 439 563 q 425 598 439 581 q 382 615 411 615 q 282 551 326 615 q 213 395 238 486 q 188 235 188 304 q 208 146 188 165 q 257 126 228 126 z "},"ă":{"ha":731,"x_min":-18,"x_max":789,"o":"m 421 818 q 264 867 318 818 q 210 1011 210 917 l 333 1011 q 362 926 333 956 q 443 896 390 896 q 544 929 500 896 q 594 1011 588 963 l 714 1011 q 665 913 707 957 q 559 844 624 869 q 421 818 494 818 m 167 -8 q 35 46 88 -8 q -18 215 -18 100 q 23 431 -18 318 q 145 623 64 544 q 339 701 226 701 q 424 682 396 701 q 451 631 451 663 l 451 621 l 467 694 l 667 694 l 567 222 q 561 178 561 201 q 618 118 561 118 q 685 154 657 118 q 731 249 714 190 l 789 249 q 662 45 738 99 q 510 -8 586 -8 q 416 24 451 -8 q 374 119 381 57 q 284 27 333 63 q 167 -8 235 -8 m 257 126 q 326 159 292 126 q 372 249 360 192 l 439 563 q 425 598 439 581 q 382 615 411 615 q 282 551 326 615 q 213 395 238 486 q 188 235 188 304 q 208 146 188 165 q 257 126 228 126 z "},"ắ":{"ha":731,"x_min":-18,"x_max":789,"o":"m 415 963 l 507 1175 l 621 1175 l 493 963 l 415 963 m 426 815 q 287 859 335 815 q 239 986 239 903 l 349 986 q 374 911 349 938 q 446 885 399 885 q 535 914 496 885 q 579 986 574 943 l 685 986 q 641 900 678 939 q 548 838 604 861 q 426 815 492 815 m 167 -8 q 35 46 88 -8 q -18 215 -18 100 q 23 431 -18 318 q 145 623 64 544 q 339 701 226 701 q 424 682 396 701 q 451 631 451 663 l 451 621 l 467 694 l 667 694 l 567 222 q 561 178 561 201 q 618 118 561 118 q 685 154 657 118 q 731 249 714 190 l 789 249 q 662 45 738 99 q 510 -8 586 -8 q 416 24 451 -8 q 374 119 381 57 q 284 27 333 63 q 167 -8 235 -8 m 257 126 q 326 159 292 126 q 372 249 360 192 l 439 563 q 425 598 439 581 q 382 615 411 615 q 282 551 326 615 q 213 395 238 486 q 188 235 188 304 q 208 146 188 165 q 257 126 228 126 z "},"ặ":{"ha":731,"x_min":-18,"x_max":789,"o":"m 421 818 q 264 867 318 818 q 210 1011 210 917 l 333 1011 q 362 926 333 956 q 443 896 390 896 q 544 929 500 896 q 594 1011 588 963 l 714 1011 q 665 913 707 957 q 559 844 624 869 q 421 818 494 818 m 167 -8 q 35 46 88 -8 q -18 215 -18 100 q 23 431 -18 318 q 145 623 64 544 q 339 701 226 701 q 424 682 396 701 q 451 631 451 663 l 451 621 l 467 694 l 667 694 l 567 222 q 561 178 561 201 q 618 118 561 118 q 685 154 657 118 q 731 249 714 190 l 789 249 q 662 45 738 99 q 510 -8 586 -8 q 416 24 451 -8 q 374 119 381 57 q 284 27 333 63 q 167 -8 235 -8 m 257 126 q 326 159 292 126 q 372 249 360 192 l 439 563 q 425 598 439 581 q 382 615 411 615 q 282 551 326 615 q 213 395 238 486 q 188 235 188 304 q 208 146 188 165 q 257 126 228 126 m 232 -321 q 155 -289 188 -321 q 122 -211 122 -257 q 155 -133 122 -165 q 232 -100 188 -100 q 311 -133 278 -100 q 344 -211 344 -165 q 311 -289 344 -257 q 232 -321 278 -321 z "},"ằ":{"ha":731,"x_min":-18,"x_max":789,"o":"m 431 963 l 357 1174 l 467 1174 l 503 963 l 431 963 m 426 815 q 287 859 335 815 q 239 986 239 903 l 349 986 q 374 911 349 938 q 446 885 399 885 q 535 914 496 885 q 579 986 574 943 l 685 986 q 641 900 678 939 q 548 838 604 861 q 426 815 492 815 m 167 -8 q 35 46 88 -8 q -18 215 -18 100 q 23 431 -18 318 q 145 623 64 544 q 339 701 226 701 q 424 682 396 701 q 451 631 451 663 l 451 621 l 467 694 l 667 694 l 567 222 q 561 178 561 201 q 618 118 561 118 q 685 154 657 118 q 731 249 714 190 l 789 249 q 662 45 738 99 q 510 -8 586 -8 q 416 24 451 -8 q 374 119 381 57 q 284 27 333 63 q 167 -8 235 -8 m 257 126 q 326 159 292 126 q 372 249 360 192 l 439 563 q 425 598 439 581 q 382 615 411 615 q 282 551 326 615 q 213 395 238 486 q 188 235 188 304 q 208 146 188 165 q 257 126 228 126 z "},"ẳ":{"ha":731,"x_min":-18,"x_max":789,"o":"m 422 965 l 422 1050 q 465 1044 443 1044 q 513 1082 513 1044 q 465 1117 513 1117 q 407 1100 432 1117 l 382 1140 q 424 1158 399 1151 q 476 1165 450 1165 q 550 1144 521 1165 q 579 1088 579 1122 q 550 1029 579 1053 q 474 1003 521 1006 l 469 963 l 422 965 m 426 815 q 287 859 335 815 q 239 986 239 903 l 349 986 q 374 911 349 938 q 446 885 399 885 q 535 914 496 885 q 579 986 574 943 l 685 986 q 641 900 678 939 q 548 838 604 861 q 426 815 492 815 m 167 -8 q 35 46 88 -8 q -18 215 -18 100 q 23 431 -18 318 q 145 623 64 544 q 339 701 226 701 q 424 682 396 701 q 451 631 451 663 l 451 621 l 467 694 l 667 694 l 567 222 q 561 178 561 201 q 618 118 561 118 q 685 154 657 118 q 731 249 714 190 l 789 249 q 662 45 738 99 q 510 -8 586 -8 q 416 24 451 -8 q 374 119 381 57 q 284 27 333 63 q 167 -8 235 -8 m 257 126 q 326 159 292 126 q 372 249 360 192 l 439 563 q 425 598 439 581 q 382 615 411 615 q 282 551 326 615 q 213 395 238 486 q 188 235 188 304 q 208 146 188 165 q 257 126 228 126 z "},"ẵ":{"ha":731,"x_min":-18,"x_max":789,"o":"m 547 1089 q 460 1108 513 1089 q 388 1125 413 1125 q 324 1100 353 1125 l 318 1101 q 381 1172 340 1147 q 478 1196 422 1196 q 567 1179 517 1196 q 636 1164 607 1164 q 696 1186 676 1164 l 703 1186 q 649 1119 696 1150 q 547 1089 601 1089 m 433 815 q 294 859 342 815 q 246 986 246 903 l 356 986 q 381 911 356 938 q 453 885 406 885 q 542 914 503 885 q 586 986 581 943 l 692 986 q 648 900 685 939 q 555 838 611 861 q 433 815 499 815 m 167 -8 q 35 46 88 -8 q -18 215 -18 100 q 23 431 -18 318 q 145 623 64 544 q 339 701 226 701 q 424 682 396 701 q 451 631 451 663 l 451 621 l 467 694 l 667 694 l 567 222 q 561 178 561 201 q 618 118 561 118 q 685 154 657 118 q 731 249 714 190 l 789 249 q 662 45 738 99 q 510 -8 586 -8 q 416 24 451 -8 q 374 119 381 57 q 284 27 333 63 q 167 -8 235 -8 m 257 126 q 326 159 292 126 q 372 249 360 192 l 439 563 q 425 598 439 581 q 382 615 411 615 q 282 551 326 615 q 213 395 238 486 q 188 235 188 304 q 208 146 188 165 q 257 126 228 126 z "},"ǎ":{"ha":731,"x_min":-18,"x_max":789,"o":"m 410 779 l 326 1042 l 371 1042 l 454 931 l 672 1042 l 733 1042 l 439 779 l 410 779 m 167 -8 q 35 46 88 -8 q -18 215 -18 100 q 23 431 -18 318 q 145 623 64 544 q 339 701 226 701 q 424 682 396 701 q 451 631 451 663 l 451 621 l 467 694 l 667 694 l 567 222 q 561 178 561 201 q 618 118 561 118 q 685 154 657 118 q 731 249 714 190 l 789 249 q 662 45 738 99 q 510 -8 586 -8 q 416 24 451 -8 q 374 119 381 57 q 284 27 333 63 q 167 -8 235 -8 m 257 126 q 326 159 292 126 q 372 249 360 192 l 439 563 q 425 598 439 581 q 382 615 411 615 q 282 551 326 615 q 213 395 238 486 q 188 235 188 304 q 208 146 188 165 q 257 126 228 126 z "},"â":{"ha":731,"x_min":-18,"x_max":789,"o":"m 217 779 l 511 1042 l 540 1042 l 624 779 l 579 779 l 496 890 l 278 779 l 217 779 m 167 -8 q 35 46 88 -8 q -18 215 -18 100 q 23 431 -18 318 q 145 623 64 544 q 339 701 226 701 q 424 682 396 701 q 451 631 451 663 l 451 621 l 467 694 l 667 694 l 567 222 q 561 178 561 201 q 618 118 561 118 q 685 154 657 118 q 731 249 714 190 l 789 249 q 662 45 738 99 q 510 -8 586 -8 q 416 24 451 -8 q 374 119 381 57 q 284 27 333 63 q 167 -8 235 -8 m 257 126 q 326 159 292 126 q 372 249 360 192 l 439 563 q 425 598 439 581 q 382 615 411 615 q 282 551 326 615 q 213 395 238 486 q 188 235 188 304 q 208 146 188 165 q 257 126 228 126 z "},"ấ":{"ha":731,"x_min":-18,"x_max":844,"o":"m 613 990 l 724 1222 l 844 1222 l 696 990 l 613 990 m 247 796 l 507 1026 l 532 1026 l 607 796 l 568 796 l 493 894 l 301 796 l 247 796 m 167 -8 q 35 46 88 -8 q -18 215 -18 100 q 23 431 -18 318 q 145 623 64 544 q 339 701 226 701 q 424 682 396 701 q 451 631 451 663 l 451 621 l 467 694 l 667 694 l 567 222 q 561 178 561 201 q 618 118 561 118 q 685 154 657 118 q 731 249 714 190 l 789 249 q 662 45 738 99 q 510 -8 586 -8 q 416 24 451 -8 q 374 119 381 57 q 284 27 333 63 q 167 -8 235 -8 m 257 126 q 326 159 292 126 q 372 249 360 192 l 439 563 q 425 598 439 581 q 382 615 411 615 q 282 551 326 615 q 213 395 238 486 q 188 235 188 304 q 208 146 188 165 q 257 126 228 126 z "},"ậ":{"ha":731,"x_min":-18,"x_max":789,"o":"m 217 779 l 511 1042 l 540 1042 l 624 779 l 579 779 l 496 890 l 278 779 l 217 779 m 167 -8 q 35 46 88 -8 q -18 215 -18 100 q 23 431 -18 318 q 145 623 64 544 q 339 701 226 701 q 424 682 396 701 q 451 631 451 663 l 451 621 l 467 694 l 667 694 l 567 222 q 561 178 561 201 q 618 118 561 118 q 685 154 657 118 q 731 249 714 190 l 789 249 q 662 45 738 99 q 510 -8 586 -8 q 416 24 451 -8 q 374 119 381 57 q 284 27 333 63 q 167 -8 235 -8 m 257 126 q 326 159 292 126 q 372 249 360 192 l 439 563 q 425 598 439 581 q 382 615 411 615 q 282 551 326 615 q 213 395 238 486 q 188 235 188 304 q 208 146 188 165 q 257 126 228 126 m 232 -321 q 155 -289 188 -321 q 122 -211 122 -257 q 155 -133 122 -165 q 232 -100 188 -100 q 311 -133 278 -100 q 344 -211 344 -165 q 311 -289 344 -257 q 232 -321 278 -321 z "},"ầ":{"ha":731,"x_min":-18,"x_max":789,"o":"m 667 943 l 594 1174 l 704 1174 l 740 943 l 667 943 m 247 796 l 507 1026 l 532 1026 l 607 796 l 568 796 l 493 894 l 301 796 l 247 796 m 167 -8 q 35 46 88 -8 q -18 215 -18 100 q 23 431 -18 318 q 145 623 64 544 q 339 701 226 701 q 424 682 396 701 q 451 631 451 663 l 451 621 l 467 694 l 667 694 l 567 222 q 561 178 561 201 q 618 118 561 118 q 685 154 657 118 q 731 249 714 190 l 789 249 q 662 45 738 99 q 510 -8 586 -8 q 416 24 451 -8 q 374 119 381 57 q 284 27 333 63 q 167 -8 235 -8 m 257 126 q 326 159 292 126 q 372 249 360 192 l 439 563 q 425 598 439 581 q 382 615 411 615 q 282 551 326 615 q 213 395 238 486 q 188 235 188 304 q 208 146 188 165 q 257 126 228 126 z "},"ẩ":{"ha":731,"x_min":-18,"x_max":789,"o":"m 626 944 l 626 1031 q 669 1024 650 1024 q 703 1033 692 1024 q 715 1061 715 1043 q 669 1096 715 1096 q 611 1081 638 1096 l 586 1121 q 628 1138 603 1132 q 679 1144 654 1144 q 753 1123 725 1144 q 782 1067 782 1101 q 753 1008 782 1032 q 676 982 724 985 l 672 942 l 626 944 m 247 796 l 507 1026 l 532 1026 l 607 796 l 568 796 l 493 894 l 301 796 l 247 796 m 167 -8 q 35 46 88 -8 q -18 215 -18 100 q 23 431 -18 318 q 145 623 64 544 q 339 701 226 701 q 424 682 396 701 q 451 631 451 663 l 451 621 l 467 694 l 667 694 l 567 222 q 561 178 561 201 q 618 118 561 118 q 685 154 657 118 q 731 249 714 190 l 789 249 q 662 45 738 99 q 510 -8 586 -8 q 416 24 451 -8 q 374 119 381 57 q 284 27 333 63 q 167 -8 235 -8 m 257 126 q 326 159 292 126 q 372 249 360 192 l 439 563 q 425 598 439 581 q 382 615 411 615 q 282 551 326 615 q 213 395 238 486 q 188 235 188 304 q 208 146 188 165 q 257 126 228 126 z "},"ẫ":{"ha":731,"x_min":-18,"x_max":789,"o":"m 568 1089 q 481 1108 533 1089 q 407 1125 433 1125 q 344 1100 371 1125 l 339 1101 q 402 1172 361 1147 q 499 1196 443 1196 q 588 1179 538 1196 q 657 1164 628 1164 q 717 1186 694 1164 l 724 1186 q 669 1119 717 1150 q 568 1089 622 1089 m 247 796 l 507 1026 l 532 1026 l 607 796 l 568 796 l 493 894 l 301 796 l 247 796 m 167 -8 q 35 46 88 -8 q -18 215 -18 100 q 23 431 -18 318 q 145 623 64 544 q 339 701 226 701 q 424 682 396 701 q 451 631 451 663 l 451 621 l 467 694 l 667 694 l 567 222 q 561 178 561 201 q 618 118 561 118 q 685 154 657 118 q 731 249 714 190 l 789 249 q 662 45 738 99 q 510 -8 586 -8 q 416 24 451 -8 q 374 119 381 57 q 284 27 333 63 q 167 -8 235 -8 m 257 126 q 326 159 292 126 q 372 249 360 192 l 439 563 q 425 598 439 581 q 382 615 411 615 q 282 551 326 615 q 213 395 238 486 q 188 235 188 304 q 208 146 188 165 q 257 126 228 126 z "},"ȁ":{"ha":731,"x_min":-18,"x_max":789,"o":"m 296 782 l 100 1044 l 246 1044 l 374 782 l 296 782 m 521 782 l 325 1044 l 471 1044 l 597 782 l 521 782 m 167 -8 q 35 46 88 -8 q -18 215 -18 100 q 23 431 -18 318 q 145 623 64 544 q 339 701 226 701 q 424 682 396 701 q 451 631 451 663 l 451 621 l 467 694 l 667 694 l 567 222 q 561 178 561 201 q 618 118 561 118 q 685 154 657 118 q 731 249 714 190 l 789 249 q 662 45 738 99 q 510 -8 586 -8 q 416 24 451 -8 q 374 119 381 57 q 284 27 333 63 q 167 -8 235 -8 m 257 126 q 326 159 292 126 q 372 249 360 192 l 439 563 q 425 598 439 581 q 382 615 411 615 q 282 551 326 615 q 213 395 238 486 q 188 235 188 304 q 208 146 188 165 q 257 126 228 126 z "},"ä":{"ha":731,"x_min":-18,"x_max":789,"o":"m 335 796 q 274 820 299 796 q 250 881 250 844 q 274 940 250 915 q 335 965 299 965 q 394 940 369 965 q 419 881 419 915 q 394 820 419 844 q 335 796 369 796 m 585 796 q 524 820 549 796 q 500 881 500 844 q 524 940 500 915 q 585 965 549 965 q 644 940 619 965 q 669 881 669 915 q 644 820 669 844 q 585 796 619 796 m 167 -8 q 35 46 88 -8 q -18 215 -18 100 q 23 431 -18 318 q 145 623 64 544 q 339 701 226 701 q 424 682 396 701 q 451 631 451 663 l 451 621 l 467 694 l 667 694 l 567 222 q 561 178 561 201 q 618 118 561 118 q 685 154 657 118 q 731 249 714 190 l 789 249 q 662 45 738 99 q 510 -8 586 -8 q 416 24 451 -8 q 374 119 381 57 q 284 27 333 63 q 167 -8 235 -8 m 257 126 q 326 159 292 126 q 372 249 360 192 l 439 563 q 425 598 439 581 q 382 615 411 615 q 282 551 326 615 q 213 395 238 486 q 188 235 188 304 q 208 146 188 165 q 257 126 228 126 z "},"ạ":{"ha":731,"x_min":-18,"x_max":789,"o":"m 167 -8 q 35 46 88 -8 q -18 215 -18 100 q 23 431 -18 318 q 145 623 64 544 q 339 701 226 701 q 424 682 396 701 q 451 631 451 663 l 451 621 l 467 694 l 667 694 l 567 222 q 561 178 561 201 q 618 118 561 118 q 685 154 657 118 q 731 249 714 190 l 789 249 q 662 45 738 99 q 510 -8 586 -8 q 416 24 451 -8 q 374 119 381 57 q 284 27 333 63 q 167 -8 235 -8 m 257 126 q 326 159 292 126 q 372 249 360 192 l 439 563 q 425 598 439 581 q 382 615 411 615 q 282 551 326 615 q 213 395 238 486 q 188 235 188 304 q 208 146 188 165 q 257 126 228 126 m 232 -321 q 155 -289 188 -321 q 122 -211 122 -257 q 155 -133 122 -165 q 232 -100 188 -100 q 311 -133 278 -100 q 344 -211 344 -165 q 311 -289 344 -257 q 232 -321 278 -321 z "},"à":{"ha":731,"x_min":-18,"x_max":789,"o":"m 382 779 l 300 1042 l 446 1042 l 486 779 l 382 779 m 167 -8 q 35 46 88 -8 q -18 215 -18 100 q 23 431 -18 318 q 145 623 64 544 q 339 701 226 701 q 424 682 396 701 q 451 631 451 663 l 451 621 l 467 694 l 667 694 l 567 222 q 561 178 561 201 q 618 118 561 118 q 685 154 657 118 q 731 249 714 190 l 789 249 q 662 45 738 99 q 510 -8 586 -8 q 416 24 451 -8 q 374 119 381 57 q 284 27 333 63 q 167 -8 235 -8 m 257 126 q 326 159 292 126 q 372 249 360 192 l 439 563 q 425 598 439 581 q 382 615 411 615 q 282 551 326 615 q 213 395 238 486 q 188 235 188 304 q 208 146 188 165 q 257 126 228 126 z "},"ả":{"ha":731,"x_min":-18,"x_max":789,"o":"m 476 1006 q 394 983 431 1006 l 357 1042 q 418 1066 381 1057 q 493 1075 456 1075 q 596 1042 556 1075 q 636 960 636 1010 q 596 876 636 911 q 490 836 556 842 l 481 779 l 415 782 l 415 904 q 476 897 450 897 q 524 913 507 897 q 542 951 542 928 q 525 991 542 976 q 476 1006 508 1006 m 789 249 q 662 45 738 99 q 510 -8 586 -8 q 416 24 451 -8 q 374 119 381 57 q 284 27 333 63 q 167 -8 235 -8 q 35 46 88 -8 q -18 215 -18 100 q 23 431 -18 318 q 145 623 64 544 q 339 701 226 701 q 424 682 396 701 q 451 631 451 663 l 451 621 l 467 694 l 667 694 l 567 222 q 561 178 561 201 q 618 118 561 118 q 685 154 657 118 q 731 249 714 190 l 789 249 m 439 563 q 425 598 439 581 q 382 615 411 615 q 282 551 326 615 q 213 395 238 486 q 188 235 188 304 q 208 146 188 165 q 257 126 228 126 q 326 159 292 126 q 372 249 360 192 l 439 563 z "},"ȃ":{"ha":731,"x_min":-18,"x_max":789,"o":"m 169 785 q 218 882 176 838 q 324 951 260 926 q 463 976 389 976 q 619 927 565 976 q 674 785 674 878 l 550 785 q 522 870 550 840 q 440 900 493 900 q 340 867 383 900 q 289 785 296 833 l 169 785 m 167 -8 q 35 46 88 -8 q -18 215 -18 100 q 23 431 -18 318 q 145 623 64 544 q 339 701 226 701 q 424 682 396 701 q 451 631 451 663 l 451 621 l 467 694 l 667 694 l 567 222 q 561 178 561 201 q 618 118 561 118 q 685 154 657 118 q 731 249 714 190 l 789 249 q 662 45 738 99 q 510 -8 586 -8 q 416 24 451 -8 q 374 119 381 57 q 284 27 333 63 q 167 -8 235 -8 m 257 126 q 326 159 292 126 q 372 249 360 192 l 439 563 q 425 598 439 581 q 382 615 411 615 q 282 551 326 615 q 213 395 238 486 q 188 235 188 304 q 208 146 188 165 q 257 126 228 126 z "},"ā":{"ha":731,"x_min":-18,"x_max":789,"o":"m 226 840 l 249 944 l 693 944 l 672 840 l 226 840 m 167 -8 q 35 46 88 -8 q -18 215 -18 100 q 23 431 -18 318 q 145 623 64 544 q 339 701 226 701 q 424 682 396 701 q 451 631 451 663 l 451 621 l 467 694 l 667 694 l 567 222 q 561 178 561 201 q 618 118 561 118 q 685 154 657 118 q 731 249 714 190 l 789 249 q 662 45 738 99 q 510 -8 586 -8 q 416 24 451 -8 q 374 119 381 57 q 284 27 333 63 q 167 -8 235 -8 m 257 126 q 326 159 292 126 q 372 249 360 192 l 439 563 q 425 598 439 581 q 382 615 411 615 q 282 551 326 615 q 213 395 238 486 q 188 235 188 304 q 208 146 188 165 q 257 126 228 126 z "},"ą":{"ha":731,"x_min":-18,"x_max":789,"o":"m 511 -268 q 430 -235 458 -268 q 401 -160 401 -201 q 490 -7 401 -83 q 409 31 439 -1 q 374 119 379 63 q 284 27 333 63 q 167 -8 235 -8 q 35 46 88 -8 q -18 215 -18 100 q 23 431 -18 318 q 145 623 64 544 q 339 701 226 701 q 424 682 396 701 q 451 631 451 663 l 451 621 l 467 694 l 667 694 l 567 222 q 561 178 561 201 q 618 118 561 118 q 685 154 657 118 q 731 249 714 190 l 789 249 q 701 88 750 143 q 594 7 653 32 q 542 -42 568 -7 q 517 -117 517 -78 q 531 -165 517 -144 q 571 -186 544 -186 q 606 -177 589 -186 q 640 -156 624 -168 q 665 -139 657 -144 q 663 -182 663 -172 q 590 -245 622 -222 q 511 -268 557 -268 m 257 126 q 326 159 292 126 q 372 249 360 192 l 439 563 q 425 598 439 581 q 382 615 411 615 q 282 551 326 615 q 213 395 238 486 q 188 235 188 304 q 208 146 188 165 q 257 126 228 126 z "},"å":{"ha":731,"x_min":-18,"x_max":789,"o":"m 422 767 q 351 794 378 767 q 325 864 325 822 q 356 949 325 908 q 443 990 386 990 q 517 960 492 990 q 543 883 543 931 q 513 800 543 833 q 422 767 483 767 m 428 815 q 476 832 460 815 q 492 879 492 849 q 483 926 492 908 q 446 944 475 944 q 397 921 413 944 q 381 867 381 897 q 428 815 381 815 m 167 -8 q 35 46 88 -8 q -18 215 -18 100 q 23 431 -18 318 q 145 623 64 544 q 339 701 226 701 q 424 682 396 701 q 451 631 451 663 l 451 621 l 467 694 l 667 694 l 567 222 q 561 178 561 201 q 618 118 561 118 q 685 154 657 118 q 731 249 714 190 l 789 249 q 662 45 738 99 q 510 -8 586 -8 q 416 24 451 -8 q 374 119 381 57 q 284 27 333 63 q 167 -8 235 -8 m 257 126 q 326 159 292 126 q 372 249 360 192 l 439 563 q 425 598 439 581 q 382 615 411 615 q 282 551 326 615 q 213 395 238 486 q 188 235 188 304 q 208 146 188 165 q 257 126 228 126 z "},"ǻ":{"ha":731,"x_min":-18,"x_max":789,"o":"m 422 767 q 351 794 378 767 q 325 864 325 822 q 352 945 325 906 q 429 990 379 985 l 493 1124 l 619 1124 l 513 965 q 543 883 543 936 q 513 800 543 833 q 422 767 483 767 m 446 944 q 397 921 413 944 q 381 867 381 897 q 428 815 381 815 q 476 832 460 815 q 492 879 492 849 q 483 926 492 908 q 446 944 475 944 m 789 249 q 662 45 738 99 q 510 -8 586 -8 q 416 24 451 -8 q 374 119 381 57 q 284 27 333 63 q 167 -8 235 -8 q 35 46 88 -8 q -18 215 -18 100 q 23 431 -18 318 q 145 623 64 544 q 339 701 226 701 q 424 682 396 701 q 451 631 451 663 l 451 621 l 467 694 l 667 694 l 567 222 q 561 178 561 201 q 618 118 561 118 q 685 154 657 118 q 731 249 714 190 l 789 249 m 439 563 q 425 598 439 581 q 382 615 411 615 q 282 551 326 615 q 213 395 238 486 q 188 235 188 304 q 208 146 188 165 q 257 126 228 126 q 326 159 292 126 q 372 249 360 192 l 439 563 z "},"ã":{"ha":731,"x_min":-18,"x_max":789,"o":"m 501 790 q 442 797 469 790 q 375 818 414 804 q 314 836 335 831 q 268 842 293 842 q 176 806 217 842 l 169 808 q 261 910 201 875 q 401 944 321 944 q 465 938 436 944 q 528 919 493 932 q 582 903 560 908 q 631 899 604 899 q 718 931 683 899 l 725 929 q 685 865 719 897 q 602 811 651 832 q 501 790 553 790 m 167 -8 q 35 46 88 -8 q -18 215 -18 100 q 23 431 -18 318 q 145 623 64 544 q 339 701 226 701 q 424 682 396 701 q 451 631 451 663 l 451 621 l 467 694 l 667 694 l 567 222 q 561 178 561 201 q 618 118 561 118 q 685 154 657 118 q 731 249 714 190 l 789 249 q 662 45 738 99 q 510 -8 586 -8 q 416 24 451 -8 q 374 119 381 57 q 284 27 333 63 q 167 -8 235 -8 m 257 126 q 326 159 292 126 q 372 249 360 192 l 439 563 q 425 598 439 581 q 382 615 411 615 q 282 551 326 615 q 213 395 238 486 q 188 235 188 304 q 208 146 188 165 q 257 126 228 126 z "},"æ":{"ha":903,"x_min":-11,"x_max":950,"o":"m 165 -8 q 40 32 90 -8 q -11 172 -11 72 q 72 349 -11 294 q 297 403 156 403 q 369 397 347 403 q 399 519 399 460 q 378 591 399 564 q 314 618 357 618 q 218 601 256 618 q 146 553 181 585 l 107 593 q 198 665 156 642 q 276 695 240 689 q 360 701 311 701 q 540 646 471 701 q 728 707 622 707 q 847 670 814 707 q 879 569 879 633 q 835 430 879 494 q 717 326 790 365 q 560 281 643 286 q 557 236 557 250 q 578 135 557 163 q 640 108 599 108 q 748 125 704 108 q 822 168 792 142 q 903 249 853 194 l 950 249 q 567 -6 794 -6 q 363 125 399 -6 q 285 27 329 63 q 165 -8 240 -8 m 569 347 q 669 383 622 350 q 744 467 715 417 q 772 572 772 518 q 765 618 772 603 q 739 633 758 633 q 641 547 688 633 q 569 347 594 460 m 249 126 q 313 167 286 126 q 360 317 339 208 q 336 318 350 318 q 226 285 268 318 q 185 196 185 251 q 206 141 185 156 q 249 126 226 126 z "},"ǽ":{"ha":903,"x_min":-11,"x_max":950,"o":"m 538 779 l 664 1042 l 810 1042 l 640 779 l 538 779 m 165 -8 q 40 32 90 -8 q -11 172 -11 72 q 72 349 -11 294 q 297 403 156 403 q 369 397 347 403 q 399 519 399 460 q 378 591 399 564 q 314 618 357 618 q 218 601 256 618 q 146 553 181 585 l 107 593 q 198 665 156 642 q 276 695 240 689 q 360 701 311 701 q 540 646 471 701 q 728 707 622 707 q 847 670 814 707 q 879 569 879 633 q 835 430 879 494 q 717 326 790 365 q 560 281 643 286 q 557 236 557 250 q 578 135 557 163 q 640 108 599 108 q 748 125 704 108 q 822 168 792 142 q 903 249 853 194 l 950 249 q 567 -6 794 -6 q 363 125 399 -6 q 285 27 329 63 q 165 -8 240 -8 m 569 347 q 669 383 622 350 q 744 467 715 417 q 772 572 772 518 q 765 618 772 603 q 739 633 758 633 q 641 547 688 633 q 569 347 594 460 m 249 126 q 313 167 286 126 q 360 317 339 208 q 336 318 350 318 q 226 285 268 318 q 185 196 185 251 q 206 141 185 156 q 249 126 226 126 z "},"b":{"ha":617,"x_min":-10,"x_max":565,"o":"m 185 -8 q 40 38 90 -8 q -10 169 -10 85 q 0 249 -10 211 l 149 944 l 354 972 l 288 660 q 351 691 326 683 q 401 699 376 699 q 565 461 565 699 q 528 256 565 365 q 406 69 492 147 q 185 -8 321 -8 m 263 126 q 343 180 306 126 q 403 313 381 233 q 425 467 425 393 q 406 561 425 522 q 351 600 386 600 q 305 594 331 600 q 269 575 279 588 l 193 222 q 189 190 189 206 q 263 126 189 126 z "},"c":{"ha":533,"x_min":-18,"x_max":581,"o":"m 199 -8 q 39 45 96 -8 q -18 213 -18 99 q 20 424 -18 308 q 142 623 58 539 q 356 707 226 707 q 474 671 439 707 q 510 579 510 635 q 489 504 510 531 q 436 478 468 478 q 388 494 413 478 q 404 576 404 540 q 394 618 404 603 q 365 633 385 633 q 282 565 324 633 q 214 400 240 497 q 188 225 188 303 q 211 133 188 157 q 288 108 235 108 q 416 143 363 108 q 533 249 469 178 l 581 249 q 199 -8 426 -8 z "},"ć":{"ha":533,"x_min":-18,"x_max":611,"o":"m 339 779 l 465 1042 l 611 1042 l 443 779 l 339 779 m 199 -8 q 39 45 96 -8 q -18 213 -18 99 q 20 424 -18 308 q 142 623 58 539 q 356 707 226 707 q 474 671 439 707 q 510 579 510 635 q 489 504 510 531 q 436 478 468 478 q 388 494 413 478 q 404 576 404 540 q 394 618 404 603 q 365 633 385 633 q 282 565 324 633 q 214 400 240 497 q 188 225 188 303 q 211 133 188 157 q 288 108 235 108 q 416 143 363 108 q 533 249 469 178 l 581 249 q 199 -8 426 -8 z "},"č":{"ha":533,"x_min":-18,"x_max":679,"o":"m 356 779 l 272 1042 l 317 1042 l 400 931 l 618 1042 l 679 1042 l 385 779 l 356 779 m 199 -8 q 39 45 96 -8 q -18 213 -18 99 q 20 424 -18 308 q 142 623 58 539 q 356 707 226 707 q 474 671 439 707 q 510 579 510 635 q 489 504 510 531 q 436 478 468 478 q 388 494 413 478 q 404 576 404 540 q 394 618 404 603 q 365 633 385 633 q 282 565 324 633 q 214 400 240 497 q 188 225 188 303 q 211 133 188 157 q 288 108 235 108 q 416 143 363 108 q 533 249 469 178 l 581 249 q 199 -8 426 -8 z "},"ç":{"ha":533,"x_min":-18,"x_max":581,"o":"m 257 -303 q 178 -293 210 -303 q 108 -264 146 -283 q 164 -219 133 -219 q 197 -225 185 -219 q 224 -240 208 -231 q 267 -257 249 -257 q 296 -239 283 -257 q 308 -199 308 -221 q 295 -162 308 -176 q 254 -149 282 -149 q 215 -153 229 -149 q 182 -165 200 -157 l 239 -6 q 199 -8 214 -8 q 39 45 96 -8 q -18 213 -18 99 q 20 424 -18 308 q 142 623 58 539 q 356 707 226 707 q 474 671 439 707 q 510 579 510 635 q 489 504 510 531 q 436 478 468 478 q 388 494 413 478 q 404 576 404 540 q 394 618 404 603 q 365 633 385 633 q 282 565 324 633 q 214 400 240 497 q 188 225 188 303 q 211 133 188 157 q 288 108 235 108 q 416 143 363 108 q 533 249 469 178 l 581 249 q 304 7 463 54 l 264 -92 q 338 -81 311 -81 q 424 -150 424 -81 q 374 -262 424 -221 q 257 -303 324 -303 z "},"ĉ":{"ha":533,"x_min":-18,"x_max":581,"o":"m 149 779 l 443 1042 l 472 1042 l 556 779 l 511 779 l 428 890 l 210 779 l 149 779 m 199 -8 q 39 45 96 -8 q -18 213 -18 99 q 20 424 -18 308 q 142 623 58 539 q 356 707 226 707 q 474 671 439 707 q 510 579 510 635 q 489 504 510 531 q 436 478 468 478 q 388 494 413 478 q 404 576 404 540 q 394 618 404 603 q 365 633 385 633 q 282 565 324 633 q 214 400 240 497 q 188 225 188 303 q 211 133 188 157 q 288 108 235 108 q 416 143 363 108 q 533 249 469 178 l 581 249 q 199 -8 426 -8 z "},"ċ":{"ha":533,"x_min":-18,"x_max":581,"o":"m 411 831 q 333 863 365 831 q 301 940 301 894 q 333 1019 301 986 q 411 1051 365 1051 q 490 1019 457 1051 q 522 940 522 986 q 490 863 522 894 q 411 831 457 831 m 199 -8 q 39 45 96 -8 q -18 213 -18 99 q 20 424 -18 308 q 142 623 58 539 q 356 707 226 707 q 474 671 439 707 q 510 579 510 635 q 489 504 510 531 q 436 478 468 478 q 388 494 413 478 q 404 576 404 540 q 394 618 404 603 q 365 633 385 633 q 282 565 324 633 q 214 400 240 497 q 188 225 188 303 q 211 133 188 157 q 288 108 235 108 q 416 143 363 108 q 533 249 469 178 l 581 249 q 199 -8 426 -8 z "},"d":{"ha":729,"x_min":-18,"x_max":788,"o":"m 167 -8 q 35 46 88 -8 q -18 215 -18 100 q 23 431 -18 318 q 145 623 64 544 q 339 701 226 701 q 424 682 396 701 q 451 631 451 663 l 451 625 l 519 944 l 725 972 l 565 222 q 560 178 560 201 q 573 138 560 150 q 617 126 586 126 q 684 160 656 126 q 729 249 713 193 l 788 249 q 508 0 703 0 q 416 31 451 0 q 372 119 381 61 q 285 28 336 64 q 167 -8 235 -8 m 257 126 q 324 157 290 126 q 371 242 358 188 l 371 249 l 439 567 q 382 615 426 615 q 282 551 326 615 q 213 395 238 486 q 188 235 188 304 q 208 146 188 165 q 257 126 228 126 z "},"ð":{"ha":731,"x_min":-18,"x_max":789,"o":"m 789 249 q 510 0 704 0 q 417 31 453 0 q 374 121 382 61 q 167 -8 289 -8 q 35 46 88 -8 q -18 215 -18 100 q 23 431 -18 318 q 145 623 64 544 q 339 701 226 701 q 426 681 397 701 q 456 622 456 660 q 467 749 467 696 q 460 826 467 796 l 292 782 l 275 853 l 438 899 q 374 997 413 950 l 494 1042 q 582 940 547 997 l 736 983 l 754 906 l 619 869 q 653 686 653 785 q 638 550 653 624 l 567 222 q 561 178 561 201 q 574 138 561 150 q 618 126 588 126 q 685 160 657 126 q 731 249 714 193 l 789 249 m 439 563 q 425 597 439 579 q 382 615 411 615 q 282 551 326 615 q 213 395 238 486 q 188 235 188 304 q 208 146 188 165 q 257 126 228 126 q 326 159 292 126 q 372 249 360 192 l 439 563 z "},"ď":{"ha":729,"x_min":-18,"x_max":947,"o":"m 781 790 q 822 842 811 824 q 833 875 833 860 q 828 897 833 888 q 808 921 822 906 q 785 951 793 938 q 778 983 778 965 q 801 1038 778 1017 q 864 1060 825 1060 q 924 1035 901 1060 q 947 971 947 1011 q 909 857 947 917 q 811 758 871 797 l 781 790 m 167 -8 q 35 46 88 -8 q -18 215 -18 100 q 23 431 -18 318 q 145 623 64 544 q 339 701 226 701 q 424 682 396 701 q 451 631 451 663 l 451 625 l 519 944 l 725 972 l 565 222 q 560 178 560 201 q 573 138 560 150 q 617 126 586 126 q 684 160 656 126 q 729 249 713 193 l 788 249 q 508 0 703 0 q 416 31 451 0 q 372 119 381 61 q 285 28 336 64 q 167 -8 235 -8 m 257 126 q 324 157 290 126 q 371 242 358 188 l 371 249 l 439 567 q 382 615 426 615 q 282 551 326 615 q 213 395 238 486 q 188 235 188 304 q 208 146 188 165 q 257 126 228 126 z "},"đ":{"ha":729,"x_min":-18,"x_max":810,"o":"m 565 222 q 560 178 560 201 q 573 138 560 150 q 617 126 586 126 q 684 160 656 126 q 729 249 713 193 l 788 249 q 508 0 703 0 q 416 31 451 0 q 372 119 381 61 q 285 28 336 64 q 167 -8 235 -8 q 35 46 88 -8 q -18 215 -18 100 q 23 431 -18 318 q 145 623 64 544 q 339 701 226 701 q 424 682 396 701 q 451 631 451 663 l 451 625 l 483 776 l 361 776 l 379 846 l 499 846 l 519 944 l 725 972 l 699 846 l 810 846 l 789 776 l 683 776 l 565 222 m 439 567 q 382 615 426 615 q 282 551 326 615 q 213 395 238 486 q 188 235 188 304 q 208 146 188 165 q 257 126 228 126 q 324 157 290 126 q 371 242 358 188 l 371 249 l 439 567 z "},"ḍ":{"ha":729,"x_min":-18,"x_max":788,"o":"m 167 -8 q 35 46 88 -8 q -18 215 -18 100 q 23 431 -18 318 q 145 623 64 544 q 339 701 226 701 q 424 682 396 701 q 451 631 451 663 l 451 625 l 519 944 l 725 972 l 565 222 q 560 178 560 201 q 573 138 560 150 q 617 126 586 126 q 684 160 656 126 q 729 249 713 193 l 788 249 q 508 0 703 0 q 416 31 451 0 q 372 119 381 61 q 285 28 336 64 q 167 -8 235 -8 m 257 126 q 324 157 290 126 q 371 242 358 188 l 371 249 l 439 567 q 382 615 426 615 q 282 551 326 615 q 213 395 238 486 q 188 235 188 304 q 208 146 188 165 q 257 126 228 126 m 232 -321 q 155 -289 188 -321 q 122 -211 122 -257 q 155 -133 122 -165 q 232 -100 188 -100 q 311 -133 278 -100 q 344 -211 344 -165 q 311 -289 344 -257 q 232 -321 278 -321 z "},"e":{"ha":533,"x_min":-18,"x_max":581,"o":"m 199 -8 q 39 45 96 -8 q -18 213 -18 99 q 19 424 -18 308 q 142 623 57 539 q 357 707 226 707 q 510 574 510 707 q 465 431 510 496 q 347 326 421 365 q 190 281 274 286 q 188 225 188 239 q 211 133 188 157 q 288 108 235 108 q 416 143 363 108 q 533 249 469 178 l 581 249 q 199 -8 426 -8 m 201 347 q 299 383 253 350 q 374 468 346 417 q 403 576 403 519 q 368 633 403 633 q 270 546 318 633 q 201 347 222 458 z "},"é":{"ha":533,"x_min":-18,"x_max":582,"o":"m 310 779 l 436 1042 l 582 1042 l 414 779 l 310 779 m 199 -8 q 39 45 96 -8 q -18 213 -18 99 q 19 424 -18 308 q 142 623 57 539 q 357 707 226 707 q 510 574 510 707 q 465 431 510 496 q 347 326 421 365 q 190 281 274 286 q 188 225 188 239 q 211 133 188 157 q 288 108 235 108 q 416 143 363 108 q 533 249 469 178 l 581 249 q 199 -8 426 -8 m 201 347 q 299 383 253 350 q 374 468 346 417 q 403 576 403 519 q 368 633 403 633 q 270 546 318 633 q 201 347 222 458 z "},"ĕ":{"ha":533,"x_min":-18,"x_max":606,"o":"m 313 818 q 156 867 210 818 q 101 1011 101 917 l 225 1011 q 253 926 225 956 q 335 896 282 896 q 435 929 392 896 q 486 1011 479 963 l 606 1011 q 557 913 599 957 q 451 844 515 869 q 313 818 386 818 m 199 -8 q 39 45 96 -8 q -18 213 -18 99 q 19 424 -18 308 q 142 623 57 539 q 357 707 226 707 q 510 574 510 707 q 465 431 510 496 q 347 326 421 365 q 190 281 274 286 q 188 225 188 239 q 211 133 188 157 q 288 108 235 108 q 416 143 363 108 q 533 249 469 178 l 581 249 q 199 -8 426 -8 m 201 347 q 299 383 253 350 q 374 468 346 417 q 403 576 403 519 q 368 633 403 633 q 270 546 318 633 q 201 347 222 458 z "},"ě":{"ha":533,"x_min":-18,"x_max":675,"o":"m 351 779 l 268 1042 l 313 1042 l 396 931 l 614 1042 l 675 1042 l 381 779 l 351 779 m 199 -8 q 39 45 96 -8 q -18 213 -18 99 q 19 424 -18 308 q 142 623 57 539 q 357 707 226 707 q 510 574 510 707 q 465 431 510 496 q 347 326 421 365 q 190 281 274 286 q 188 225 188 239 q 211 133 188 157 q 288 108 235 108 q 416 143 363 108 q 533 249 469 178 l 581 249 q 199 -8 426 -8 m 201 347 q 299 383 253 350 q 374 468 346 417 q 403 576 403 519 q 368 633 403 633 q 270 546 318 633 q 201 347 222 458 z "},"ê":{"ha":533,"x_min":-18,"x_max":581,"o":"m 146 779 l 440 1042 l 469 1042 l 553 779 l 508 779 l 425 890 l 207 779 l 146 779 m 199 -8 q 39 45 96 -8 q -18 213 -18 99 q 19 424 -18 308 q 142 623 57 539 q 357 707 226 707 q 510 574 510 707 q 465 431 510 496 q 347 326 421 365 q 190 281 274 286 q 188 225 188 239 q 211 133 188 157 q 288 108 235 108 q 416 143 363 108 q 533 249 469 178 l 581 249 q 199 -8 426 -8 m 201 347 q 299 383 253 350 q 374 468 346 417 q 403 576 403 519 q 368 633 403 633 q 270 546 318 633 q 201 347 222 458 z "},"ế":{"ha":533,"x_min":-18,"x_max":778,"o":"m 544 990 l 657 1222 l 778 1222 l 629 990 l 544 990 m 179 796 l 439 1026 l 464 1026 l 539 796 l 500 796 l 426 894 l 233 796 l 179 796 m 199 -8 q 39 45 96 -8 q -18 213 -18 99 q 19 424 -18 308 q 142 623 57 539 q 357 707 226 707 q 510 574 510 707 q 465 431 510 496 q 347 326 421 365 q 190 281 274 286 q 188 225 188 239 q 211 133 188 157 q 288 108 235 108 q 416 143 363 108 q 533 249 469 178 l 581 249 q 199 -8 426 -8 m 201 347 q 299 383 253 350 q 374 468 346 417 q 403 576 403 519 q 368 633 403 633 q 270 546 318 633 q 201 347 222 458 z "},"ệ":{"ha":533,"x_min":-18,"x_max":581,"o":"m 146 779 l 440 1042 l 469 1042 l 553 779 l 508 779 l 425 890 l 207 779 l 146 779 m 199 -8 q 39 45 96 -8 q -18 213 -18 99 q 19 424 -18 308 q 142 623 57 539 q 357 707 226 707 q 510 574 510 707 q 465 431 510 496 q 347 326 421 365 q 190 281 274 286 q 188 225 188 239 q 211 133 188 157 q 288 108 235 108 q 416 143 363 108 q 533 249 469 178 l 581 249 q 199 -8 426 -8 m 201 347 q 299 383 253 350 q 374 468 346 417 q 403 576 403 519 q 368 633 403 633 q 270 546 318 633 q 201 347 222 458 m 144 -321 q 67 -289 99 -321 q 35 -211 35 -257 q 67 -133 35 -165 q 144 -100 99 -100 q 223 -133 190 -100 q 256 -211 256 -165 q 223 -289 256 -257 q 144 -321 190 -321 z "},"ề":{"ha":533,"x_min":-18,"x_max":672,"o":"m 600 943 l 526 1174 l 636 1174 l 672 943 l 600 943 m 179 796 l 439 1026 l 464 1026 l 539 796 l 500 796 l 426 894 l 233 796 l 179 796 m 199 -8 q 39 45 96 -8 q -18 213 -18 99 q 19 424 -18 308 q 142 623 57 539 q 357 707 226 707 q 510 574 510 707 q 465 431 510 496 q 347 326 421 365 q 190 281 274 286 q 188 225 188 239 q 211 133 188 157 q 288 108 235 108 q 416 143 363 108 q 533 249 469 178 l 581 249 q 199 -8 426 -8 m 201 347 q 299 383 253 350 q 374 468 346 417 q 403 576 403 519 q 368 633 403 633 q 270 546 318 633 q 201 347 222 458 z "},"ể":{"ha":533,"x_min":-18,"x_max":694,"o":"m 538 944 l 538 1031 q 581 1024 563 1024 q 615 1033 603 1024 q 628 1061 628 1043 q 581 1096 628 1096 q 522 1081 549 1096 l 497 1121 q 540 1138 514 1132 q 592 1144 565 1144 q 665 1123 636 1144 q 694 1067 694 1101 q 665 1008 694 1032 q 589 982 636 985 l 585 942 l 538 944 m 179 796 l 439 1026 l 464 1026 l 539 796 l 500 796 l 426 894 l 233 796 l 179 796 m 199 -8 q 39 45 96 -8 q -18 213 -18 99 q 19 424 -18 308 q 142 623 57 539 q 357 707 226 707 q 510 574 510 707 q 465 431 510 496 q 347 326 421 365 q 190 281 274 286 q 188 225 188 239 q 211 133 188 157 q 288 108 235 108 q 416 143 363 108 q 533 249 469 178 l 581 249 q 199 -8 426 -8 m 201 347 q 299 383 253 350 q 374 468 346 417 q 403 576 403 519 q 368 633 403 633 q 270 546 318 633 q 201 347 222 458 z "},"ễ":{"ha":533,"x_min":-18,"x_max":656,"o":"m 500 1089 q 413 1108 465 1089 q 340 1125 365 1125 q 276 1100 304 1125 l 271 1101 q 334 1172 293 1147 q 431 1196 375 1196 q 519 1179 469 1196 q 589 1164 560 1164 q 623 1170 607 1164 q 649 1186 639 1176 l 656 1186 q 601 1119 649 1150 q 500 1089 554 1089 m 179 796 l 439 1026 l 464 1026 l 539 796 l 500 796 l 426 894 l 233 796 l 179 796 m 199 -8 q 39 45 96 -8 q -18 213 -18 99 q 19 424 -18 308 q 142 623 57 539 q 357 707 226 707 q 510 574 510 707 q 465 431 510 496 q 347 326 421 365 q 190 281 274 286 q 188 225 188 239 q 211 133 188 157 q 288 108 235 108 q 416 143 363 108 q 533 249 469 178 l 581 249 q 199 -8 426 -8 m 201 347 q 299 383 253 350 q 374 468 346 417 q 403 576 403 519 q 368 633 403 633 q 270 546 318 633 q 201 347 222 458 z "},"ȅ":{"ha":533,"x_min":-18,"x_max":581,"o":"m 208 782 l 13 1044 l 158 1044 l 285 782 l 208 782 m 433 782 l 238 1044 l 383 1044 l 510 782 l 433 782 m 199 -8 q 39 45 96 -8 q -18 213 -18 99 q 19 424 -18 308 q 142 623 57 539 q 357 707 226 707 q 510 574 510 707 q 465 431 510 496 q 347 326 421 365 q 190 281 274 286 q 188 225 188 239 q 211 133 188 157 q 288 108 235 108 q 416 143 363 108 q 533 249 469 178 l 581 249 q 199 -8 426 -8 m 201 347 q 299 383 253 350 q 374 468 346 417 q 403 576 403 519 q 368 633 403 633 q 270 546 318 633 q 201 347 222 458 z "},"ë":{"ha":533,"x_min":-18,"x_max":585,"o":"m 250 796 q 190 820 214 796 q 165 881 165 844 q 190 940 165 915 q 250 965 214 965 q 310 940 285 965 q 335 881 335 915 q 310 820 335 844 q 250 796 285 796 m 500 796 q 440 820 464 796 q 415 881 415 844 q 440 940 415 915 q 500 965 464 965 q 560 940 535 965 q 585 881 585 915 q 560 820 585 844 q 500 796 535 796 m 199 -8 q 39 45 96 -8 q -18 213 -18 99 q 19 424 -18 308 q 142 623 57 539 q 357 707 226 707 q 510 574 510 707 q 465 431 510 496 q 347 326 421 365 q 190 281 274 286 q 188 225 188 239 q 211 133 188 157 q 288 108 235 108 q 416 143 363 108 q 533 249 469 178 l 581 249 q 199 -8 426 -8 m 201 347 q 299 383 253 350 q 374 468 346 417 q 403 576 403 519 q 368 633 403 633 q 270 546 318 633 q 201 347 222 458 z "},"ė":{"ha":533,"x_min":-18,"x_max":581,"o":"m 406 831 q 327 863 360 831 q 294 940 294 894 q 327 1019 294 986 q 406 1051 360 1051 q 483 1019 450 1051 q 517 940 517 986 q 484 863 517 894 q 406 831 451 831 m 199 -8 q 39 45 96 -8 q -18 213 -18 99 q 19 424 -18 308 q 142 623 57 539 q 357 707 226 707 q 510 574 510 707 q 465 431 510 496 q 347 326 421 365 q 190 281 274 286 q 188 225 188 239 q 211 133 188 157 q 288 108 235 108 q 416 143 363 108 q 533 249 469 178 l 581 249 q 199 -8 426 -8 m 201 347 q 299 383 253 350 q 374 468 346 417 q 403 576 403 519 q 368 633 403 633 q 270 546 318 633 q 201 347 222 458 z "},"ẹ":{"ha":533,"x_min":-18,"x_max":581,"o":"m 199 -8 q 39 45 96 -8 q -18 213 -18 99 q 19 424 -18 308 q 142 623 57 539 q 357 707 226 707 q 510 574 510 707 q 465 431 510 496 q 347 326 421 365 q 190 281 274 286 q 188 225 188 239 q 211 133 188 157 q 288 108 235 108 q 416 143 363 108 q 533 249 469 178 l 581 249 q 199 -8 426 -8 m 201 347 q 299 383 253 350 q 374 468 346 417 q 403 576 403 519 q 368 633 403 633 q 270 546 318 633 q 201 347 222 458 m 144 -321 q 67 -289 99 -321 q 35 -211 35 -257 q 67 -133 35 -165 q 144 -100 99 -100 q 223 -133 190 -100 q 256 -211 256 -165 q 223 -289 256 -257 q 144 -321 190 -321 z "},"è":{"ha":533,"x_min":-18,"x_max":581,"o":"m 301 779 l 219 1042 l 365 1042 l 406 779 l 301 779 m 199 -8 q 39 45 96 -8 q -18 213 -18 99 q 19 424 -18 308 q 142 623 57 539 q 357 707 226 707 q 510 574 510 707 q 465 431 510 496 q 347 326 421 365 q 190 281 274 286 q 188 225 188 239 q 211 133 188 157 q 288 108 235 108 q 416 143 363 108 q 533 249 469 178 l 581 249 q 199 -8 426 -8 m 201 347 q 299 383 253 350 q 374 468 346 417 q 403 576 403 519 q 368 633 403 633 q 270 546 318 633 q 201 347 222 458 z "},"ẻ":{"ha":533,"x_min":-18,"x_max":581,"o":"m 307 782 l 307 904 q 368 897 342 897 q 416 913 399 897 q 433 951 433 928 q 417 991 433 976 q 368 1006 400 1006 q 286 983 322 1006 l 249 1042 q 310 1066 272 1057 q 385 1075 347 1075 q 488 1042 447 1075 q 528 960 528 1008 q 487 876 528 911 q 382 836 446 842 l 372 779 l 307 782 m 199 -8 q 39 45 96 -8 q -18 213 -18 99 q 19 424 -18 308 q 142 623 57 539 q 357 707 226 707 q 510 574 510 707 q 465 431 510 496 q 347 326 421 365 q 190 281 274 286 q 188 225 188 239 q 211 133 188 157 q 288 108 235 108 q 416 143 363 108 q 533 249 469 178 l 581 249 q 199 -8 426 -8 m 201 347 q 299 383 253 350 q 374 468 346 417 q 403 576 403 519 q 368 633 403 633 q 270 546 318 633 q 201 347 222 458 z "},"ȇ":{"ha":533,"x_min":-18,"x_max":581,"o":"m 67 785 q 116 882 75 838 q 222 951 157 926 q 360 976 286 976 q 517 927 463 976 q 572 785 572 878 l 447 785 q 419 870 447 840 q 339 900 390 900 q 237 867 281 900 q 186 785 193 833 l 67 785 m 199 -8 q 39 45 96 -8 q -18 213 -18 99 q 19 424 -18 308 q 142 623 57 539 q 357 707 226 707 q 510 574 510 707 q 465 431 510 496 q 347 326 421 365 q 190 281 274 286 q 188 225 188 239 q 211 133 188 157 q 288 108 235 108 q 416 143 363 108 q 533 249 469 178 l 581 249 q 199 -8 426 -8 m 201 347 q 299 383 253 350 q 374 468 346 417 q 403 576 403 519 q 368 633 403 633 q 270 546 318 633 q 201 347 222 458 z "},"ē":{"ha":533,"x_min":-18,"x_max":581,"o":"m 111 840 l 133 944 l 578 944 l 557 840 l 111 840 m 199 -8 q 39 45 96 -8 q -18 213 -18 99 q 19 424 -18 308 q 142 623 57 539 q 357 707 226 707 q 510 574 510 707 q 465 431 510 496 q 347 326 421 365 q 190 281 274 286 q 188 225 188 239 q 211 133 188 157 q 288 108 235 108 q 416 143 363 108 q 533 249 469 178 l 581 249 q 199 -8 426 -8 m 201 347 q 299 383 253 350 q 374 468 346 417 q 403 576 403 519 q 368 633 403 633 q 270 546 318 633 q 201 347 222 458 z "},"ę":{"ha":533,"x_min":-18,"x_max":581,"o":"m 274 -268 q 192 -235 221 -268 q 164 -160 164 -201 q 188 -82 164 -122 q 257 -4 211 -42 q 199 -8 231 -8 q 39 45 96 -8 q -18 213 -18 99 q 19 424 -18 308 q 142 623 57 539 q 357 707 226 707 q 510 574 510 707 q 465 431 510 496 q 347 326 421 365 q 190 281 274 286 q 188 225 188 239 q 211 133 188 157 q 288 108 235 108 q 416 143 363 108 q 533 249 469 178 l 581 249 q 487 123 533 168 q 379 35 440 78 q 302 -31 325 -1 q 279 -117 279 -61 q 293 -165 279 -144 q 333 -186 307 -186 q 369 -177 351 -186 q 403 -156 386 -168 q 428 -139 419 -144 q 425 -182 425 -172 q 352 -245 385 -222 q 274 -268 319 -268 m 201 347 q 299 383 253 350 q 374 468 346 417 q 403 576 403 519 q 368 633 403 633 q 270 546 318 633 q 201 347 222 458 z "},"ẽ":{"ha":533,"x_min":-18,"x_max":625,"o":"m 401 790 q 340 797 369 790 q 274 818 311 804 q 217 835 242 829 q 168 842 193 842 q 76 806 117 842 l 68 808 q 161 910 101 875 q 300 944 221 944 q 364 938 335 944 q 428 919 393 932 q 529 899 488 899 q 617 931 585 899 l 625 929 q 584 865 618 897 q 501 811 550 832 q 401 790 453 790 m 199 -8 q 39 45 96 -8 q -18 213 -18 99 q 19 424 -18 308 q 142 623 57 539 q 357 707 226 707 q 510 574 510 707 q 465 431 510 496 q 347 326 421 365 q 190 281 274 286 q 188 225 188 239 q 211 133 188 157 q 288 108 235 108 q 416 143 363 108 q 533 249 469 178 l 581 249 q 199 -8 426 -8 m 201 347 q 299 383 253 350 q 374 468 346 417 q 403 576 403 519 q 368 633 403 633 q 270 546 318 633 q 201 347 222 458 z "},"ə":{"ha":561,"x_min":0,"x_max":535,"o":"m 150 -8 q 39 27 78 -8 q 0 128 0 63 q 44 263 0 200 q 164 367 89 326 q 326 413 239 407 q 329 471 329 435 q 303 556 329 526 q 226 585 276 585 q 151 565 185 585 q 99 507 118 544 q 69 571 69 532 q 99 638 69 607 q 181 685 129 668 q 294 703 232 703 q 474 640 413 703 q 535 454 535 576 q 481 228 535 335 q 339 56 428 121 q 150 -8 250 -8 m 151 65 q 244 144 199 65 q 315 346 290 222 q 217 310 264 343 q 142 228 171 278 q 114 125 114 179 q 151 65 114 65 z "},"f":{"ha":371,"x_min":-289,"x_max":535,"o":"m -125 -347 q -240 -305 -190 -347 q -289 -197 -289 -262 q -258 -99 -289 -137 q -179 -37 -228 -60 q -50 11 -131 -14 l 118 804 q 216 989 146 938 q 371 1040 286 1040 q 485 998 436 1040 q 535 890 535 956 q 531 833 535 858 l 465 833 q 468 871 468 864 q 453 906 468 893 q 415 918 438 918 q 358 892 386 918 q 318 804 331 867 l 294 694 l 396 694 l 386 639 l 283 639 l 124 -111 q 28 -297 96 -246 q -125 -347 -40 -347 m -157 -224 q -78 -115 -101 -224 l -60 -35 q -173 -92 -133 -60 q -212 -178 -212 -125 q -196 -209 -212 -194 q -157 -224 -179 -224 z "}}}
